<?xml version="1.0" encoding="UTF-8"?><svg id="a" xmlns="http://www.w3.org/2000/svg" width="200mm" height="130mm" viewBox="0 0 566.9291 368.5039"><rect y=".1566" width="567.147" height="368.3473" fill="#c39623"/><rect x="56.6929" y="51.0236" width="453.5433" height="294.8031" fill="#e7d5a7" stroke="#312609" stroke-miterlimit="10" stroke-width="1.4173"/><rect x="56.6929" y="22.6772" width="453.5433" height="28.3465" fill="#dbc07b" stroke="#312609" stroke-miterlimit="10" stroke-width="1.4173"/><path d="M257.5379,42.5195v-9.7368h3.2031c.8506,0,1.5469.1699,2.0908.5103.543.3398.9443.8667,1.2041,1.5801s.3906,1.6323.3906,2.7568c0,1.1147-.1328,2.0337-.3975,2.7563-.2646.7231-.668,1.2593-1.2119,1.6089-.543.3496-1.2451.5244-2.1045.5244h-3.1748ZM259.4793,40.8755h1.1201c.3115,0,.5811-.0474.8076-.1416.2266-.0947.418-.248.5742-.4609.1562-.2124.2715-.4912.3477-.8359.0752-.3447.1133-.7676.1133-1.2686v-.9214c0-.5005-.0381-.9307-.1133-1.2896-.0762-.3594-.1895-.6523-.3408-.8789s-.3428-.3921-.5742-.4961-.5029-.1558-.8145-.1558h-1.1201v6.4487Z"/><path d="M268.3377,42.6895c-.6523,0-1.1953-.1343-1.6299-.4038-.4346-.269-.7637-.6919-.9854-1.2686-.2217-.5762-.333-1.3179-.333-2.2251,0-.9165.1113-1.6606.333-2.2324.2217-.5713.5508-.9941.9854-1.2686.4346-.2739.9775-.4106,1.6299-.4106s1.1953.1367,1.6299.4106c.4346.2744.7627.6973.9854,1.2686.2217.5718.333,1.3159.333,2.2324,0,.9072-.1113,1.6489-.333,2.2251-.2227.5767-.5508.9995-.9854,1.2686-.4346.2695-.9775.4038-1.6299.4038ZM268.3377,41.2725c.2734,0,.4961-.0688.666-.2056.1699-.1372.293-.3589.3682-.6665.0762-.3066.1143-.7061.1143-1.1973v-.8223c0-.5005-.0381-.9023-.1143-1.2046-.0752-.3022-.1982-.5244-.3682-.666-.1699-.1421-.3926-.2129-.666-.2129-.2744,0-.4961.0708-.666.2129-.1699.1416-.293.3638-.3691.666-.0752.3022-.1133.7041-.1133,1.2046v.8223c0,.4912.0381.8906.1133,1.1973.0762.3076.1992.5293.3691.6665.1699.1367.3916.2056.666.2056Z"/><path d="M274.9988,42.6895c-.6514,0-1.1855-.1392-1.6016-.418s-.7246-.7061-.9277-1.2827c-.2031-.5762-.3047-1.3086-.3047-2.1968,0-.9165.1064-1.6631.3184-2.2393.2129-.5762.5293-.9995.9502-1.2686.4199-.2695.9473-.4038,1.5801-.4038.4531,0,.8477.0591,1.1836.1768.335.1187.6143.3003.8359.5459s.3877.5596.4961.9424.1631.8481.1631,1.396h-1.7295c0-.3965-.0303-.7158-.0918-.9565s-.1582-.4155-.291-.5244c-.1318-.1084-.3213-.1631-.5664-.1631-.2266,0-.4209.0664-.5811.1987-.1611.1323-.2793.3496-.3545.6519-.0762.3022-.1133.7134-.1133,1.2329v.8364c0,.397.0303.751.0918,1.063.0615.3115.1699.5552.3262.73s.3711.2622.6445.2622c.2363,0,.4258-.0518.5674-.1562.1416-.1035.2451-.2764.3115-.5171.0664-.2412.0996-.5601.0996-.9565h1.6865c0,.4814-.0547.9116-.1631,1.2896s-.2744.6968-.4961.9565c-.2217.2603-.5029.4585-.8438.5952-.3398.1372-.7363.2056-1.1904.2056Z"/><path d="M280.6121,42.6895c-.5957,0-1.0469-.1724-1.3535-.5171-.3076-.3447-.4609-.8906-.4609-1.6372v-5.4849h1.7432v5.0596c0,.1611.0166.3027.0498.4253.0332.123.0801.2271.1416.312s.1416.1489.2412.1914c.0986.0425.2197.0635.3613.0635.2168,0,.4062-.0659.5664-.1982.1611-.1323.2842-.3281.3691-.5884.085-.2598.127-.5645.127-.9141v-4.3511h1.7432v7.4692h-1.4873l-.1143-.9497h-.0703c-.1328.2461-.2881.4517-.4678.6167-.1797.1655-.3848.2905-.6162.3755-.2324.085-.4893.1274-.7725.1274Z"/><path d="M285.5574,42.5195v-7.4692h1.4746l.127.9497h.0713c.1318-.2456.2832-.4512.4531-.6167.1709-.165.3662-.2905.5889-.3755.2217-.085.4648-.1274.7295-.1274.416,0,.7559.0898,1.0205.269.2646.1797.4541.4629.5674.8506h.085c.1221-.2456.2695-.4512.4395-.6167.1699-.165.3682-.2905.5947-.3755s.4727-.1274.7373-.1274c.3965,0,.7246.0757.9854.2266.2598.1514.4551.3828.5879.6943.1318.312.1982.7183.1982,1.2192v5.499h-1.7432v-5.0601c0-.1602-.0146-.3022-.043-.4248-.0283-.123-.0703-.2271-.127-.312s-.1328-.1489-.2266-.1914c-.0947-.0425-.208-.0635-.3408-.0635-.1982,0-.3711.0659-.5166.1982-.1475.1323-.2607.3262-.3408.5811-.0801.2554-.1201.5625-.1201.9214v4.3511h-1.7432v-5.0601c0-.1602-.0127-.3022-.0361-.4248-.0234-.123-.0654-.2271-.127-.312s-.1396-.1489-.2344-.1914-.2031-.0635-.3252-.0635c-.208,0-.3857.0659-.5322.1982s-.2598.3262-.3398.5811c-.0801.2554-.1201.5625-.1201.9214v4.3511h-1.7441Z"/><path d="M298.2283,42.6895c-.6709,0-1.2207-.1323-1.6504-.3965-.4307-.2646-.749-.6851-.957-1.2617-.208-.5762-.3115-1.3228-.3115-2.2393,0-.9448.1084-1.7031.3252-2.2749.2178-.5713.5459-.9873.9854-1.2471s.9902-.3896,1.6514-.3896c.6143,0,1.127.1182,1.5381.354.4111.2363.7178.626.9209,1.1694s.3047,1.2778.3047,2.2041v.5386h-3.9258c.0088.4912.0469.8975.1133,1.2188s.1797.5596.3398.7158c.1611.1558.3877.2339.6807.2339.1602,0,.3047-.0259.4326-.0781.127-.0518.2354-.1348.3252-.248s.1582-.2622.2061-.4463c.0469-.1846.0703-.3994.0703-.645h1.7295c0,.4727-.0615.8838-.1846,1.2329-.1221.3501-.3047.6406-.5449.8721-.2412.2314-.5322.4038-.8721.5171s-.7324.1699-1.1768.1699ZM297.1228,38.1118h2.0977c0-.3403-.0186-.626-.0566-.8574-.0371-.2314-.0918-.4229-.1631-.5742-.0703-.1509-.1699-.2598-.2969-.3262-.1279-.0659-.2812-.0991-.4609-.0991-.2646,0-.4775.0708-.6377.2129-.1611.1416-.2793.3472-.3545.6162-.0762.2695-.1182.6118-.1279,1.0278Z"/><path d="M302.1824,42.5195v-7.4692h1.4746l.127.9497h.0713c.1318-.2456.2881-.4512.4678-.6167.1797-.165.3848-.2905.6162-.3755s.4844-.1274.7588-.1274c.4062,0,.7441.0757,1.0127.2266.2695.1514.4727.3877.6104.7085.1367.3213.2051.7324.2051,1.2334v5.4707h-1.7578v-5.0459c0-.1699-.0137-.3164-.042-.439-.0283-.123-.0762-.2271-.1416-.312-.0664-.085-.1494-.1489-.248-.1914-.0996-.0425-.2197-.0635-.3613-.0635-.208,0-.3926.0659-.5527.1982-.1611.1323-.2842.3262-.3691.5811-.085.2554-.127.5625-.127.9214v4.3511h-1.7441Z"/><path d="M310.616,42.6895c-.3789,0-.6807-.0732-.9072-.2197-.2275-.146-.3896-.3491-.4893-.6094-.0996-.2598-.1484-.5596-.1484-.8999v-4.4927h-.6807v-1.4175h.7373l.3115-2.1685h1.3887v2.1685h.9922v1.4175h-.9922v4.1665c0,.208.0312.3643.0928.4678.0605.104.1816.1562.3613.1562h.5381v1.2046c-.123.0474-.2549.0874-.3965.1206-.1416.0327-.2812.0586-.418.0776-.1377.019-.2676.0283-.3896.0283Z"/><rect x="130.3937" y="104.8819" width="371.3386" height="70.8661" fill="#efddf7" stroke="#582a6b" stroke-miterlimit="10" stroke-width="1.4173"/><rect x="65.1969" y="59.5276" width="436.5354" height="39.685" fill="#a8e6d4" stroke="#13614a" stroke-miterlimit="10" stroke-width="1.4173"/><rect x="65.1969" y="184.252" width="436.5354" height="31.1811" fill="#a8e6d4"/><polyline points="501.7323 211.1811 501.7323 215.4331 497.4803 215.4331" fill="none" stroke="#13614a" stroke-miterlimit="10" stroke-width="1.4173"/><line x1="496.063" y1="215.4331" x2="70.1575" y2="215.4331" fill="none" stroke="#13614a" stroke-dasharray="8.5039 1.4173" stroke-miterlimit="10" stroke-width="1.4173"/><polyline points="69.4488 215.4331 65.1968 215.4331 65.1968 211.1811" fill="none" stroke="#13614a" stroke-miterlimit="10" stroke-width="1.4173"/><line x1="65.1968" y1="209.6693" x2="65.1968" y2="189.2598" fill="none" stroke="#13614a" stroke-dasharray="9.0709 1.5118" stroke-miterlimit="10" stroke-width="1.4173"/><polyline points="65.1968 188.5039 65.1968 184.252 69.4488 184.252" fill="none" stroke="#13614a" stroke-miterlimit="10" stroke-width="1.4173"/><line x1="70.8661" y1="184.252" x2="496.7717" y2="184.252" fill="none" stroke="#13614a" stroke-dasharray="8.5039 1.4173" stroke-miterlimit="10" stroke-width="1.4173"/><polyline points="497.4803 184.252 501.7323 184.252 501.7323 188.5039" fill="none" stroke="#13614a" stroke-miterlimit="10" stroke-width="1.4173"/><line x1="501.7323" y1="190.0157" x2="501.7323" y2="210.4252" fill="none" stroke="#13614a" stroke-dasharray="9.0709 1.5118" stroke-miterlimit="10" stroke-width="1.4173"/><rect x="65.1969" y="303.3071" width="436.5354" height="31.1811" fill="#a8e6d4"/><polyline points="501.7323 330.2362 501.7323 334.4882 497.4803 334.4882" fill="none" stroke="#13614a" stroke-miterlimit="10" stroke-width="1.4173"/><line x1="496.063" y1="334.4882" x2="70.1575" y2="334.4882" fill="none" stroke="#13614a" stroke-dasharray="8.5039 1.4173" stroke-miterlimit="10" stroke-width="1.4173"/><polyline points="69.4488 334.4882 65.1968 334.4882 65.1968 330.2362" fill="none" stroke="#13614a" stroke-miterlimit="10" stroke-width="1.4173"/><line x1="65.1968" y1="328.7244" x2="65.1968" y2="308.315" fill="none" stroke="#13614a" stroke-dasharray="9.0709 1.5118" stroke-miterlimit="10" stroke-width="1.4173"/><polyline points="65.1968 307.5591 65.1968 303.3071 69.4488 303.3071" fill="none" stroke="#13614a" stroke-miterlimit="10" stroke-width="1.4173"/><line x1="70.8661" y1="303.3071" x2="496.7717" y2="303.3071" fill="none" stroke="#13614a" stroke-dasharray="8.5039 1.4173" stroke-miterlimit="10" stroke-width="1.4173"/><polyline points="497.4803 303.3071 501.7323 303.3071 501.7323 307.5591" fill="none" stroke="#13614a" stroke-miterlimit="10" stroke-width="1.4173"/><line x1="501.7323" y1="309.0709" x2="501.7323" y2="329.4803" fill="none" stroke="#13614a" stroke-dasharray="9.0709 1.5118" stroke-miterlimit="10" stroke-width="1.4173"/><rect x="65.1969" y="104.8819" width="436.5354" height="28.3465" fill="#dfbbef" stroke="#582a6b" stroke-miterlimit="10" stroke-width="1.4173"/><path d="M77.3436,124.894c-.4443,0-.8574-.0474-1.2402-.1416s-.7158-.2524-.999-.4746c-.2842-.2222-.5059-.522-.667-.9004-.1602-.3774-.2402-.8501-.2402-1.417v-.2695h1.4453v.2837c0,.3877.0615.7041.1846.9497.1221.2456.3096.4248.5596.5386.25.1133.5596.1699.9287.1699.207,0,.3984-.019.5732-.0566s.3311-.0967.4678-.1772c.1377-.0801.2559-.1792.3545-.2979.0996-.1177.1748-.2598.2266-.4248.0527-.1655.0781-.3521.0781-.5601,0-.293-.0664-.5386-.1982-.7368-.1328-.1987-.3096-.3638-.5312-.4961-.2227-.1323-.4707-.2529-.7441-.3613-.2744-.1089-.5576-.2173-.8506-.3262-.293-.1084-.5791-.2314-.8574-.3687-.2783-.1367-.5293-.3066-.751-.5103-.2227-.2031-.3975-.4512-.5244-.7441-.1279-.2925-.1914-.6519-.1914-1.0771,0-.4536.0752-.8501.2266-1.1904s.3613-.6187.6309-.8359.5879-.3779.957-.4819c.3682-.104.7646-.1562,1.1904-.1562.4248,0,.8174.0498,1.1758.1489.3594.0991.6689.2554.9287.4678s.4629.4888.6094.8291.2197.7559.2197,1.2471v.2271h-1.4316v-.2129c0-.3115-.0547-.5737-.1631-.7866-.1084-.2124-.2715-.3755-.4883-.4888-.2178-.1133-.4922-.1699-.8223-.1699-.3125,0-.584.0425-.8154.1274s-.4111.2222-.5381.4111c-.1279.189-.1914.4297-.1914.7227,0,.2837.0654.52.1982.7085.1318.1895.3096.3501.5312.4819.2217.1328.4697.2505.7441.3545s.5576.2104.8506.3188c.293.1089.5762.2319.8506.3687.2734.1372.5244.3096.751.5171.2266.208.4043.4609.5312.7583.1279.2979.1914.6592.1914,1.0845,0,.6992-.1318,1.2661-.3965,1.7007s-.6357.751-1.1123.9497c-.4775.1982-1.0283.2974-1.6514.2974Z"/><path d="M84.16,124.894c-.6328,0-1.1504-.1343-1.5518-.4038-.4014-.269-.6973-.6919-.8857-1.2686-.1895-.5762-.2832-1.3179-.2832-2.2251,0-.9355.0986-1.689.2969-2.2607.1992-.5713.5039-.9873.915-1.2471s.9375-.3896,1.5801-.3896c.5664,0,1.0391.1157,1.417.3472s.6611.6094.8506,1.1338c.1885.5244.2832,1.2261.2832,2.1045v.6099h-3.9824c.0098.5762.0566,1.0488.1416,1.417.085.3687.2266.6426.4258.8223.1982.1797.4668.269.8076.269.1982,0,.373-.0327.5244-.0991.1504-.0659.2812-.165.3896-.2974s.1934-.3027.2549-.5103c.0615-.208.0967-.4536.1064-.7373h1.3037c-.0098.4443-.0703.8389-.1836,1.1836-.1143.3452-.2812.6309-.5039.8574-.2217.2266-.4932.3994-.8145.5171-.3213.1182-.6855.1772-1.0918.1772ZM82.8143,120.4014h2.5928c0-.397-.0234-.7349-.0703-1.0137-.0479-.2783-.1182-.5078-.2129-.687-.0947-.1797-.2197-.3096-.375-.3901-.1562-.0801-.3428-.1201-.5605-.1201-.3301,0-.5928.0874-.7861.2622-.1943.1748-.3379.4248-.4326.751s-.1465.7251-.1553,1.1978Z"/><path d="M90.3963,124.894c-.6143,0-1.1152-.1392-1.502-.418-.3877-.2788-.6738-.7061-.8574-1.2827-.1846-.5762-.2764-1.3086-.2764-2.1968,0-.9258.0986-1.6748.2969-2.2466.1992-.5713.4941-.9897.8867-1.2544.3916-.2642.8857-.3965,1.4805-.3965.4346,0,.8057.0591,1.1133.1768.3066.1187.5566.3003.751.5459.1934.2456.335.5576.4248.9355s.1348.8174.1348,1.3179h-1.3184c0-.4438-.0332-.8027-.0986-1.0771-.0664-.2739-.1826-.4746-.3477-.6021-.165-.1279-.3896-.1914-.6729-.1914-.2646,0-.4941.0776-.6875.2339-.1943.1558-.3408.4155-.4395.7793-.0996.3638-.1484.8623-.1484,1.4951v.5957c0,.5103.042.9517.127,1.3252.085.373.2217.6587.4111.8574.1885.1982.4346.2974.7373.2974.2832,0,.5078-.0659.6729-.1982s.2861-.3354.3613-.6094c.0762-.2739.1133-.6284.1133-1.063h1.29c0,.4253-.0449.8198-.1348,1.1831-.0898.3643-.2295.6782-.418.9429-.1895.2646-.4414.4727-.7578.6235-.3174.1509-.6973.2266-1.1416.2266Z"/><path d="M95.5408,124.894c-.3496,0-.6211-.0732-.8145-.2197-.1943-.146-.3262-.3472-.3975-.6021-.0703-.2554-.1055-.5337-.1055-.8364v-4.8613h-.667v-1.1055h.6953l.2402-2.126h1.0488v2.126h1.0068v1.1055h-1.0068v4.7622c0,.2173.0332.3779.0996.4819s.1846.1558.3545.1558h.5527v.9072c-.1045.0376-.2148.0732-.333.1064-.1182.0327-.2344.0586-.3477.0776s-.2217.0283-.3262.0283Z"/><path d="M97.5818,115.9082v-1.4312h1.332v1.4312h-1.332ZM97.5818,124.7241v-7.4551h1.332v7.4551h-1.332Z"/><path d="M102.9393,124.894c-.6045,0-1.1123-.1323-1.5234-.3965-.4111-.2646-.7188-.6851-.9219-1.2617-.2031-.5762-.3047-1.3228-.3047-2.2393,0-.9258.1016-1.6748.3047-2.2466.2031-.5713.5107-.9897.9219-1.2544.4111-.2642.9189-.3965,1.5234-.3965s1.1123.1323,1.5234.3965c.4111.2646.7207.6831.9287,1.2544.207.5718.3115,1.3208.3115,2.2466,0,.9165-.1045,1.6631-.3115,2.2393-.208.5767-.5176.9971-.9287,1.2617-.4111.2642-.9189.3965-1.5234.3965ZM102.9393,123.7744c.3301,0,.5947-.0825.7939-.248.1982-.165.3467-.4321.4463-.8008.0986-.3682.1484-.8501.1484-1.4458v-.5669c0-.5952-.0498-1.0771-.1484-1.4453-.0996-.3687-.248-.6382-.4463-.8081-.1992-.1699-.4639-.2549-.7939-.2549-.3213,0-.5859.085-.7939.2549s-.3564.4395-.4463.8081c-.0898.3682-.1348.8501-.1348,1.4453v.5669c0,.5957.0449,1.0776.1348,1.4458.0898.3687.2383.6357.4463.8008.208.1655.4727.248.7939.248Z"/><path d="M106.95,124.7241v-7.4551h1.1055l.0996.978h.085c.1318-.2646.29-.4819.4746-.6519.1846-.1704.3916-.2954.623-.376.2314-.0801.4795-.1201.7441-.1201.3779,0,.6992.0684.9639.2051.2646.1372.4678.3594.6094.6665.1426.3071.2129.7158.2129,1.2261v5.5273h-1.332v-5.23c0-.1982-.0195-.3706-.0566-.5171-.0381-.1465-.0947-.2695-.1699-.3687-.0762-.0991-.1729-.1748-.291-.2266-.1182-.0522-.2617-.0781-.4326-.0781-.2451,0-.4668.0781-.666.2339-.1982.1558-.3545.3853-.4678.6875s-.1699.6753-.1699,1.1196v4.3794h-1.332Z"/><path d="M115.6668,124.7241v-9.7227h1.4736v4.124h3.373v-4.124h1.46v9.7227h-1.46v-4.3086h-3.373v4.3086h-1.4736Z"/><path d="M126.0975,124.894c-.6328,0-1.1504-.1343-1.5518-.4038-.4014-.269-.6973-.6919-.8857-1.2686-.1895-.5762-.2832-1.3179-.2832-2.2251,0-.9355.0986-1.689.2969-2.2607.1992-.5713.5039-.9873.915-1.2471s.9375-.3896,1.5801-.3896c.5664,0,1.0391.1157,1.417.3472s.6611.6094.8506,1.1338c.1885.5244.2832,1.2261.2832,2.1045v.6099h-3.9824c.0098.5762.0566,1.0488.1416,1.417.085.3687.2266.6426.4258.8223.1982.1797.4668.269.8076.269.1982,0,.373-.0327.5244-.0991.1504-.0659.2812-.165.3896-.2974s.1934-.3027.2549-.5103c.0615-.208.0967-.4536.1064-.7373h1.3037c-.0098.4443-.0703.8389-.1836,1.1836-.1143.3452-.2812.6309-.5039.8574-.2217.2266-.4932.3994-.8145.5171-.3213.1182-.6855.1772-1.0918.1772ZM124.7518,120.4014h2.5928c0-.397-.0234-.7349-.0703-1.0137-.0479-.2783-.1182-.5078-.2129-.687-.0947-.1797-.2197-.3096-.375-.3901-.1562-.0801-.3428-.1201-.5605-.1201-.3301,0-.5928.0874-.7861.2622-.1943.1748-.3379.4248-.4326.751s-.1465.7251-.1553,1.1978Z"/><path d="M131.5398,124.894c-.2549,0-.4961-.0376-.7227-.1133s-.4277-.1934-.6025-.3545c-.1748-.1602-.3115-.3706-.4102-.6304-.0996-.2598-.1494-.5742-.1494-.9429,0-.4058.0732-.7651.2197-1.0771.1465-.3115.3711-.5762.6738-.7935.3018-.2173.6914-.3828,1.1689-.4961.4766-.1133,1.0371-.1699,1.6797-.1699v-.9639c0-.2456-.0361-.4536-.1064-.6235-.0713-.1704-.1846-.3022-.3398-.397-.1562-.0942-.3623-.1416-.6172-.1416-.3115,0-.5479.0542-.708.1626-.1611.1089-.2695.2505-.3262.4253-.0566.1753-.085.3711-.085.5884v.1416h-1.2617c-.0098-.0469-.0146-.0923-.0146-.1348v-.1484c0-.501.1064-.9097.3193-1.2261s.5029-.5459.8721-.6875c.3682-.1416.7881-.2124,1.2607-.2124.4824,0,.8955.0732,1.2402.2197s.6123.3848.8008.7153c.1895.3311.2832.7749.2832,1.3325v3.9258c0,.1611.0361.2812.1064.3613.0713.0806.1631.1206.2764.1206h.4258v.8931c-.123.0566-.2676.1064-.4326.1489s-.3428.0635-.5312.0635c-.2266,0-.4141-.0449-.5596-.1343-.1475-.0898-.2607-.2148-.3408-.376-.0801-.1602-.1348-.335-.1631-.5244h-.0703c-.123.1987-.2725.3784-.4463.5386-.1758.1611-.3809.2861-.6172.376-.2363.0894-.5098.1343-.8223.1343ZM131.9656,123.7744c.1885,0,.3682-.04.5381-.1206.1709-.0801.3213-.1982.4541-.354.1318-.1558.2383-.3472.3184-.5742.0801-.2266.1211-.4863.1211-.7793v-.7231c-.5771,0-1.04.0591-1.3896.1772s-.5996.2861-.751.5034-.2266.4771-.2266.7793c0,.2363.0352.437.1064.6025.0703.1655.1768.2881.3184.3682.1416.0806.3125.1206.5107.1206Z"/><path d="M138.2586,124.894c-.4727,0-.874-.1323-1.2051-.3965-.3311-.2646-.5791-.6851-.7441-1.2617-.165-.5762-.248-1.3369-.248-2.2817,0-.9165.0801-1.6558.2412-2.2183.1602-.562.4043-.9756.7295-1.2402.3262-.2642.7207-.3965,1.1836-.3965.2646,0,.501.0376.709.1133s.3896.189.5459.3398c.1553.1514.2852.3403.3896.5674h.085v-3.6426h1.3184v10.2471h-1.0635l-.1133-.978h-.085c-.1416.3403-.3613.6167-.6592.8291-.2979.2129-.6592.3188-1.084.3188ZM138.6697,123.7178c.3018,0,.5449-.0942.7295-.2832s.3213-.4678.4111-.8364.1348-.8174.1348-1.3467v-.4673c0-.4346-.0312-.8081-.0918-1.1201-.0615-.3115-.1445-.5669-.248-.7651-.1045-.1982-.2393-.3472-.4043-.4463-.165-.0996-.3477-.1489-.5459-.1489-.2832,0-.5146.085-.6943.2549-.1797.1704-.3115.4351-.3965.7939s-.1279.8315-.1279,1.4175v.4956c0,.5674.04,1.0327.1201,1.3965s.2129.6304.3975.8008c.1836.1699.4229.2549.7158.2549Z"/><path d="M145.2459,124.894c-.6338,0-1.1504-.1343-1.5518-.4038-.4023-.269-.6973-.6919-.8867-1.2686-.1885-.5762-.2832-1.3179-.2832-2.2251,0-.9355.0996-1.689.2979-2.2607.1982-.5713.5029-.9873.9141-1.2471s.9375-.3896,1.5801-.3896c.5674,0,1.04.1157,1.418.3472s.6611.6094.8496,1.1338c.1895.5244.2842,1.2261.2842,2.1045v.6099h-3.9824c.0088.5762.0566,1.0488.1416,1.417.085.3687.2266.6426.4248.8223s.4678.269.8076.269c.1982,0,.373-.0327.5244-.0991.1514-.0659.2812-.165.3896-.2974.1094-.1323.1943-.3027.2559-.5103.0605-.208.0967-.4536.1064-.7373h1.3037c-.0098.4443-.0713.8389-.1846,1.1836-.1133.3452-.2812.6309-.5029.8574-.2227.2266-.4941.3994-.8154.5171-.3213.1182-.6846.1772-1.0908.1772ZM143.8992,120.4014h2.5938c0-.397-.0234-.7349-.0713-1.0137-.0469-.2783-.1182-.5078-.2119-.687-.0947-.1797-.2197-.3096-.376-.3901-.1562-.0801-.3428-.1201-.5596-.1201-.3311,0-.5928.0874-.7871.2622-.1934.1748-.3379.4248-.4316.751-.0947.3262-.1465.7251-.1562,1.1978Z"/><path d="M149.1287,124.7241v-7.4551h1.0918l.0986,1.063h.085c.085-.2554.1895-.4746.3115-.6592.123-.1841.2715-.3257.4473-.4253.1748-.0991.3701-.1484.5879-.1484.0947,0,.1797.0049.2549.0142.0762.0093.1465.0283.2129.0566v1.3604h-.4678c-.1982,0-.3779.0405-.5391.1206-.1602.0806-.2969.2031-.4102.3687-.1143.1655-.1992.3755-.2559.6304-.0566.2554-.085.5527-.085.8931v4.1812h-1.332Z"/><path d="M267.6902,158.7402v-9.7227h1.4033l3.0898,5.7969c.0371.0566.0801.1367.127.2402.0469.1045.0918.2109.1348.3193s.0781.2051.1064.29h.0713c0-.1602-.0029-.3184-.0078-.4746-.0039-.1562-.0068-.29-.0068-.4033v-5.7686h1.417v9.7227h-1.375l-3.1172-5.8682c-.0479-.1035-.1094-.2432-.1846-.418s-.1416-.3428-.1982-.5029h-.0566v6.7891h-1.4033Z"/><path d="M277.2566,158.9102c-.2549,0-.4961-.0381-.7227-.1133-.2266-.0762-.4277-.1934-.6025-.3545-.1748-.1602-.3115-.3711-.4102-.6309-.0996-.2598-.1494-.5742-.1494-.9424,0-.4062.0732-.7656.2197-1.0771s.3711-.5762.6738-.7939c.3018-.2168.6914-.3828,1.168-.4961.4775-.1133,1.0371-.1699,1.6797-.1699v-.9639c0-.2451-.0352-.4531-.1055-.623-.0713-.1709-.1846-.3027-.3398-.3975-.1562-.0938-.3623-.1416-.6172-.1416-.3125,0-.5488.0547-.709.1631s-.2695.25-.3262.4248c-.0566.1758-.084.3711-.084.5889v.1416h-1.2617c-.0098-.0469-.0146-.0928-.0146-.1348v-.1484c0-.501.1064-.9102.3193-1.2266s.5029-.5459.8711-.6875c.3691-.1416.7891-.2119,1.2617-.2119.4824,0,.8945.0732,1.2402.2197.3447.1465.6113.3848.8008.7148.1895.3311.2832.7754.2832,1.333v3.9258c0,.1611.0352.2812.1064.3613s.1631.1201.2764.1201h.4258v.8936c-.123.0566-.2676.1064-.4326.1484-.165.043-.3428.0635-.5322.0635-.2266,0-.4131-.0449-.5586-.1338-.1475-.0898-.2607-.2148-.3408-.376-.0811-.1602-.1348-.335-.1631-.5244h-.0703c-.123.1982-.2725.3779-.4473.5381-.1748.1611-.3809.2861-.6162.376-.2363.0898-.5107.1348-.8223.1348ZM277.6814,157.79c.1895,0,.3691-.04.5391-.1201s.3213-.1982.4531-.3545c.1328-.1553.2393-.3467.3193-.5742.0801-.2266.1201-.4863.1201-.7793v-.7227c-.5762,0-1.0391.0586-1.3887.1768s-.5996.2861-.751.5039c-.1514.2168-.2275.4766-.2275.7793,0,.2363.0361.4365.1074.6025.0703.165.1768.2881.3184.3682s.3125.1201.5098.1201Z"/><path d="M282.0467,158.7402v-7.4551h1.1064l.0986.9775h.0859c.1318-.2646.2852-.4814.46-.6514.1748-.1709.373-.2959.5947-.376.2227-.0801.4609-.1201.7168-.1201.3965,0,.7266.0869.9922.2617.2637.1748.4531.4697.5664.8857h.0703c.1426-.2646.2988-.4814.4688-.6514.1699-.1709.3652-.2959.5879-.376.2217-.0801.4648-.1201.7305-.1201.3584,0,.666.0684.9199.2051.2559.1367.4512.3564.5889.6592.1367.3027.2061.7041.2061,1.2051v5.5557h-1.3184v-5.2441c0-.1895-.0176-.3564-.0498-.5029-.0332-.1465-.085-.2695-.1553-.3691-.0723-.0986-.1641-.1748-.2773-.2266s-.2461-.0781-.3965-.0781c-.2363,0-.4473.0781-.6309.2344-.1836.1553-.3311.3848-.4395.6875-.1084.3018-.1631.6748-.1631,1.1191v4.3799h-1.3174v-5.2441c0-.1895-.0176-.3564-.0508-.5029s-.082-.2695-.1484-.3691c-.0664-.0986-.1562-.1748-.2695-.2266s-.25-.0781-.4102-.0781c-.2363,0-.4492.0781-.6387.2344-.1885.1553-.335.3848-.4395.6875-.1035.3018-.1553.6748-.1553,1.1191v4.3799h-1.333Z"/><path d="M294.1658,158.9102c-.6338,0-1.1504-.1348-1.5527-.4043-.4014-.2686-.6973-.6914-.8857-1.2686-.1885-.5762-.2832-1.3174-.2832-2.2246,0-.9355.0986-1.6895.2979-2.2607.1982-.5713.5029-.9873.9141-1.2471s.9375-.3896,1.5801-.3896c.5664,0,1.0391.1152,1.418.3467.377.2314.6602.6094.8496,1.1338s.2832,1.2266.2832,2.1045v.6104h-3.9824c.0098.5762.0566,1.0488.1426,1.417.084.3682.2266.6426.4248.8223s.4678.2686.8076.2686c.1982,0,.373-.0322.5244-.0986s.2812-.165.3896-.2979c.1094-.1318.1934-.3027.2559-.5098.0605-.208.0957-.4541.1055-.7373h1.3047c-.0098.4443-.0713.8389-.1846,1.1836-.1143.3447-.2812.6309-.5029.8574-.2227.2266-.4941.3994-.8154.5166-.3213.1182-.6846.1777-1.0908.1777ZM292.8191,154.417h2.5928c0-.3965-.0234-.7344-.0703-1.0137-.0469-.2783-.1182-.5078-.2129-.6865-.0938-.1797-.2188-.3096-.375-.3906-.1562-.0801-.3428-.1201-.5605-.1201-.3301,0-.5918.0879-.7861.2627s-.3379.4248-.4326.751c-.0938.3262-.1465.7246-.1553,1.1973Z"/><path d="M299.4666,159.4346l2.791-11.1123h1.0635l-2.792,11.1123h-1.0625Z"/><path d="M308.2537,158.7402l-2.5801-9.7227h1.5586l1.5449,6.1367c.0381.1602.0781.3516.1211.5742.043.2217.0879.4414.1348.6592.0469.2168.085.4102.1133.5811h.085c.0186-.1045.0479-.2432.085-.4189.0371-.1738.0801-.3818.127-.623.0479-.2412.0996-.498.1562-.7725l1.5312-6.1367h1.502l-2.5645,9.7227h-1.8145Z"/><path d="M314.6453,158.9102c-.2549,0-.4961-.0381-.7227-.1133-.2266-.0762-.4277-.1934-.6025-.3545-.1748-.1602-.3115-.3711-.4102-.6309-.0996-.2598-.1494-.5742-.1494-.9424,0-.4062.0732-.7656.2197-1.0771s.3711-.5762.6738-.7939c.3018-.2168.6914-.3828,1.168-.4961.4775-.1133,1.0371-.1699,1.6797-.1699v-.9639c0-.2451-.0352-.4531-.1055-.623-.0713-.1709-.1846-.3027-.3398-.3975-.1562-.0938-.3623-.1416-.6172-.1416-.3125,0-.5488.0547-.709.1631s-.2695.25-.3262.4248c-.0566.1758-.084.3711-.084.5889v.1416h-1.2617c-.0098-.0469-.0146-.0928-.0146-.1348v-.1484c0-.501.1064-.9102.3193-1.2266s.5029-.5459.8711-.6875c.3691-.1416.7891-.2119,1.2617-.2119.4824,0,.8945.0732,1.2402.2197.3447.1465.6113.3848.8008.7148.1895.3311.2832.7754.2832,1.333v3.9258c0,.1611.0352.2812.1064.3613s.1631.1201.2764.1201h.4258v.8936c-.123.0566-.2676.1064-.4326.1484-.165.043-.3428.0635-.5322.0635-.2266,0-.4131-.0449-.5586-.1338-.1475-.0898-.2607-.2148-.3408-.376-.0811-.1602-.1348-.335-.1631-.5244h-.0703c-.123.1982-.2725.3779-.4473.5381-.1748.1611-.3809.2861-.6162.376-.2363.0898-.5107.1348-.8223.1348ZM315.0701,157.79c.1895,0,.3691-.04.5391-.1201s.3213-.1982.4531-.3545c.1328-.1553.2393-.3467.3193-.5742.0801-.2266.1201-.4863.1201-.7793v-.7227c-.5762,0-1.0391.0586-1.3887.1768s-.5996.2861-.751.5039c-.1514.2168-.2275.4766-.2275.7793,0,.2363.0361.4365.1074.6025.0703.165.1768.2881.3184.3682s.3125.1201.5098.1201Z"/><path d="M319.4353,158.7402v-10.2471h1.332v10.2471h-1.332Z"/><path d="M324.0281,158.9102c-.5674,0-1.0068-.1611-1.3184-.4824-.3115-.3203-.4678-.8594-.4678-1.6152v-5.5273h1.3184v5.2158c0,.1982.0186.3701.0566.5166.0371.1465.0938.2725.1699.376.0762.1045.1748.1797.2979.2266.1221.0479.2646.0713.4248.0713.2559,0,.4824-.0762.6807-.2266.1982-.1514.3545-.3809.4678-.6875.1133-.3076.1699-.6826.1699-1.127v-4.3652h1.3184v7.4551h-1.0918l-.1133-.9922h-.0703c-.1328.2646-.291.4844-.4746.6592-.1855.1748-.3926.3018-.624.3828-.2314.0801-.4795.1201-.7441.1201Z"/><path d="M331.1287,158.9102c-.6328,0-1.1504-.1348-1.5518-.4043-.4014-.2686-.6973-.6914-.8857-1.2686-.1895-.5762-.2832-1.3174-.2832-2.2246,0-.9355.0986-1.6895.2969-2.2607.1992-.5713.5039-.9873.9141-1.2471.4121-.2598.9375-.3896,1.5801-.3896.5674,0,1.04.1152,1.418.3467s.6611.6094.8496,1.1338c.1895.5244.2842,1.2266.2842,2.1045v.6104h-3.9824c.0088.5762.0566,1.0488.1416,1.417s.2266.6426.4258.8223c.1973.1797.4668.2686.8066.2686.1992,0,.373-.0322.5254-.0986.1504-.0664.2812-.165.3887-.2979.1094-.1318.1943-.3027.2559-.5098.0605-.208.0967-.4541.1064-.7373h1.3037c-.0098.4443-.0703.8389-.1836,1.1836-.1143.3447-.2812.6309-.5039.8574s-.4941.3994-.8145.5166c-.3223.1182-.6855.1777-1.0918.1777ZM329.783,154.417h2.5928c0-.3965-.0234-.7344-.0713-1.0137-.0469-.2783-.1172-.5078-.2119-.6865-.0947-.1797-.2197-.3096-.376-.3906-.1562-.0801-.3418-.1201-.5596-.1201-.3311,0-.5928.0879-.7861.2627-.1943.1748-.3379.4248-.4326.751s-.1465.7246-.1553,1.1973Z"/><path d="M337.3357,158.7402v-9.7227h3.4727c.6807,0,1.2207.125,1.623.375.4014.251.6943.6006.8789,1.0488.1836.4492.2764.9668.2764,1.5518,0,.6143-.1045,1.1553-.3115,1.623-.209.4678-.5137.834-.9141,1.0986-.4023.2646-.9053.3965-1.5098.3965h-2.041v3.6289h-1.4746ZM338.8103,153.8359h1.8281c.4824,0,.8457-.1602,1.0918-.4814.2451-.3213.3682-.7607.3682-1.3184,0-.3965-.0518-.7256-.1562-.9854s-.2646-.4531-.4814-.5811c-.2178-.127-.5098-.1914-.8789-.1914h-1.7715v3.5576Z"/><path d="M346.0389,158.9102c-.2559,0-.4961-.0381-.7227-.1133-.2266-.0762-.4277-.1934-.6035-.3545-.1738-.1602-.3105-.3711-.4102-.6309s-.1484-.5742-.1484-.9424c0-.4062.0723-.7656.2188-1.0771s.3711-.5762.6738-.7939c.3027-.2168.6914-.3828,1.1689-.4961s1.0371-.1699,1.6797-.1699v-.9639c0-.2451-.0361-.4531-.1064-.623-.0703-.1709-.1836-.3027-.3398-.3975-.1562-.0938-.3613-.1416-.6172-.1416-.3115,0-.5479.0547-.708.1631-.1611.1084-.2695.25-.3262.4248-.0566.1758-.085.3711-.085.5889v.1416h-1.2617c-.0098-.0469-.0137-.0928-.0137-.1348v-.1484c0-.501.1055-.9102.3184-1.2266s.5039-.5459.8721-.6875.7881-.2119,1.2607-.2119c.4824,0,.8955.0732,1.2402.2197.3457.1465.6123.3848.8008.7148.1895.3311.2832.7754.2832,1.333v3.9258c0,.1611.0361.2812.1074.3613.0703.0801.1621.1201.2754.1201h.4258v.8936c-.123.0566-.2676.1064-.4316.1484-.166.043-.3438.0635-.5322.0635-.2266,0-.4131-.0449-.5596-.1338-.1465-.0898-.2598-.2148-.3398-.376-.0811-.1602-.1348-.335-.1641-.5244h-.0703c-.123.1982-.2715.3779-.4463.5381-.1748.1611-.3809.2861-.6162.376-.2363.0898-.5107.1348-.8223.1348ZM346.4637,157.79c.1885,0,.3682-.04.5381-.1201.1709-.0801.3223-.1982.4541-.3545.1318-.1553.2393-.3467.3193-.5742.0801-.2266.1201-.4863.1201-.7793v-.7227c-.5771,0-1.04.0586-1.3896.1768s-.5996.2861-.75.5039c-.1523.2168-.2275.4766-.2275.7793,0,.2363.0361.4365.1064.6025.0703.165.1777.2881.3184.3682.1426.0801.3125.1201.5107.1201Z"/><path d="M350.8289,149.9238v-1.4307h1.333v1.4307h-1.333ZM350.8289,158.7402v-7.4551h1.333v7.4551h-1.333Z"/><path d="M353.7059,158.7402v-7.4551h1.0918l.0986,1.0625h.0859c.084-.2549.1885-.4746.3105-.6592.123-.1836.2715-.3252.4473-.4248.1748-.0996.3711-.1484.5879-.1484.0947,0,.1797.0049.2559.0137.0752.0098.1465.0283.2119.0566v1.3604h-.4678c-.1982,0-.3779.041-.5391.1211-.1602.0801-.2969.2031-.4102.3682-.1133.166-.1992.376-.2559.6309s-.084.5527-.084.8926v4.1816h-1.333Z"/><path d="M359.6014,158.9102c-.4434,0-.8193-.0547-1.126-.1631-.3076-.1084-.5557-.2598-.7441-.4531-.1895-.1943-.3291-.4258-.4189-.6953-.0898-.2686-.1338-.5645-.1338-.8857,0-.0469.002-.0986.0068-.1553s.0117-.1084.0215-.1562h1.2471c-.0088.0566-.0146.1064-.0146.1484v.1211c0,.2549.0479.4727.1426.6514.0938.1797.2285.3145.4043.4043.1738.0898.3848.1348.6299.1348.2363,0,.4395-.043.6094-.1279.1709-.085.3027-.21.3975-.375.0938-.165.1406-.3711.1406-.6172,0-.2637-.0703-.4746-.2119-.6299-.1416-.1562-.3262-.2842-.5527-.3828-.2266-.0996-.4678-.2012-.7227-.3047-.2275-.085-.4561-.1826-.6875-.291s-.4424-.2451-.6309-.4111c-.1885-.165-.3408-.3701-.4541-.6162s-.1699-.5576-.1699-.9355c0-.3398.0566-.6377.1699-.8926.1133-.2559.2773-.4707.4902-.6455.2119-.1748.4629-.3047.75-.3896.2891-.085.6035-.127.9434-.127.3594,0,.6777.042.957.127.2773.085.5137.2109.708.376.1934.165.3408.3662.4395.6025s.1494.4961.1494.7793c0,.0752-.0029.1514-.0078.2266-.0049.0762-.0117.1416-.0215.1982h-1.2324v-.2979c0-.2168-.041-.3965-.1211-.5381s-.1953-.248-.3477-.3193c-.1504-.0703-.335-.1055-.5527-.1055-.1787,0-.335.0205-.4668.0635-.1328.042-.2412.1084-.3262.1982s-.1465.1914-.1836.3047c-.0391.1133-.0576.2363-.0576.3682,0,.2275.0615.4111.1846.5527.123.1426.2852.2578.4883.3477s.4238.1816.6602.2764c.2354.085.4785.1816.7295.291.25.1084.4834.2432.7021.4033.2168.1611.3887.3691.5166.624s.1914.5859.1914.9922-.0615.7559-.1846,1.0488-.2949.5332-.5176.7227c-.2217.1895-.4844.3281-.7861.418s-.6377.1348-1.0068.1348Z"/><rect x="130.3937" y="223.937" width="371.3386" height="70.8661" fill="#efddf7" stroke="#582a6b" stroke-miterlimit="10" stroke-width="1.4173"/><rect x="65.1969" y="223.937" width="436.5354" height="28.3465" fill="#dfbbef" stroke="#582a6b" stroke-miterlimit="10" stroke-width="1.4173"/><path d="M77.3436,243.9492c-.4443,0-.8574-.0469-1.2402-.1416-.3828-.0938-.7158-.252-.999-.4746-.2842-.2217-.5059-.5215-.667-.9004-.1602-.377-.2402-.8496-.2402-1.417v-.2695h1.4453v.2842c0,.3877.0615.7041.1846.9492.1221.2461.3096.4248.5596.5391.25.1133.5596.1699.9287.1699.207,0,.3984-.0195.5732-.0566.1748-.0381.3311-.0967.4678-.1777.1377-.0801.2559-.1787.3545-.2979.0996-.1172.1748-.2598.2266-.4248.0527-.165.0781-.3516.0781-.5596,0-.293-.0664-.5391-.1982-.7373-.1328-.1982-.3096-.3633-.5312-.4961-.2227-.1318-.4707-.2529-.7441-.3613-.2744-.1084-.5576-.2168-.8506-.3262-.293-.1084-.5791-.2314-.8574-.3682s-.5293-.3066-.751-.5107c-.2227-.2031-.3975-.4512-.5244-.7441-.1279-.292-.1914-.6514-.1914-1.0771,0-.4531.0752-.8496.2266-1.1904.1514-.3398.3613-.6182.6309-.8359.2695-.2168.5879-.3779.957-.4814.3682-.1045.7646-.1562,1.1904-.1562.4248,0,.8174.0498,1.1758.1484.3594.0996.6689.2559.9287.4678.2598.2129.4629.4893.6094.8291.1465.3408.2197.7559.2197,1.2471v.2275h-1.4316v-.2129c0-.3115-.0547-.5742-.1631-.7871-.1084-.2119-.2715-.375-.4883-.4883-.2178-.1133-.4922-.1699-.8223-.1699-.3125,0-.584.042-.8154.127s-.4111.2227-.5381.4111c-.1279.1895-.1914.4297-.1914.7227,0,.2842.0654.5205.1982.709.1318.1895.3096.3496.5312.4814.2217.1328.4697.251.7441.3545.2744.1045.5576.2109.8506.3193s.5762.2314.8506.3682c.2734.1377.5244.3096.751.5176s.4043.4609.5312.7578c.1279.2979.1914.6592.1914,1.085,0,.6992-.1318,1.2656-.3965,1.7002s-.6357.751-1.1123.9502c-.4775.1982-1.0283.2969-1.6514.2969Z"/><path d="M84.16,243.9492c-.6328,0-1.1504-.1338-1.5518-.4033s-.6973-.6924-.8857-1.2686c-.1895-.5762-.2832-1.3184-.2832-2.2256,0-.9355.0986-1.6885.2969-2.2607.1992-.5713.5039-.9873.915-1.2471s.9375-.3896,1.5801-.3896c.5664,0,1.0391.1162,1.417.3477s.6611.6094.8506,1.1338c.1885.5244.2832,1.2256.2832,2.1045v.6094h-3.9824c.0098.5762.0566,1.0488.1416,1.417.085.3691.2266.6426.4258.8223.1982.1797.4668.2695.8076.2695.1982,0,.373-.0332.5244-.0996.1504-.0654.2812-.165.3896-.2969.1084-.1328.1934-.3027.2549-.5107s.0967-.4531.1064-.7373h1.3037c-.0098.4443-.0703.8389-.1836,1.1836-.1143.3457-.2812.6309-.5039.8574-.2217.2266-.4932.3994-.8145.5176s-.6855.1768-1.0918.1768ZM82.8143,239.457h2.5928c0-.3975-.0234-.7354-.0703-1.0137-.0479-.2783-.1182-.5078-.2129-.6875s-.2197-.3096-.375-.3896c-.1562-.0801-.3428-.1201-.5605-.1201-.3301,0-.5928.0869-.7861.2617-.1943.1748-.3379.4248-.4326.751s-.1465.7256-.1553,1.1982Z"/><path d="M90.3963,243.9492c-.6143,0-1.1152-.1387-1.502-.418-.3877-.2783-.6738-.7061-.8574-1.2822-.1846-.5762-.2764-1.3086-.2764-2.1973,0-.9258.0986-1.6748.2969-2.2461.1992-.5713.4941-.9902.8867-1.2549.3916-.2637.8857-.3965,1.4805-.3965.4346,0,.8057.0596,1.1133.1768.3066.1191.5566.3008.751.5459.1934.2461.335.5576.4248.9355s.1348.8174.1348,1.3184h-1.3184c0-.4443-.0332-.8027-.0986-1.0771-.0664-.2744-.1826-.4746-.3477-.6025s-.3896-.1914-.6729-.1914c-.2646,0-.4941.0781-.6875.2344-.1943.1553-.3408.415-.4395.7793-.0996.3633-.1484.8623-.1484,1.4951v.5957c0,.5098.042.9512.127,1.3252.085.373.2217.6582.4111.8574.1885.1982.4346.2969.7373.2969.2832,0,.5078-.0654.6729-.1982.165-.1318.2861-.335.3613-.6094.0762-.2734.1133-.6279.1133-1.0625h1.29c0,.4248-.0449.8193-.1348,1.1826-.0898.3643-.2295.6787-.418.9434-.1895.2646-.4414.4727-.7578.623-.3174.1514-.6973.2266-1.1416.2266Z"/><path d="M95.5408,243.9492c-.3496,0-.6211-.0732-.8145-.2197-.1943-.1455-.3262-.3467-.3975-.6016-.0703-.2559-.1055-.5342-.1055-.8369v-4.8613h-.667v-1.1055h.6953l.2402-2.126h1.0488v2.126h1.0068v1.1055h-1.0068v4.7627c0,.2168.0332.3779.0996.4814.0664.1045.1846.1562.3545.1562h.5527v.9072c-.1045.0371-.2148.0732-.333.1064-.1182.0322-.2344.0586-.3477.0771-.1133.0195-.2217.0283-.3262.0283Z"/><path d="M97.5818,234.9639v-1.4316h1.332v1.4316h-1.332ZM97.5818,243.7793v-7.4551h1.332v7.4551h-1.332Z"/><path d="M102.9393,243.9492c-.6045,0-1.1123-.1318-1.5234-.3965s-.7188-.6846-.9219-1.2617c-.2031-.5762-.3047-1.3223-.3047-2.2393,0-.9258.1016-1.6748.3047-2.2461s.5107-.9902.9219-1.2549c.4111-.2637.9189-.3965,1.5234-.3965s1.1123.1328,1.5234.3965c.4111.2646.7207.6836.9287,1.2549.207.5713.3115,1.3203.3115,2.2461,0,.917-.1045,1.6631-.3115,2.2393-.208.5771-.5176.9971-.9287,1.2617s-.9189.3965-1.5234.3965ZM102.9393,242.8301c.3301,0,.5947-.083.7939-.248.1982-.165.3467-.4326.4463-.8008.0986-.3682.1484-.8506.1484-1.4463v-.5664c0-.5957-.0498-1.0771-.1484-1.4453-.0996-.3691-.248-.6387-.4463-.8086-.1992-.1699-.4639-.2549-.7939-.2549-.3213,0-.5859.085-.7939.2549s-.3564.4395-.4463.8086c-.0898.3682-.1348.8496-.1348,1.4453v.5664c0,.5957.0449,1.0781.1348,1.4463s.2383.6357.4463.8008.4727.248.7939.248Z"/><path d="M106.95,243.7793v-7.4551h1.1055l.0996.9785h.085c.1318-.2646.29-.4824.4746-.6523s.3916-.2949.623-.376c.2314-.0801.4795-.1201.7441-.1201.3779,0,.6992.0684.9639.2051.2646.1377.4678.3594.6094.667.1426.3066.2129.7158.2129,1.2256v5.5273h-1.332v-5.2295c0-.1982-.0195-.3711-.0566-.5176-.0381-.1465-.0947-.2695-.1699-.3682-.0762-.0996-.1729-.1748-.291-.2266-.1182-.0527-.2617-.0781-.4326-.0781-.2451,0-.4668.0781-.666.2334-.1982.1562-.3545.3857-.4678.6875-.1133.3027-.1699.6758-.1699,1.1201v4.3789h-1.332Z"/><path d="M115.6668,243.7793v-9.7227h1.4736v4.124h3.373v-4.124h1.46v9.7227h-1.46v-4.3086h-3.373v4.3086h-1.4736Z"/><path d="M126.0975,243.9492c-.6328,0-1.1504-.1338-1.5518-.4033s-.6973-.6924-.8857-1.2686c-.1895-.5762-.2832-1.3184-.2832-2.2256,0-.9355.0986-1.6885.2969-2.2607.1992-.5713.5039-.9873.915-1.2471s.9375-.3896,1.5801-.3896c.5664,0,1.0391.1162,1.417.3477s.6611.6094.8506,1.1338c.1885.5244.2832,1.2256.2832,2.1045v.6094h-3.9824c.0098.5762.0566,1.0488.1416,1.417.085.3691.2266.6426.4258.8223.1982.1797.4668.2695.8076.2695.1982,0,.373-.0332.5244-.0996.1504-.0654.2812-.165.3896-.2969.1084-.1328.1934-.3027.2549-.5107s.0967-.4531.1064-.7373h1.3037c-.0098.4443-.0703.8389-.1836,1.1836-.1143.3457-.2812.6309-.5039.8574-.2217.2266-.4932.3994-.8145.5176s-.6855.1768-1.0918.1768ZM124.7518,239.457h2.5928c0-.3975-.0234-.7354-.0703-1.0137-.0479-.2783-.1182-.5078-.2129-.6875s-.2197-.3096-.375-.3896c-.1562-.0801-.3428-.1201-.5605-.1201-.3301,0-.5928.0869-.7861.2617-.1943.1748-.3379.4248-.4326.751s-.1465.7256-.1553,1.1982Z"/><path d="M131.5398,243.9492c-.2549,0-.4961-.0371-.7227-.1133-.2266-.0752-.4277-.1934-.6025-.3545-.1748-.1602-.3115-.3701-.4102-.6299-.0996-.2598-.1494-.5742-.1494-.9434,0-.4053.0732-.7646.2197-1.0771.1465-.3115.3711-.5762.6738-.793.3018-.2178.6914-.3828,1.1689-.4961.4766-.1133,1.0371-.1699,1.6797-.1699v-.9639c0-.2461-.0361-.4541-.1064-.624-.0713-.1699-.1846-.3018-.3398-.3965-.1562-.0947-.3623-.1416-.6172-.1416-.3115,0-.5479.0537-.708.1621-.1611.1094-.2695.251-.3262.4258s-.085.3711-.085.5879v.1416h-1.2617c-.0098-.0469-.0146-.0918-.0146-.1348v-.1484c0-.501.1064-.9092.3193-1.2256s.5029-.5459.8721-.6875c.3682-.1416.7881-.2129,1.2607-.2129.4824,0,.8955.0732,1.2402.2197s.6123.3848.8008.7158c.1895.3311.2832.7744.2832,1.332v3.9258c0,.1611.0361.2812.1064.3613.0713.0811.1631.1211.2764.1211h.4258v.8926c-.123.0566-.2676.1064-.4326.1494-.165.042-.3428.0635-.5312.0635-.2266,0-.4141-.0449-.5596-.1348-.1475-.0898-.2607-.2148-.3408-.376-.0801-.1602-.1348-.335-.1631-.5244h-.0703c-.123.1992-.2725.3789-.4463.5391-.1758.1611-.3809.2861-.6172.376-.2363.0889-.5098.1338-.8223.1338ZM131.9656,242.8301c.1885,0,.3682-.04.5381-.1211.1709-.0801.3213-.1982.4541-.3535.1318-.1562.2383-.3477.3184-.5742s.1211-.4863.1211-.7793v-.7236c-.5771,0-1.04.0596-1.3896.1777s-.5996.2861-.751.5029c-.1514.2178-.2266.4775-.2266.7793,0,.2363.0352.4375.1064.6025.0703.166.1768.2881.3184.3682.1416.0811.3125.1211.5107.1211Z"/><path d="M138.2586,243.9492c-.4727,0-.874-.1318-1.2051-.3965s-.5791-.6846-.7441-1.2617c-.165-.5762-.248-1.3369-.248-2.2812,0-.917.0801-1.6562.2412-2.2188.1602-.5615.4043-.9756.7295-1.2402.3262-.2637.7207-.3965,1.1836-.3965.2646,0,.501.0381.709.1133.208.0762.3896.1895.5459.3398.1553.1514.2852.3408.3896.5674h.085v-3.6426h1.3184v10.2471h-1.0635l-.1133-.9775h-.085c-.1416.3398-.3613.6162-.6592.8291s-.6592.3184-1.084.3184ZM138.6697,242.7734c.3018,0,.5449-.0947.7295-.2832.1846-.1895.3213-.4678.4111-.8369.0898-.3682.1348-.8174.1348-1.3467v-.4668c0-.4346-.0312-.8086-.0918-1.1201-.0615-.3115-.1445-.5674-.248-.7656-.1045-.1982-.2393-.3467-.4043-.4463s-.3477-.1484-.5459-.1484c-.2832,0-.5146.085-.6943.2549s-.3115.4346-.3965.7939c-.085.3584-.1279.8311-.1279,1.417v.4961c0,.5674.04,1.0322.1201,1.3965.0801.3633.2129.6299.3975.8008.1836.1699.4229.2549.7158.2549Z"/><path d="M145.2459,243.9492c-.6338,0-1.1504-.1338-1.5518-.4033-.4023-.2695-.6973-.6924-.8867-1.2686-.1885-.5762-.2832-1.3184-.2832-2.2256,0-.9355.0996-1.6885.2979-2.2607.1982-.5713.5029-.9873.9141-1.2471s.9375-.3896,1.5801-.3896c.5674,0,1.04.1162,1.418.3477s.6611.6094.8496,1.1338c.1895.5244.2842,1.2256.2842,2.1045v.6094h-3.9824c.0088.5762.0566,1.0488.1416,1.417.085.3691.2266.6426.4248.8223s.4678.2695.8076.2695c.1982,0,.373-.0332.5244-.0996.1514-.0654.2812-.165.3896-.2969.1094-.1328.1943-.3027.2559-.5107.0605-.208.0967-.4531.1064-.7373h1.3037c-.0098.4443-.0713.8389-.1846,1.1836-.1133.3457-.2812.6309-.5029.8574-.2227.2266-.4941.3994-.8154.5176s-.6846.1768-1.0908.1768ZM143.8992,239.457h2.5938c0-.3975-.0234-.7354-.0713-1.0137-.0469-.2783-.1182-.5078-.2119-.6875-.0947-.1797-.2197-.3096-.376-.3896s-.3428-.1201-.5596-.1201c-.3311,0-.5928.0869-.7871.2617-.1934.1748-.3379.4248-.4316.751-.0947.3262-.1465.7256-.1562,1.1982Z"/><path d="M149.1287,243.7793v-7.4551h1.0918l.0986,1.0635h.085c.085-.2559.1895-.4746.3115-.6592.123-.1846.2715-.3262.4473-.4258.1748-.0986.3701-.1484.5879-.1484.0947,0,.1797.0049.2549.0146.0762.0088.1465.0283.2129.0566v1.3604h-.4678c-.1982,0-.3779.04-.5391.1201-.1602.0811-.2969.2031-.4102.3691-.1143.165-.1992.375-.2559.6299-.0566.2559-.085.5527-.085.8936v4.1807h-1.332Z"/><path d="M267.6902,277.7959v-9.7227h1.4033l3.0898,5.7969c.0371.0566.0801.1367.127.2402.0469.1045.0918.2109.1348.3193s.0781.2051.1064.29h.0713c0-.1602-.0029-.3184-.0078-.4746-.0039-.1562-.0068-.29-.0068-.4033v-5.7686h1.417v9.7227h-1.375l-3.1172-5.8682c-.0479-.1035-.1094-.2432-.1846-.418s-.1416-.3428-.1982-.5029h-.0566v6.7891h-1.4033Z"/><path d="M277.2566,277.9658c-.2549,0-.4961-.0381-.7227-.1133-.2266-.0762-.4277-.1934-.6025-.3545-.1748-.1602-.3115-.3711-.4102-.6309-.0996-.2598-.1494-.5742-.1494-.9424,0-.4062.0732-.7656.2197-1.0771s.3711-.5762.6738-.7939c.3018-.2168.6914-.3828,1.168-.4961.4775-.1133,1.0371-.1699,1.6797-.1699v-.9639c0-.2451-.0352-.4531-.1055-.623-.0713-.1709-.1846-.3027-.3398-.3975-.1562-.0938-.3623-.1416-.6172-.1416-.3125,0-.5488.0547-.709.1631s-.2695.25-.3262.4248c-.0566.1758-.084.3711-.084.5889v.1416h-1.2617c-.0098-.0469-.0146-.0928-.0146-.1348v-.1484c0-.501.1064-.9102.3193-1.2266s.5029-.5459.8711-.6875c.3691-.1416.7891-.2119,1.2617-.2119.4824,0,.8945.0732,1.2402.2197.3447.1465.6113.3848.8008.7148.1895.3311.2832.7754.2832,1.333v3.9258c0,.1611.0352.2812.1064.3613s.1631.1201.2764.1201h.4258v.8936c-.123.0566-.2676.1064-.4326.1484-.165.043-.3428.0635-.5322.0635-.2266,0-.4131-.0449-.5586-.1338-.1475-.0898-.2607-.2148-.3408-.376-.0811-.1602-.1348-.335-.1631-.5244h-.0703c-.123.1982-.2725.3779-.4473.5381-.1748.1611-.3809.2861-.6162.376-.2363.0898-.5107.1348-.8223.1348ZM277.6814,276.8457c.1895,0,.3691-.04.5391-.1201s.3213-.1982.4531-.3545c.1328-.1553.2393-.3467.3193-.5742.0801-.2266.1201-.4863.1201-.7793v-.7227c-.5762,0-1.0391.0586-1.3887.1768s-.5996.2861-.751.5039c-.1514.2168-.2275.4766-.2275.7793,0,.2363.0361.4365.1074.6025.0703.165.1768.2881.3184.3682s.3125.1201.5098.1201Z"/><path d="M282.0467,277.7959v-7.4551h1.1064l.0986.9775h.0859c.1318-.2646.2852-.4814.46-.6514.1748-.1709.373-.2959.5947-.376.2227-.0801.4609-.1201.7168-.1201.3965,0,.7266.0869.9922.2617.2637.1748.4531.4697.5664.8857h.0703c.1426-.2646.2988-.4814.4688-.6514.1699-.1709.3652-.2959.5879-.376.2217-.0801.4648-.1201.7305-.1201.3584,0,.666.0684.9199.2051.2559.1367.4512.3564.5889.6592.1367.3027.2061.7041.2061,1.2051v5.5557h-1.3184v-5.2441c0-.1895-.0176-.3564-.0498-.5029-.0332-.1465-.085-.2695-.1553-.3691-.0723-.0986-.1641-.1748-.2773-.2266s-.2461-.0781-.3965-.0781c-.2363,0-.4473.0781-.6309.2344-.1836.1553-.3311.3848-.4395.6875-.1084.3018-.1631.6748-.1631,1.1191v4.3799h-1.3174v-5.2441c0-.1895-.0176-.3564-.0508-.5029s-.082-.2695-.1484-.3691c-.0664-.0986-.1562-.1748-.2695-.2266s-.25-.0781-.4102-.0781c-.2363,0-.4492.0781-.6387.2344-.1885.1553-.335.3848-.4395.6875-.1035.3018-.1553.6748-.1553,1.1191v4.3799h-1.333Z"/><path d="M294.1658,277.9658c-.6338,0-1.1504-.1348-1.5527-.4043-.4014-.2686-.6973-.6914-.8857-1.2686-.1885-.5762-.2832-1.3174-.2832-2.2246,0-.9355.0986-1.6895.2979-2.2607.1982-.5713.5029-.9873.9141-1.2471s.9375-.3896,1.5801-.3896c.5664,0,1.0391.1152,1.418.3467.377.2314.6602.6094.8496,1.1338s.2832,1.2266.2832,2.1045v.6104h-3.9824c.0098.5762.0566,1.0488.1426,1.417.084.3682.2266.6426.4248.8223s.4678.2686.8076.2686c.1982,0,.373-.0322.5244-.0986s.2812-.165.3896-.2979c.1094-.1318.1934-.3027.2559-.5098.0605-.208.0957-.4541.1055-.7373h1.3047c-.0098.4443-.0713.8389-.1846,1.1836-.1143.3447-.2812.6309-.5029.8574-.2227.2266-.4941.3994-.8154.5166-.3213.1182-.6846.1777-1.0908.1777ZM292.8191,273.4727h2.5928c0-.3965-.0234-.7344-.0703-1.0137-.0469-.2783-.1182-.5078-.2129-.6865-.0938-.1797-.2188-.3096-.375-.3906-.1562-.0801-.3428-.1201-.5605-.1201-.3301,0-.5918.0879-.7861.2627s-.3379.4248-.4326.751c-.0938.3262-.1465.7246-.1553,1.1973Z"/><path d="M299.4666,278.4902l2.791-11.1123h1.0635l-2.792,11.1123h-1.0625Z"/><path d="M308.2537,277.7959l-2.5801-9.7227h1.5586l1.5449,6.1367c.0381.1602.0781.3516.1211.5742.043.2217.0879.4414.1348.6592.0469.2168.085.4102.1133.5811h.085c.0186-.1045.0479-.2432.085-.4189.0371-.1738.0801-.3818.127-.623.0479-.2412.0996-.498.1562-.7725l1.5312-6.1367h1.502l-2.5645,9.7227h-1.8145Z"/><path d="M314.6453,277.9658c-.2549,0-.4961-.0381-.7227-.1133-.2266-.0762-.4277-.1934-.6025-.3545-.1748-.1602-.3115-.3711-.4102-.6309-.0996-.2598-.1494-.5742-.1494-.9424,0-.4062.0732-.7656.2197-1.0771s.3711-.5762.6738-.7939c.3018-.2168.6914-.3828,1.168-.4961.4775-.1133,1.0371-.1699,1.6797-.1699v-.9639c0-.2451-.0352-.4531-.1055-.623-.0713-.1709-.1846-.3027-.3398-.3975-.1562-.0938-.3623-.1416-.6172-.1416-.3125,0-.5488.0547-.709.1631s-.2695.25-.3262.4248c-.0566.1758-.084.3711-.084.5889v.1416h-1.2617c-.0098-.0469-.0146-.0928-.0146-.1348v-.1484c0-.501.1064-.9102.3193-1.2266s.5029-.5459.8711-.6875c.3691-.1416.7891-.2119,1.2617-.2119.4824,0,.8945.0732,1.2402.2197.3447.1465.6113.3848.8008.7148.1895.3311.2832.7754.2832,1.333v3.9258c0,.1611.0352.2812.1064.3613s.1631.1201.2764.1201h.4258v.8936c-.123.0566-.2676.1064-.4326.1484-.165.043-.3428.0635-.5322.0635-.2266,0-.4131-.0449-.5586-.1338-.1475-.0898-.2607-.2148-.3408-.376-.0811-.1602-.1348-.335-.1631-.5244h-.0703c-.123.1982-.2725.3779-.4473.5381-.1748.1611-.3809.2861-.6162.376-.2363.0898-.5107.1348-.8223.1348ZM315.0701,276.8457c.1895,0,.3691-.04.5391-.1201s.3213-.1982.4531-.3545c.1328-.1553.2393-.3467.3193-.5742.0801-.2266.1201-.4863.1201-.7793v-.7227c-.5762,0-1.0391.0586-1.3887.1768s-.5996.2861-.751.5039c-.1514.2168-.2275.4766-.2275.7793,0,.2363.0361.4365.1074.6025.0703.165.1768.2881.3184.3682s.3125.1201.5098.1201Z"/><path d="M319.4353,277.7959v-10.2471h1.332v10.2471h-1.332Z"/><path d="M324.0281,277.9658c-.5674,0-1.0068-.1611-1.3184-.4824-.3115-.3203-.4678-.8594-.4678-1.6152v-5.5273h1.3184v5.2158c0,.1982.0186.3701.0566.5166.0371.1465.0938.2725.1699.376.0762.1045.1748.1797.2979.2266.1221.0479.2646.0713.4248.0713.2559,0,.4824-.0762.6807-.2266.1982-.1514.3545-.3809.4678-.6875.1133-.3076.1699-.6826.1699-1.127v-4.3652h1.3184v7.4551h-1.0918l-.1133-.9922h-.0703c-.1328.2646-.291.4844-.4746.6592-.1855.1748-.3926.3018-.624.3828-.2314.0801-.4795.1201-.7441.1201Z"/><path d="M331.1287,277.9658c-.6328,0-1.1504-.1348-1.5518-.4043-.4014-.2686-.6973-.6914-.8857-1.2686-.1895-.5762-.2832-1.3174-.2832-2.2246,0-.9355.0986-1.6895.2969-2.2607.1992-.5713.5039-.9873.9141-1.2471.4121-.2598.9375-.3896,1.5801-.3896.5674,0,1.04.1152,1.418.3467s.6611.6094.8496,1.1338c.1895.5244.2842,1.2266.2842,2.1045v.6104h-3.9824c.0088.5762.0566,1.0488.1416,1.417s.2266.6426.4258.8223c.1973.1797.4668.2686.8066.2686.1992,0,.373-.0322.5254-.0986.1504-.0664.2812-.165.3887-.2979.1094-.1318.1943-.3027.2559-.5098.0605-.208.0967-.4541.1064-.7373h1.3037c-.0098.4443-.0703.8389-.1836,1.1836-.1143.3447-.2812.6309-.5039.8574s-.4941.3994-.8145.5166c-.3223.1182-.6855.1777-1.0918.1777ZM329.783,273.4727h2.5928c0-.3965-.0234-.7344-.0713-1.0137-.0469-.2783-.1172-.5078-.2119-.6865-.0947-.1797-.2197-.3096-.376-.3906-.1562-.0801-.3418-.1201-.5596-.1201-.3311,0-.5928.0879-.7861.2627-.1943.1748-.3379.4248-.4326.751s-.1465.7246-.1553,1.1973Z"/><path d="M337.3357,277.7959v-9.7227h3.4727c.6807,0,1.2207.125,1.623.375.4014.251.6943.6006.8789,1.0488.1836.4492.2764.9668.2764,1.5518,0,.6143-.1045,1.1553-.3115,1.623-.209.4678-.5137.834-.9141,1.0986-.4023.2646-.9053.3965-1.5098.3965h-2.041v3.6289h-1.4746ZM338.8103,272.8916h1.8281c.4824,0,.8457-.1602,1.0918-.4814.2451-.3213.3682-.7607.3682-1.3184,0-.3965-.0518-.7256-.1562-.9854s-.2646-.4531-.4814-.5811c-.2178-.127-.5098-.1914-.8789-.1914h-1.7715v3.5576Z"/><path d="M346.0389,277.9658c-.2559,0-.4961-.0381-.7227-.1133-.2266-.0762-.4277-.1934-.6035-.3545-.1738-.1602-.3105-.3711-.4102-.6309s-.1484-.5742-.1484-.9424c0-.4062.0723-.7656.2188-1.0771s.3711-.5762.6738-.7939c.3027-.2168.6914-.3828,1.1689-.4961s1.0371-.1699,1.6797-.1699v-.9639c0-.2451-.0361-.4531-.1064-.623-.0703-.1709-.1836-.3027-.3398-.3975-.1562-.0938-.3613-.1416-.6172-.1416-.3115,0-.5479.0547-.708.1631-.1611.1084-.2695.25-.3262.4248-.0566.1758-.085.3711-.085.5889v.1416h-1.2617c-.0098-.0469-.0137-.0928-.0137-.1348v-.1484c0-.501.1055-.9102.3184-1.2266s.5039-.5459.8721-.6875.7881-.2119,1.2607-.2119c.4824,0,.8955.0732,1.2402.2197.3457.1465.6123.3848.8008.7148.1895.3311.2832.7754.2832,1.333v3.9258c0,.1611.0361.2812.1074.3613.0703.0801.1621.1201.2754.1201h.4258v.8936c-.123.0566-.2676.1064-.4316.1484-.166.043-.3438.0635-.5322.0635-.2266,0-.4131-.0449-.5596-.1338-.1465-.0898-.2598-.2148-.3398-.376-.0811-.1602-.1348-.335-.1641-.5244h-.0703c-.123.1982-.2715.3779-.4463.5381-.1748.1611-.3809.2861-.6162.376-.2363.0898-.5107.1348-.8223.1348ZM346.4637,276.8457c.1885,0,.3682-.04.5381-.1201.1709-.0801.3223-.1982.4541-.3545.1318-.1553.2393-.3467.3193-.5742.0801-.2266.1201-.4863.1201-.7793v-.7227c-.5771,0-1.04.0586-1.3896.1768s-.5996.2861-.75.5039c-.1523.2168-.2275.4766-.2275.7793,0,.2363.0361.4365.1064.6025.0703.165.1777.2881.3184.3682.1426.0801.3125.1201.5107.1201Z"/><path d="M350.8289,268.9795v-1.4307h1.333v1.4307h-1.333ZM350.8289,277.7959v-7.4551h1.333v7.4551h-1.333Z"/><path d="M353.7059,277.7959v-7.4551h1.0918l.0986,1.0625h.0859c.084-.2549.1885-.4746.3105-.6592.123-.1836.2715-.3252.4473-.4248.1748-.0996.3711-.1484.5879-.1484.0947,0,.1797.0049.2559.0137.0752.0098.1465.0283.2119.0566v1.3604h-.4678c-.1982,0-.3779.041-.5391.1211-.1602.0801-.2969.2031-.4102.3682-.1133.166-.1992.376-.2559.6309s-.084.5527-.084.8926v4.1816h-1.333Z"/><path d="M359.6014,277.9658c-.4434,0-.8193-.0547-1.126-.1631-.3076-.1084-.5557-.2598-.7441-.4531-.1895-.1943-.3291-.4258-.4189-.6953-.0898-.2686-.1338-.5645-.1338-.8857,0-.0469.002-.0986.0068-.1553s.0117-.1084.0215-.1562h1.2471c-.0088.0566-.0146.1064-.0146.1484v.1211c0,.2549.0479.4727.1426.6514.0938.1797.2285.3145.4043.4043.1738.0898.3848.1348.6299.1348.2363,0,.4395-.043.6094-.1279.1709-.085.3027-.21.3975-.375.0938-.165.1406-.3711.1406-.6172,0-.2637-.0703-.4746-.2119-.6299-.1416-.1562-.3262-.2842-.5527-.3828-.2266-.0996-.4678-.2012-.7227-.3047-.2275-.085-.4561-.1826-.6875-.291s-.4424-.2451-.6309-.4111c-.1885-.165-.3408-.3701-.4541-.6162s-.1699-.5576-.1699-.9355c0-.3398.0566-.6377.1699-.8926.1133-.2559.2773-.4707.4902-.6455.2119-.1748.4629-.3047.75-.3896.2891-.085.6035-.127.9434-.127.3594,0,.6777.042.957.127.2773.085.5137.2109.708.376.1934.165.3408.3662.4395.6025s.1494.4961.1494.7793c0,.0752-.0029.1514-.0078.2266-.0049.0762-.0117.1416-.0215.1982h-1.2324v-.2979c0-.2168-.041-.3965-.1211-.5381s-.1953-.248-.3477-.3193c-.1504-.0703-.335-.1055-.5527-.1055-.1787,0-.335.0205-.4668.0635-.1328.042-.2412.1084-.3262.1982s-.1465.1914-.1836.3047c-.0391.1133-.0576.2363-.0576.3682,0,.2275.0615.4111.1846.5527.123.1426.2852.2578.4883.3477s.4238.1816.6602.2764c.2354.085.4785.1816.7295.291.25.1084.4834.2432.7021.4033.2168.1611.3887.3691.5166.624s.1914.5859.1914.9922-.0615.7559-.1846,1.0488-.2949.5332-.5176.7227c-.2217.1895-.4844.3281-.7861.418s-.6377.1348-1.0068.1348Z"/><path d="M195.0682,85.0396v-9.7227h2.1826l1.5029,5.8818c.0283.1226.0635.2788.1055.4678.043.189.0859.3804.1279.5737.043.1938.0732.3662.0918.5176h.0996c.0186-.123.0449-.2739.0781-.4536s.0703-.3662.1133-.5601c.042-.1934.083-.3755.1201-.5454l1.4883-5.8818h2.1826v9.7227h-1.4453v-5.8677c0-.208.002-.4321.0068-.6733.0049-.2407.0117-.4722.0215-.6943.0088-.2222.0137-.3945.0137-.5176h-.085c-.0186.1045-.0488.2461-.0918.4253-.043.1797-.085.3662-.1279.5601-.042.1938-.0869.3662-.1338.5171l-1.6162,6.2505h-1.2188l-1.6299-6.2505c-.0283-.1133-.0645-.2573-.1064-.4321-.043-.1748-.083-.3589-.1201-.5527-.0381-.1938-.0762-.3662-.1143-.5176h-.085c.0098.1797.0166.3853.0215.6167s.0098.4585.0146.6802c.0039.2222.0068.4185.0068.5884v5.8677h-1.4033Z"/><path d="M207.2996,85.2095c-.6338,0-1.1504-.1343-1.5518-.4038-.4023-.269-.6973-.6919-.8867-1.2686-.1885-.5762-.2832-1.3179-.2832-2.2251,0-.9355.0996-1.689.2979-2.2607.1982-.5713.5029-.9873.9141-1.2471s.9375-.3896,1.5801-.3896c.5674,0,1.04.1157,1.418.3472s.6611.6094.8496,1.1338c.1895.5244.2842,1.2261.2842,2.1045v.6099h-3.9824c.0088.5762.0566,1.0488.1416,1.417.085.3687.2266.6426.4248.8223s.4678.269.8076.269c.1982,0,.373-.0327.5244-.0991.1514-.0659.2812-.165.3896-.2974.1094-.1323.1943-.3027.2559-.5103.0605-.208.0967-.4536.1064-.7373h1.3037c-.0098.4443-.0713.8389-.1846,1.1836-.1133.3452-.2812.6309-.5029.8574-.2227.2266-.4941.3994-.8154.5171-.3213.1182-.6846.1772-1.0908.1772ZM205.9529,80.7168h2.5938c0-.397-.0234-.7349-.0713-1.0137-.0469-.2783-.1182-.5078-.2119-.687-.0947-.1797-.2197-.3096-.376-.3901-.1562-.0801-.3428-.1201-.5596-.1201-.3311,0-.5928.0874-.7871.2622-.1934.1748-.3379.4248-.4316.751-.0947.3262-.1465.7251-.1562,1.1978Z"/><path d="M212.6287,85.2095c-.3496,0-.6211-.0732-.8154-.2197-.1934-.146-.3252-.3472-.3965-.6021-.0713-.2554-.1064-.5337-.1064-.8364v-4.8613h-.666v-1.1055h.6943l.2412-2.126h1.0488v2.126h1.0059v1.1055h-1.0059v4.7622c0,.2173.0332.3779.0986.4819.0664.104.1846.1558.3545.1558h.5527v.9072c-.1035.0376-.2148.0732-.333.1064-.1182.0327-.2334.0586-.3467.0776s-.2227.0283-.3262.0283Z"/><path d="M216.2283,85.2095c-.2549,0-.4961-.0376-.7227-.1133s-.4277-.1934-.6025-.3545c-.1748-.1602-.3115-.3706-.4111-.6304s-.1484-.5742-.1484-.9429c0-.4058.0723-.7651.2197-1.0771.1465-.3115.3701-.5762.6729-.7935s.6924-.3828,1.1689-.4961c.4775-.1133,1.0371-.1699,1.6797-.1699v-.9639c0-.2456-.0352-.4536-.1064-.6235-.0703-.1704-.1836-.3022-.3398-.397-.1562-.0942-.3613-.1416-.6162-.1416-.3125,0-.5488.0542-.709.1626-.1611.1089-.2695.2505-.3262.4253-.0566.1753-.085.3711-.085.5884v.1416h-1.2617c-.0088-.0469-.0137-.0923-.0137-.1348v-.1484c0-.501.1064-.9097.3184-1.2261.2129-.3164.5039-.5459.8721-.6875s.7891-.2124,1.2617-.2124c.4814,0,.8945.0732,1.2402.2197.3447.1465.6113.3848.8008.7153.1885.3311.2832.7749.2832,1.3325v3.9258c0,.1611.0352.2812.1064.3613.0703.0806.1631.1206.2764.1206h.4248v.8931c-.123.0566-.2666.1064-.4316.1489-.166.0425-.3428.0635-.5322.0635-.2266,0-.4131-.0449-.5596-.1343-.1465-.0898-.2598-.2148-.3398-.376-.0811-.1602-.1348-.335-.1631-.5244h-.0713c-.123.1987-.2715.3784-.4463.5386-.1748.1611-.3809.2861-.6162.376-.2363.0894-.5107.1343-.8223.1343ZM216.6531,84.0898c.1895,0,.3691-.04.5391-.1206.1699-.0801.3213-.1982.4531-.354.1328-.1558.2393-.3472.3193-.5742.0801-.2266.1201-.4863.1201-.7793v-.7231c-.5762,0-1.0391.0591-1.3887.1772s-.6006.2861-.751.5034c-.1514.2173-.2275.4771-.2275.7793,0,.2363.0361.437.1064.6025.0713.1655.1777.2881.3193.3682.1416.0806.3115.1206.5098.1206Z"/><path d="M223.3436,85.0396v-9.7227h2.9756c.832,0,1.5215.1675,2.0693.5029s.957.8599,1.2266,1.5732.4033,1.6372.4033,2.771c0,1.1245-.1338,2.0459-.4033,2.7637-.2695.7183-.6807,1.2495-1.2334,1.5947-.5527.3447-1.25.5171-2.0908.5171h-2.9473ZM224.8172,83.7642h1.3604c.3691,0,.6973-.0522.9854-.1562.2881-.1035.5312-.2764.7295-.5171.1992-.2412.3525-.5693.4609-.9854.1084-.4155.1631-.9351.1631-1.5586v-.6523c0-.6235-.0518-1.1479-.1562-1.5732-.1035-.4248-.2549-.7651-.4531-1.0205-.1982-.2549-.4443-.439-.7373-.5527-.293-.1133-.623-.1699-.9922-.1699h-1.3604v7.186Z"/><path d="M233.7889,85.2095c-.6338,0-1.1504-.1343-1.5518-.4038-.4023-.269-.6973-.6919-.8867-1.2686-.1885-.5762-.2832-1.3179-.2832-2.2251,0-.9355.0996-1.689.2979-2.2607.1982-.5713.5029-.9873.9141-1.2471s.9375-.3896,1.5801-.3896c.5674,0,1.04.1157,1.418.3472s.6611.6094.8496,1.1338c.1895.5244.2842,1.2261.2842,2.1045v.6099h-3.9824c.0088.5762.0566,1.0488.1416,1.417.085.3687.2266.6426.4248.8223s.4678.269.8076.269c.1982,0,.373-.0327.5244-.0991.1514-.0659.2812-.165.3896-.2974.1094-.1323.1943-.3027.2559-.5103.0605-.208.0967-.4536.1064-.7373h1.3037c-.0098.4443-.0713.8389-.1846,1.1836-.1133.3452-.2812.6309-.5029.8574-.2227.2266-.4941.3994-.8154.5171-.3213.1182-.6846.1772-1.0908.1772ZM232.4422,80.7168h2.5938c0-.397-.0234-.7349-.0713-1.0137-.0469-.2783-.1182-.5078-.2119-.687-.0947-.1797-.2197-.3096-.376-.3901-.1562-.0801-.3428-.1201-.5596-.1201-.3311,0-.5928.0874-.7871.2622-.1934.1748-.3379.4248-.4316.751-.0947.3262-.1465.7251-.1562,1.1978Z"/><path d="M237.9275,85.0396v-6.3496h-.8086v-1.1055h.8086v-1.2046c0-.3877.0518-.709.1553-.9639.1045-.2554.2646-.4443.4824-.5669.2168-.123.4961-.1846.8359-.1846.085,0,.1816.0049.291.0142.1084.0098.2168.0264.3252.0498.1094.0239.2012.0498.2764.0781v.9634h-.5527c-.1787,0-.3066.0547-.3818.1631-.0762.1089-.1143.2578-.1143.4468v1.2046h1.0488v1.1055h-1.0488v6.3496h-1.3174ZM241.1873,76.2236v-1.4312h1.3184v1.4312h-1.3184ZM241.1873,85.0396v-7.4551h1.3184v7.4551h-1.3184Z"/><path d="M244.0496,85.0396v-7.4551h1.1064l.0986.978h.085c.1328-.2646.291-.4819.4746-.6519.1846-.1704.3926-.2954.624-.376.2314-.0801.4795-.1201.7441-.1201.3779,0,.6992.0684.9639.2051.2646.1372.4678.3594.6094.6665s.2129.7158.2129,1.2261v5.5273h-1.333v-5.23c0-.1982-.0186-.3706-.0566-.5171-.0371-.1465-.0947-.2695-.1699-.3687s-.1729-.1748-.29-.2266c-.1182-.0522-.2627-.0781-.4326-.0781-.2461,0-.4678.0781-.666.2339s-.3545.3853-.4678.6875-.1699.6753-.1699,1.1196v4.3794h-1.333Z"/><path d="M250.4422,76.2236v-1.4312h1.332v1.4312h-1.332ZM250.4422,85.0396v-7.4551h1.332v7.4551h-1.332Z"/><path d="M254.7644,85.2095c-.3496,0-.6211-.0732-.8145-.2197-.1943-.146-.3262-.3472-.3975-.6021-.0703-.2554-.1055-.5337-.1055-.8364v-4.8613h-.667v-1.1055h.6953l.2402-2.126h1.0488v2.126h1.0068v1.1055h-1.0068v4.7622c0,.2173.0332.3779.0996.4819s.1846.1558.3545.1558h.5527v.9072c-.1045.0376-.2148.0732-.333.1064-.1182.0327-.2344.0586-.3477.0776s-.2217.0283-.3262.0283Z"/><path d="M256.8055,76.2236v-1.4312h1.332v1.4312h-1.332ZM256.8055,85.0396v-7.4551h1.332v7.4551h-1.332Z"/><path d="M262.1629,85.2095c-.6045,0-1.1123-.1323-1.5234-.3965-.4111-.2646-.7188-.6851-.9219-1.2617-.2031-.5762-.3047-1.3228-.3047-2.2393,0-.9258.1016-1.6748.3047-2.2466.2031-.5713.5107-.9897.9219-1.2544.4111-.2642.9189-.3965,1.5234-.3965s1.1123.1323,1.5234.3965c.4111.2646.7207.6831.9287,1.2544.207.5718.3115,1.3208.3115,2.2466,0,.9165-.1045,1.6631-.3115,2.2393-.208.5767-.5176.9971-.9287,1.2617-.4111.2642-.9189.3965-1.5234.3965ZM262.1629,84.0898c.3301,0,.5947-.0825.7939-.248.1982-.165.3467-.4321.4463-.8008.0986-.3682.1484-.8501.1484-1.4458v-.5669c0-.5952-.0498-1.0771-.1484-1.4453-.0996-.3687-.248-.6382-.4463-.8081-.1992-.1699-.4639-.2549-.7939-.2549-.3213,0-.5859.085-.7939.2549s-.3564.4395-.4463.8081c-.0898.3682-.1348.8501-.1348,1.4453v.5669c0,.5957.0449,1.0776.1348,1.4458.0898.3687.2383.6357.4463.8008.208.1655.4727.248.7939.248Z"/><path d="M266.1736,85.0396v-7.4551h1.1055l.0996.978h.085c.1318-.2646.29-.4819.4746-.6519.1846-.1704.3916-.2954.623-.376.2314-.0801.4795-.1201.7441-.1201.3779,0,.6992.0684.9639.2051.2646.1372.4678.3594.6094.6665.1426.3071.2129.7158.2129,1.2261v5.5273h-1.332v-5.23c0-.1982-.0195-.3706-.0566-.5171-.0381-.1465-.0947-.2695-.1699-.3687-.0762-.0991-.1729-.1748-.291-.2266-.1182-.0522-.2617-.0781-.4326-.0781-.2451,0-.4668.0781-.666.2339-.1982.1558-.3545.3853-.4678.6875s-.1699.6753-.1699,1.1196v4.3794h-1.332Z"/><path d="M274.5779,85.2095c-.4443,0-.8193-.0542-1.126-.1626-.3076-.1089-.5557-.2598-.7441-.4536-.1895-.1938-.3291-.4253-.4189-.6948-.0898-.269-.1338-.5645-.1338-.8857,0-.0469.002-.0991.0068-.1558s.0117-.1084.0215-.1558h1.2471c-.0098.0566-.0146.106-.0146.1484v.1206c0,.2554.0479.4727.1416.6519.0947.1797.2295.3145.4043.4043s.3848.1343.6309.1343c.2363,0,.4395-.0425.6094-.1274s.3027-.21.3965-.3755c.0947-.165.1416-.3706.1416-.6167,0-.2642-.0703-.4746-.2119-.6304-.1416-.1562-.3262-.2837-.5527-.3828s-.4678-.2007-.7227-.3047c-.2275-.085-.4561-.1821-.6875-.2905-.2324-.1089-.4424-.2456-.6309-.4111-.1895-.165-.3408-.3706-.4541-.6167-.1133-.2456-.1699-.5571-.1699-.9355,0-.3398.0566-.6377.1699-.8926.1133-.2554.2764-.4702.4893-.645s.4629-.3047.751-.3896.6025-.1274.9424-.1274c.3594,0,.6787.0425.957.1274s.5146.2104.709.3755c.1934.1655.3398.3662.4395.6025.0986.2363.1484.4961.1484.7793,0,.0757-.002.1514-.0068.2271s-.0117.1416-.0215.1982h-1.2334v-.2979c0-.2173-.04-.3965-.1201-.5386-.0801-.1416-.1963-.248-.3477-.3188-.1504-.0708-.335-.106-.5527-.106-.1787,0-.335.021-.4678.0635-.1318.0425-.2402.1089-.3252.1987s-.1465.1909-.1846.3047c-.0381.1133-.0566.2363-.0566.3682,0,.2271.0615.4111.1846.5527.1221.1421.2852.2578.4883.3477s.4229.1816.6592.2764c.2363.085.4795.1816.7305.2905.25.1084.4834.2432.7012.4038s.3896.3687.5176.6235c.127.2554.1914.5859.1914.9922s-.0615.7559-.1846,1.0488-.2949.5337-.5176.7227c-.2217.1895-.4844.3286-.7861.4185-.3027.0894-.6377.1343-1.0068.1343Z"/><path d="M279.6658,85.7339l2.792-11.1118h1.0635l-2.792,11.1118h-1.0635Z"/><path d="M286.6248,85.0396v-9.7227h2.1826l1.5029,5.8818c.0283.1226.0635.2788.1055.4678.043.189.0859.3804.1279.5737.043.1938.0732.3662.0918.5176h.0996c.0186-.123.0449-.2739.0781-.4536s.0703-.3662.1133-.5601c.042-.1934.083-.3755.1201-.5454l1.4883-5.8818h2.1826v9.7227h-1.4453v-5.8677c0-.208.002-.4321.0068-.6733.0049-.2407.0117-.4722.0215-.6943.0088-.2222.0137-.3945.0137-.5176h-.085c-.0186.1045-.0488.2461-.0918.4253-.043.1797-.085.3662-.1279.5601-.042.1938-.0869.3662-.1338.5171l-1.6162,6.2505h-1.2188l-1.6299-6.2505c-.0283-.1133-.0645-.2573-.1064-.4321-.043-.1748-.083-.3589-.1201-.5527-.0381-.1938-.0762-.3662-.1143-.5176h-.085c.0098.1797.0166.3853.0215.6167s.0098.4585.0146.6802c.0039.2222.0068.4185.0068.5884v5.8677h-1.4033Z"/><path d="M298.8562,85.2095c-.6338,0-1.1504-.1343-1.5518-.4038-.4023-.269-.6973-.6919-.8867-1.2686-.1885-.5762-.2832-1.3179-.2832-2.2251,0-.9355.0996-1.689.2979-2.2607.1982-.5713.5029-.9873.9141-1.2471s.9375-.3896,1.5801-.3896c.5674,0,1.04.1157,1.418.3472s.6611.6094.8496,1.1338c.1895.5244.2842,1.2261.2842,2.1045v.6099h-3.9824c.0088.5762.0566,1.0488.1416,1.417.085.3687.2266.6426.4248.8223s.4678.269.8076.269c.1982,0,.373-.0327.5244-.0991.1514-.0659.2812-.165.3896-.2974.1094-.1323.1943-.3027.2559-.5103.0605-.208.0967-.4536.1064-.7373h1.3037c-.0098.4443-.0713.8389-.1846,1.1836-.1133.3452-.2812.6309-.5029.8574-.2227.2266-.4941.3994-.8154.5171-.3213.1182-.6846.1772-1.0908.1772ZM297.5096,80.7168h2.5938c0-.397-.0234-.7349-.0713-1.0137-.0469-.2783-.1182-.5078-.2119-.687-.0947-.1797-.2197-.3096-.376-.3901-.1562-.0801-.3428-.1201-.5596-.1201-.3311,0-.5928.0874-.7871.2622-.1934.1748-.3379.4248-.4316.751-.0947.3262-.1465.7251-.1562,1.1978Z"/><path d="M304.1853,85.2095c-.3496,0-.6211-.0732-.8154-.2197-.1934-.146-.3252-.3472-.3965-.6021-.0713-.2554-.1064-.5337-.1064-.8364v-4.8613h-.666v-1.1055h.6943l.2412-2.126h1.0488v2.126h1.0059v1.1055h-1.0059v4.7622c0,.2173.0332.3779.0986.4819.0664.104.1846.1558.3545.1558h.5527v.9072c-.1035.0376-.2148.0732-.333.1064-.1182.0327-.2334.0586-.3467.0776s-.2227.0283-.3262.0283Z"/><path d="M307.785,85.2095c-.2549,0-.4961-.0376-.7227-.1133s-.4277-.1934-.6025-.3545c-.1748-.1602-.3115-.3706-.4111-.6304s-.1484-.5742-.1484-.9429c0-.4058.0723-.7651.2197-1.0771.1465-.3115.3701-.5762.6729-.7935s.6924-.3828,1.1689-.4961c.4775-.1133,1.0371-.1699,1.6797-.1699v-.9639c0-.2456-.0352-.4536-.1064-.6235-.0703-.1704-.1836-.3022-.3398-.397-.1562-.0942-.3613-.1416-.6162-.1416-.3125,0-.5488.0542-.709.1626-.1611.1089-.2695.2505-.3262.4253-.0566.1753-.085.3711-.085.5884v.1416h-1.2617c-.0088-.0469-.0137-.0923-.0137-.1348v-.1484c0-.501.1064-.9097.3184-1.2261.2129-.3164.5039-.5459.8721-.6875s.7891-.2124,1.2617-.2124c.4814,0,.8945.0732,1.2402.2197.3447.1465.6113.3848.8008.7153.1885.3311.2832.7749.2832,1.3325v3.9258c0,.1611.0352.2812.1064.3613.0703.0806.1631.1206.2764.1206h.4248v.8931c-.123.0566-.2666.1064-.4316.1489-.166.0425-.3428.0635-.5322.0635-.2266,0-.4131-.0449-.5596-.1343-.1465-.0898-.2598-.2148-.3398-.376-.0811-.1602-.1348-.335-.1631-.5244h-.0713c-.123.1987-.2715.3784-.4463.5386-.1748.1611-.3809.2861-.6162.376-.2363.0894-.5107.1343-.8223.1343ZM308.2098,84.0898c.1895,0,.3691-.04.5391-.1206.1699-.0801.3213-.1982.4531-.354.1328-.1558.2393-.3472.3193-.5742.0801-.2266.1201-.4863.1201-.7793v-.7231c-.5762,0-1.0391.0591-1.3887.1772s-.6006.2861-.751.5034c-.1514.2173-.2275.4771-.2275.7793,0,.2363.0361.437.1064.6025.0713.1655.1777.2881.3193.3682.1416.0806.3115.1206.5098.1206Z"/><path d="M318.1453,85.2095c-.8223,0-1.5-.1816-2.0332-.5454-.5342-.3638-.9268-.9165-1.1768-1.6582-.251-.7417-.376-1.6846-.376-2.8276,0-1.729.3125-3,.9355-3.8125.624-.8125,1.5547-1.2192,2.792-1.2192.6895,0,1.2783.1328,1.7646.397.4863.2646.8623.6758,1.127,1.2329.2646.5576.3965,1.271.3965,2.1401h-1.4453c0-.5386-.0684-.9966-.2051-1.3745-.1377-.3779-.3457-.6611-.624-.8506-.2783-.189-.6357-.2832-1.0703-.2832-.4727,0-.8711.1201-1.1973.3613-.3262.2407-.5693.6143-.7305,1.1196-.1602.5054-.2402,1.1553-.2402,1.9487v.7231c0,.7842.0781,1.4268.2334,1.9272.1562.501.3926.8696.709,1.1055.3164.2363.7158.3545,1.1973.3545.4258,0,.7842-.0923,1.0771-.2764s.5127-.4604.6592-.8291.2197-.8315.2197-1.3892h1.417c0,.8696-.1416,1.5806-.4248,2.1333s-.6807.9614-1.1904,1.2261c-.5107.2642-1.1152.3965-1.8145.3965Z"/><path d="M325.3172,85.2095c-.6045,0-1.1123-.1323-1.5234-.3965-.4111-.2646-.7188-.6851-.9219-1.2617-.2031-.5762-.3047-1.3228-.3047-2.2393,0-.9258.1016-1.6748.3047-2.2466.2031-.5713.5107-.9897.9219-1.2544.4111-.2642.9189-.3965,1.5234-.3965s1.1123.1323,1.5234.3965c.4111.2646.7207.6831.9287,1.2544.207.5718.3115,1.3208.3115,2.2466,0,.9165-.1045,1.6631-.3115,2.2393-.208.5767-.5176.9971-.9287,1.2617-.4111.2642-.9189.3965-1.5234.3965ZM325.3172,84.0898c.3301,0,.5947-.0825.7939-.248.1982-.165.3467-.4321.4463-.8008.0986-.3682.1484-.8501.1484-1.4458v-.5669c0-.5952-.0498-1.0771-.1484-1.4453-.0996-.3687-.248-.6382-.4463-.8081-.1992-.1699-.4639-.2549-.7939-.2549-.3213,0-.5859.085-.7939.2549s-.3564.4395-.4463.8081c-.0898.3682-.1348.8501-.1348,1.4453v.5669c0,.5957.0449,1.0776.1348,1.4458.0898.3687.2383.6357.4463.8008.208.1655.4727.248.7939.248Z"/><path d="M329.3279,85.0396v-7.4551h1.1055l.0996.978h.085c.1318-.2646.2852-.4819.46-.6519.1748-.1704.373-.2954.5957-.376.2217-.0801.4609-.1201.7158-.1201.3965,0,.7275.0874.9922.2622s.4531.4697.5664.8857h.0713c.1416-.2646.2979-.4819.4678-.6519.1699-.1704.3662-.2954.5879-.376.2217-.0801.4658-.1201.7305-.1201.3584,0,.666.0684.9209.2051.2549.1372.4512.3569.5879.6592.1367.3027.2061.7041.2061,1.2051v5.5557h-1.3184v-5.2441c0-.189-.0166-.3564-.0498-.5029s-.085-.2695-.1553-.3687c-.0713-.0991-.1631-.1748-.2764-.2266-.1143-.0522-.2461-.0781-.3975-.0781-.2363,0-.4463.0781-.6309.2339-.1836.1558-.3311.3853-.4395.6875s-.1631.6753-.1631,1.1196v4.3794h-1.3174v-5.2441c0-.189-.0166-.3564-.0498-.5029s-.083-.2695-.1484-.3687c-.0664-.0991-.1562-.1748-.2695-.2266-.1133-.0522-.251-.0781-.4111-.0781-.2363,0-.4492.0781-.6377.2339-.1895.1558-.3359.3853-.4395.6875-.1045.3022-.1562.6753-.1562,1.1196v4.3794h-1.332Z"/><path d="M338.9939,85.0396v-7.4551h1.1055l.0996.978h.085c.1318-.2646.2852-.4819.46-.6519.1748-.1704.373-.2954.5957-.376.2217-.0801.4609-.1201.7158-.1201.3965,0,.7275.0874.9922.2622s.4531.4697.5664.8857h.0713c.1416-.2646.2979-.4819.4678-.6519.1699-.1704.3662-.2954.5879-.376.2217-.0801.4658-.1201.7305-.1201.3584,0,.666.0684.9209.2051.2549.1372.4512.3569.5879.6592.1367.3027.2061.7041.2061,1.2051v5.5557h-1.3184v-5.2441c0-.189-.0166-.3564-.0498-.5029s-.085-.2695-.1553-.3687c-.0713-.0991-.1631-.1748-.2764-.2266-.1143-.0522-.2461-.0781-.3975-.0781-.2363,0-.4463.0781-.6309.2339-.1836.1558-.3311.3853-.4395.6875s-.1631.6753-.1631,1.1196v4.3794h-1.3174v-5.2441c0-.189-.0166-.3564-.0498-.5029s-.083-.2695-.1484-.3687c-.0664-.0991-.1562-.1748-.2695-.2266-.1133-.0522-.251-.0781-.4111-.0781-.2363,0-.4492.0781-.6377.2339-.1895.1558-.3359.3853-.4395.6875-.1045.3022-.1562.6753-.1562,1.1196v4.3794h-1.332Z"/><path d="M350.2186,85.2095c-.2549,0-.4961-.0376-.7227-.1133s-.4277-.1934-.6025-.3545c-.1748-.1602-.3115-.3706-.4102-.6304-.0996-.2598-.1494-.5742-.1494-.9429,0-.4058.0732-.7651.2197-1.0771.1465-.3115.3711-.5762.6738-.7935.3018-.2173.6914-.3828,1.1689-.4961.4766-.1133,1.0371-.1699,1.6797-.1699v-.9639c0-.2456-.0361-.4536-.1064-.6235-.0713-.1704-.1846-.3022-.3398-.397-.1562-.0942-.3623-.1416-.6172-.1416-.3115,0-.5479.0542-.708.1626-.1611.1089-.2695.2505-.3262.4253-.0566.1753-.085.3711-.085.5884v.1416h-1.2617c-.0098-.0469-.0146-.0923-.0146-.1348v-.1484c0-.501.1064-.9097.3193-1.2261s.5029-.5459.8721-.6875c.3682-.1416.7881-.2124,1.2607-.2124.4824,0,.8955.0732,1.2402.2197s.6123.3848.8008.7153c.1895.3311.2832.7749.2832,1.3325v3.9258c0,.1611.0361.2812.1064.3613.0713.0806.1631.1206.2764.1206h.4258v.8931c-.123.0566-.2676.1064-.4326.1489s-.3428.0635-.5312.0635c-.2266,0-.4141-.0449-.5596-.1343-.1475-.0898-.2607-.2148-.3408-.376-.0801-.1602-.1348-.335-.1631-.5244h-.0703c-.123.1987-.2725.3784-.4463.5386-.1758.1611-.3809.2861-.6172.376-.2363.0894-.5098.1343-.8223.1343ZM350.6443,84.0898c.1885,0,.3682-.04.5381-.1206.1709-.0801.3213-.1982.4541-.354.1318-.1558.2383-.3472.3184-.5742.0801-.2266.1211-.4863.1211-.7793v-.7231c-.5771,0-1.04.0591-1.3896.1772s-.5996.2861-.751.5034-.2266.4771-.2266.7793c0,.2363.0352.437.1064.6025.0703.1655.1768.2881.3184.3682.1416.0806.3125.1206.5107.1206Z"/><path d="M355.0096,85.0396v-7.4551h1.1055l.0996.978h.085c.1318-.2646.29-.4819.4746-.6519.1846-.1704.3916-.2954.623-.376.2314-.0801.4795-.1201.7441-.1201.3779,0,.6992.0684.9639.2051.2646.1372.4678.3594.6094.6665.1426.3071.2129.7158.2129,1.2261v5.5273h-1.332v-5.23c0-.1982-.0195-.3706-.0566-.5171-.0381-.1465-.0947-.2695-.1699-.3687-.0762-.0991-.1729-.1748-.291-.2266-.1182-.0522-.2617-.0781-.4326-.0781-.2451,0-.4668.0781-.666.2339-.1982.1558-.3545.3853-.4678.6875s-.1699.6753-.1699,1.1196v4.3794h-1.332Z"/><path d="M363.3289,85.2095c-.4727,0-.874-.1323-1.2051-.3965-.3311-.2646-.5791-.6851-.7441-1.2617-.165-.5762-.248-1.3369-.248-2.2817,0-.9165.0801-1.6558.2412-2.2183.1602-.562.4043-.9756.7295-1.2402.3262-.2642.7207-.3965,1.1836-.3965.2646,0,.501.0376.709.1133s.3896.189.5459.3398c.1553.1514.2852.3403.3896.5674h.085v-3.6426h1.3184v10.2471h-1.0635l-.1133-.978h-.085c-.1416.3403-.3613.6167-.6592.8291-.2979.2129-.6592.3188-1.084.3188ZM363.74,84.0332c.3018,0,.5449-.0942.7295-.2832s.3213-.4678.4111-.8364.1348-.8174.1348-1.3467v-.4673c0-.4346-.0312-.8081-.0918-1.1201-.0615-.3115-.1445-.5669-.248-.7651-.1045-.1982-.2393-.3472-.4043-.4463-.165-.0996-.3477-.1489-.5459-.1489-.2832,0-.5146.085-.6943.2549-.1797.1704-.3115.4351-.3965.7939s-.1279.8315-.1279,1.4175v.4956c0,.5674.04,1.0327.1201,1.3965s.2129.6304.3975.8008c.1836.1699.4229.2549.7158.2549Z"/><path d="M369.8768,85.2095c-.4443,0-.8203-.0542-1.127-.1626-.3066-.1089-.5547-.2598-.7441-.4536s-.3281-.4253-.418-.6948c-.0898-.269-.1348-.5645-.1348-.8857,0-.0469.002-.0991.0068-.1558s.0117-.1084.0215-.1558h1.2471c-.0088.0566-.0137.106-.0137.1484v.1206c0,.2554.0469.4727.1416.6519.0947.1797.2285.3145.4043.4043.1738.0898.3848.1343.6299.1343.2363,0,.4395-.0425.6094-.1274.1709-.085.3027-.21.3975-.3755.0938-.165.1416-.3706.1416-.6167,0-.2642-.0713-.4746-.2129-.6304-.1416-.1562-.3262-.2837-.5527-.3828s-.4678-.2007-.7227-.3047c-.2266-.085-.4561-.1821-.6875-.2905-.2314-.1089-.4414-.2456-.6309-.4111-.1885-.165-.3398-.3706-.4531-.6167-.1133-.2456-.1699-.5571-.1699-.9355,0-.3398.0566-.6377.1699-.8926.1133-.2554.2764-.4702.4893-.645.2119-.1748.4629-.3047.751-.3896s.6025-.1274.9424-.1274c.3594,0,.6777.0425.957.1274.2783.085.5146.2104.708.3755.1934.1655.3408.3662.4395.6025.0996.2363.1494.4961.1494.7793,0,.0757-.0029.1514-.0078.2271s-.0117.1416-.0205.1982h-1.2334v-.2979c0-.2173-.04-.3965-.1201-.5386-.0811-.1416-.1963-.248-.3477-.3188s-.3359-.106-.5527-.106c-.1797,0-.3359.021-.4678.0635-.1328.0425-.2412.1089-.3262.1987s-.1465.1909-.1836.3047c-.0381.1133-.0576.2363-.0576.3682,0,.2271.0615.4111.1846.5527.123.1421.2861.2578.4893.3477s.4229.1816.6592.2764c.2354.085.4795.1816.7295.2905.25.1084.4844.2432.7021.4038.2168.1606.3896.3687.5166.6235.1279.2554.1914.5859.1914.9922s-.0615.7559-.1836,1.0488c-.123.293-.2959.5337-.5176.7227-.2227.1895-.4844.3286-.7871.4185-.3018.0894-.6377.1343-1.0059.1343Z"/><path d="M240.8465,204.0947v-9.7227h2.1826l1.502,5.8818c.0283.1221.0635.2783.1064.4678.042.1885.085.3799.1279.5732.042.1943.0723.3662.0918.5176h.0996c.0186-.123.0439-.2734.0771-.4531s.0713-.3662.1133-.5605c.043-.1934.083-.375.1211-.5449l1.4883-5.8818h2.1826v9.7227h-1.4463v-5.8682c0-.208.0029-.4316.0078-.6729.0039-.2412.0117-.4727.0205-.6943.0098-.2227.0146-.3945.0146-.5176h-.085c-.0195.1045-.0498.2461-.0918.4248-.043.1797-.0859.3662-.1279.5605-.043.1934-.0879.3662-.1348.5166l-1.6162,6.251h-1.2188l-1.6299-6.251c-.0283-.1133-.0635-.2568-.1064-.4316-.042-.1748-.082-.3594-.1201-.5527-.0381-.1943-.0752-.3662-.1133-.5176h-.085c.0088.1797.0166.3848.0215.6162.0039.2314.0088.459.0137.6807s.0068.418.0068.5879v5.8682h-1.4023Z"/><path d="M253.0769,204.2646c-.6328,0-1.1504-.1348-1.5518-.4043-.4014-.2686-.6973-.6914-.8857-1.2686-.1895-.5762-.2832-1.3174-.2832-2.2246,0-.9355.0986-1.6895.2969-2.2607.1992-.5713.5039-.9873.915-1.2471s.9375-.3896,1.5801-.3896c.5664,0,1.0391.1152,1.417.3467s.6611.6094.8506,1.1338c.1885.5244.2832,1.2266.2832,2.1045v.6104h-3.9824c.0098.5762.0566,1.0488.1416,1.417s.2266.6426.4258.8223c.1982.1797.4668.2686.8076.2686.1982,0,.373-.0322.5244-.0986.1504-.0664.2812-.165.3896-.2979.1084-.1318.1934-.3027.2549-.5098.0615-.208.0967-.4541.1064-.7373h1.3037c-.0098.4443-.0703.8389-.1836,1.1836-.1143.3447-.2812.6309-.5039.8574-.2217.2266-.4932.3994-.8145.5166-.3213.1182-.6855.1777-1.0918.1777ZM251.7312,199.7715h2.5928c0-.3965-.0234-.7344-.0703-1.0137-.0479-.2783-.1182-.5078-.2129-.6865-.0947-.1797-.2197-.3096-.375-.3906-.1562-.0801-.3428-.1201-.5605-.1201-.3301,0-.5928.0879-.7861.2627-.1943.1748-.3379.4248-.4326.751s-.1465.7246-.1553,1.1973Z"/><path d="M258.4061,204.2646c-.3496,0-.6211-.0732-.8145-.2197-.1943-.1465-.3262-.3477-.3975-.6025-.0703-.2549-.1055-.5332-.1055-.8359v-4.8613h-.667v-1.1055h.6953l.2402-2.126h1.0488v2.126h1.0068v1.1055h-1.0068v4.7617c0,.2178.0332.3779.0996.4824.0664.1035.1846.1553.3545.1553h.5527v.9072c-.1045.0381-.2148.0732-.333.1064s-.2344.0586-.3477.0781c-.1133.0186-.2217.0283-.3262.0283Z"/><path d="M262.0057,204.2646c-.2549,0-.4961-.0381-.7227-.1133-.2266-.0762-.4277-.1934-.6025-.3545-.1748-.1602-.3115-.3711-.4102-.6309-.0996-.2598-.1494-.5742-.1494-.9424,0-.4062.0732-.7656.2197-1.0771s.3711-.5762.6738-.7939c.3018-.2168.6914-.3828,1.1689-.4961.4766-.1133,1.0371-.1699,1.6797-.1699v-.9639c0-.2451-.0361-.4531-.1064-.623-.0713-.1709-.1846-.3027-.3398-.3975-.1562-.0938-.3623-.1416-.6172-.1416-.3115,0-.5479.0547-.708.1631-.1611.1084-.2695.25-.3262.4248-.0566.1758-.085.3711-.085.5889v.1416h-1.2617c-.0098-.0469-.0146-.0928-.0146-.1348v-.1484c0-.501.1064-.9102.3193-1.2266s.5029-.5459.8721-.6875c.3682-.1416.7881-.2119,1.2607-.2119.4824,0,.8955.0732,1.2402.2197s.6123.3848.8008.7148c.1895.3311.2832.7754.2832,1.333v3.9258c0,.1611.0361.2812.1064.3613.0713.0801.1631.1201.2764.1201h.4258v.8936c-.123.0566-.2676.1064-.4326.1484-.165.043-.3428.0635-.5312.0635-.2266,0-.4141-.0449-.5596-.1338-.1475-.0898-.2607-.2148-.3408-.376-.0801-.1602-.1348-.335-.1631-.5244h-.0703c-.123.1982-.2725.3779-.4463.5381-.1758.1611-.3809.2861-.6172.376s-.5098.1348-.8223.1348ZM262.4314,203.1445c.1885,0,.3682-.04.5381-.1201.1709-.0801.3213-.1982.4541-.3545.1318-.1553.2383-.3467.3184-.5742.0801-.2266.1211-.4863.1211-.7793v-.7227c-.5771,0-1.04.0586-1.3896.1768s-.5996.2861-.751.5039c-.1514.2168-.2266.4766-.2266.7793,0,.2363.0352.4365.1064.6025.0703.165.1768.2881.3184.3682s.3125.1201.5107.1201Z"/><path d="M272.367,204.2646c-.8223,0-1.5-.1816-2.0342-.5459-.5342-.3633-.9258-.916-1.1768-1.6582-.25-.7412-.375-1.6846-.375-2.8271,0-1.7295.3115-3,.9355-3.8125.623-.8125,1.5537-1.2197,2.792-1.2197.6895,0,1.2773.1328,1.7646.3975.4863.2646.8623.6758,1.127,1.2324.2637.5576.3965,1.2715.3965,2.1406h-1.4453c0-.5391-.0693-.9971-.2061-1.375s-.3447-.6611-.623-.8506c-.2793-.1885-.6357-.2832-1.0703-.2832-.4727,0-.8721.1201-1.1982.3613-.3252.2412-.5693.6143-.7295,1.1201-.1611.5049-.2412,1.1553-.2412,1.9482v.7236c0,.7842.0781,1.4268.2344,1.9268.1553.501.3916.8701.708,1.1055.3164.2363.7158.3545,1.1982.3545.4248,0,.7842-.0918,1.0771-.2764.293-.1836.5117-.46.6592-.8291.1465-.3682.2197-.8311.2197-1.3887h1.417c0,.8691-.1416,1.5801-.4248,2.1328-.2842.5527-.6807.9619-1.1914,1.2266-.5098.2637-1.1143.3965-1.8135.3965Z"/><path d="M279.5379,204.2646c-.6045,0-1.1123-.1328-1.5234-.3965-.4111-.2646-.7178-.6855-.9209-1.2617s-.3047-1.3232-.3047-2.2393c0-.9258.1016-1.6748.3047-2.2471.2031-.5713.5098-.9893.9209-1.2539s.9189-.3965,1.5234-.3965,1.1133.1318,1.5244.3965c.4102.2646.7197.6826.9277,1.2539.208.5723.3115,1.3213.3115,2.2471,0,.916-.1035,1.6631-.3115,2.2393s-.5176.9971-.9277,1.2617c-.4111.2637-.9199.3965-1.5244.3965ZM279.5379,203.1445c.3311,0,.5957-.082.7939-.248.1982-.165.3477-.4316.4463-.8008.0996-.3682.1494-.8496.1494-1.4453v-.5674c0-.5947-.0498-1.0771-.1494-1.4453-.0986-.3682-.248-.6377-.4463-.8076s-.4629-.2549-.7939-.2549c-.3213,0-.5859.085-.793.2549-.208.1699-.3574.4395-.4473.8076s-.1338.8506-.1338,1.4453v.5674c0,.5957.0439,1.0771.1338,1.4453.0898.3691.2393.6357.4473.8008.207.166.4717.248.793.248Z"/><path d="M283.5486,204.0947v-7.4551h1.1064l.0986.9775h.085c.1328-.2646.2861-.4814.4609-.6514.1748-.1709.373-.2959.5947-.376.2227-.0801.4609-.1201.7158-.1201.3975,0,.7275.0869.9922.2617s.4541.4697.5674.8857h.0703c.1426-.2646.2979-.4814.4678-.6514.1709-.1709.3662-.2959.5889-.376.2217-.0801.4648-.1201.7295-.1201.3594,0,.666.0684.9209.2051.2559.1367.4512.3564.5889.6592.1367.3027.2051.7041.2051,1.2051v5.5557h-1.3184v-5.2441c0-.1895-.0166-.3564-.0488-.5029-.0332-.1465-.085-.2695-.1562-.3691-.0713-.0986-.1631-.1748-.2764-.2266s-.2461-.0781-.3965-.0781c-.2363,0-.4473.0781-.6309.2344-.1846.1553-.3311.3848-.4395.6875-.1084.3018-.1631.6748-.1631,1.1191v4.3799h-1.3184v-5.2441c0-.1895-.0166-.3564-.0498-.5029s-.082-.2695-.1484-.3691c-.0664-.0986-.1562-.1748-.2695-.2266s-.25-.0781-.4111-.0781c-.2363,0-.4482.0781-.6377.2344-.1885.1553-.335.3848-.4395.6875-.1035.3018-.1553.6748-.1553,1.1191v4.3799h-1.333Z"/><path d="M293.2146,204.0947v-7.4551h1.1064l.0986.9775h.085c.1328-.2646.2861-.4814.4609-.6514.1748-.1709.373-.2959.5947-.376.2227-.0801.4609-.1201.7158-.1201.3975,0,.7275.0869.9922.2617s.4541.4697.5674.8857h.0703c.1426-.2646.2979-.4814.4678-.6514.1709-.1709.3662-.2959.5889-.376.2217-.0801.4648-.1201.7295-.1201.3594,0,.666.0684.9209.2051.2559.1367.4512.3564.5889.6592.1367.3027.2051.7041.2051,1.2051v5.5557h-1.3184v-5.2441c0-.1895-.0166-.3564-.0488-.5029-.0332-.1465-.085-.2695-.1562-.3691-.0713-.0986-.1631-.1748-.2764-.2266s-.2461-.0781-.3965-.0781c-.2363,0-.4473.0781-.6309.2344-.1846.1553-.3311.3848-.4395.6875-.1084.3018-.1631.6748-.1631,1.1191v4.3799h-1.3184v-5.2441c0-.1895-.0166-.3564-.0498-.5029s-.082-.2695-.1484-.3691c-.0664-.0986-.1562-.1748-.2695-.2266s-.25-.0781-.4111-.0781c-.2363,0-.4482.0781-.6377.2344-.1885.1553-.335.3848-.4395.6875-.1035.3018-.1553.6748-.1553,1.1191v4.3799h-1.333Z"/><path d="M304.4402,204.2646c-.2549,0-.4961-.0381-.7227-.1133-.2266-.0762-.4277-.1934-.6025-.3545-.1748-.1602-.3115-.3711-.4111-.6309s-.1484-.5742-.1484-.9424c0-.4062.0723-.7656.2197-1.0771.1465-.3115.3701-.5762.6729-.7939.3027-.2168.6924-.3828,1.1689-.4961.4775-.1133,1.0371-.1699,1.6797-.1699v-.9639c0-.2451-.0352-.4531-.1064-.623-.0703-.1709-.1836-.3027-.3398-.3975-.1562-.0938-.3613-.1416-.6162-.1416-.3125,0-.5488.0547-.709.1631-.1611.1084-.2695.25-.3262.4248-.0566.1758-.085.3711-.085.5889v.1416h-1.2617c-.0088-.0469-.0137-.0928-.0137-.1348v-.1484c0-.501.1064-.9102.3184-1.2266.2129-.3164.5039-.5459.8721-.6875s.7891-.2119,1.2617-.2119c.4814,0,.8945.0732,1.2402.2197.3447.1465.6113.3848.8008.7148.1885.3311.2832.7754.2832,1.333v3.9258c0,.1611.0352.2812.1064.3613.0703.0801.1631.1201.2764.1201h.4248v.8936c-.123.0566-.2666.1064-.4316.1484-.166.043-.3428.0635-.5322.0635-.2266,0-.4131-.0449-.5596-.1338-.1465-.0898-.2598-.2148-.3398-.376-.0811-.1602-.1348-.335-.1631-.5244h-.0713c-.123.1982-.2715.3779-.4463.5381-.1748.1611-.3809.2861-.6162.376-.2363.0898-.5107.1348-.8223.1348ZM304.865,203.1445c.1895,0,.3691-.04.5391-.1201s.3213-.1982.4531-.3545c.1328-.1553.2393-.3467.3193-.5742.0801-.2266.1201-.4863.1201-.7793v-.7227c-.5762,0-1.0391.0586-1.3887.1768s-.6006.2861-.751.5039c-.1514.2168-.2275.4766-.2275.7793,0,.2363.0361.4365.1064.6025.0713.165.1777.2881.3193.3682s.3115.1201.5098.1201Z"/><path d="M309.2303,204.0947v-7.4551h1.1064l.0986.9775h.085c.1328-.2646.291-.4814.4746-.6514.1846-.1709.3926-.2959.624-.376s.4795-.1201.7441-.1201c.3779,0,.6992.0684.9639.2051s.4678.3594.6094.666c.1416.3076.2129.7158.2129,1.2266v5.5273h-1.333v-5.2305c0-.1982-.0186-.3701-.0566-.5166-.0371-.1465-.0947-.2695-.1699-.3691-.0752-.0986-.1729-.1748-.29-.2266-.1182-.0518-.2627-.0781-.4326-.0781-.2461,0-.4678.0781-.666.2344-.1982.1553-.3545.3848-.4678.6875-.1133.3018-.1699.6748-.1699,1.1191v4.3799h-1.333Z"/><path d="M317.5506,204.2646c-.4727,0-.874-.1328-1.2051-.3965-.3311-.2646-.5791-.6855-.7441-1.2617s-.248-1.3369-.248-2.2822c0-.916.0801-1.6553.2412-2.2178.1602-.5625.4043-.9756.7295-1.2402.3262-.2646.7207-.3965,1.1836-.3965.2646,0,.501.0371.709.1133.208.0752.3896.1885.5459.3398.1553.1514.2852.3398.3896.5674h.085v-3.6426h1.3184v10.2471h-1.0635l-.1133-.9785h-.085c-.1416.3408-.3613.6172-.6592.8291-.2979.2129-.6592.3193-1.084.3193ZM317.9617,203.0879c.3018,0,.5449-.0938.7295-.2832.1846-.1885.3213-.4678.4111-.8359.0898-.3691.1348-.8174.1348-1.3467v-.4678c0-.4346-.0312-.8076-.0918-1.1201-.0615-.3115-.1445-.5664-.248-.7646-.1045-.1982-.2393-.3477-.4043-.4463-.165-.0996-.3477-.1494-.5459-.1494-.2832,0-.5146.085-.6943.2549-.1797.1709-.3115.4355-.3965.7939-.085.3594-.1279.832-.1279,1.418v.4951c0,.5674.04,1.0332.1201,1.3965.0801.3643.2129.6309.3975.8008.1836.1699.4229.2549.7158.2549Z"/><path d="M324.0984,204.2646c-.4443,0-.8203-.0547-1.127-.1631s-.5547-.2598-.7441-.4531c-.1895-.1943-.3281-.4258-.418-.6953-.0898-.2686-.1348-.5645-.1348-.8857,0-.0469.002-.0986.0068-.1553s.0117-.1084.0215-.1562h1.2471c-.0088.0566-.0137.1064-.0137.1484v.1211c0,.2549.0469.4727.1416.6514.0947.1797.2285.3145.4043.4043.1738.0898.3848.1348.6299.1348.2363,0,.4395-.043.6094-.1279.1709-.085.3027-.21.3975-.375.0938-.165.1416-.3711.1416-.6172,0-.2637-.0713-.4746-.2129-.6299-.1416-.1562-.3262-.2842-.5527-.3828-.2266-.0996-.4678-.2012-.7227-.3047-.2266-.085-.4561-.1826-.6875-.291s-.4414-.2451-.6309-.4111c-.1885-.165-.3398-.3701-.4531-.6162s-.1699-.5576-.1699-.9355c0-.3398.0566-.6377.1699-.8926.1133-.2559.2764-.4707.4893-.6455.2119-.1748.4629-.3047.751-.3896s.6025-.127.9424-.127c.3594,0,.6777.042.957.127.2783.085.5146.2109.708.376s.3408.3662.4395.6025c.0996.2363.1494.4961.1494.7793,0,.0752-.0029.1514-.0078.2266-.0049.0762-.0117.1416-.0205.1982h-1.2334v-.2979c0-.2168-.04-.3965-.1201-.5381-.0811-.1416-.1963-.248-.3477-.3193-.1514-.0703-.3359-.1055-.5527-.1055-.1797,0-.3359.0205-.4678.0635-.1328.042-.2412.1084-.3262.1982s-.1465.1914-.1836.3047c-.0381.1133-.0576.2363-.0576.3682,0,.2275.0615.4111.1846.5527.123.1426.2861.2578.4893.3477s.4229.1816.6592.2764c.2354.085.4795.1816.7295.291.25.1084.4844.2432.7021.4033.2168.1611.3896.3691.5166.624.1279.2549.1914.5859.1914.9922s-.0615.7559-.1836,1.0488c-.123.293-.2959.5332-.5176.7227-.2227.1895-.4844.3281-.7871.418-.3018.0898-.6377.1348-1.0059.1348Z"/><path d="M243.6883,323.1494v-9.7227h2.1826l1.502,5.8818c.0283.1221.0635.2783.1064.4678.042.1885.085.3799.1279.5732.042.1943.0723.3662.0918.5176h.0996c.0186-.123.0439-.2734.0771-.4531s.0713-.3662.1133-.5605c.043-.1934.083-.375.1211-.5449l1.4883-5.8818h2.1826v9.7227h-1.4463v-5.8682c0-.208.0029-.4316.0078-.6729.0039-.2412.0117-.4727.0205-.6943.0098-.2227.0146-.3945.0146-.5176h-.085c-.0195.1045-.0498.2461-.0918.4248-.043.1797-.0859.3662-.1279.5605-.043.1934-.0879.3662-.1348.5166l-1.6162,6.251h-1.2188l-1.6299-6.251c-.0283-.1133-.0635-.2568-.1064-.4316-.042-.1748-.082-.3594-.1201-.5527-.0381-.1943-.0752-.3662-.1133-.5176h-.085c.0088.1797.0166.3848.0215.6162.0039.2314.0088.459.0137.6807s.0068.418.0068.5879v5.8682h-1.4023Z"/><path d="M255.9187,323.3193c-.6328,0-1.1504-.1348-1.5518-.4043-.4014-.2686-.6973-.6914-.8857-1.2686-.1895-.5762-.2832-1.3174-.2832-2.2246,0-.9355.0986-1.6895.2969-2.2607.1992-.5713.5039-.9873.915-1.2471s.9375-.3896,1.5801-.3896c.5664,0,1.0391.1152,1.417.3467s.6611.6094.8506,1.1338c.1885.5244.2832,1.2266.2832,2.1045v.6104h-3.9824c.0098.5762.0566,1.0488.1416,1.417s.2266.6426.4258.8223c.1982.1797.4668.2686.8076.2686.1982,0,.373-.0322.5244-.0986.1504-.0664.2812-.165.3896-.2979.1084-.1318.1934-.3027.2549-.5098.0615-.208.0967-.4541.1064-.7373h1.3037c-.0098.4443-.0703.8389-.1836,1.1836-.1143.3447-.2812.6309-.5039.8574-.2217.2266-.4932.3994-.8145.5166-.3213.1182-.6855.1777-1.0918.1777ZM254.573,318.8262h2.5928c0-.3965-.0234-.7344-.0703-1.0137-.0479-.2783-.1182-.5078-.2129-.6865-.0947-.1797-.2197-.3096-.375-.3906-.1562-.0801-.3428-.1201-.5605-.1201-.3301,0-.5928.0879-.7861.2627-.1943.1748-.3379.4248-.4326.751s-.1465.7246-.1553,1.1973Z"/><path d="M261.2478,323.3193c-.3496,0-.6211-.0732-.8145-.2197-.1943-.1465-.3262-.3477-.3975-.6025-.0703-.2549-.1055-.5332-.1055-.8359v-4.8613h-.667v-1.1055h.6953l.2402-2.126h1.0488v2.126h1.0068v1.1055h-1.0068v4.7617c0,.2178.0332.3779.0996.4824.0664.1035.1846.1553.3545.1553h.5527v.9072c-.1045.0381-.2148.0732-.333.1064s-.2344.0586-.3477.0781c-.1133.0186-.2217.0283-.3262.0283Z"/><path d="M264.8475,323.3193c-.2549,0-.4961-.0381-.7227-.1133-.2266-.0762-.4277-.1934-.6025-.3545-.1748-.1602-.3115-.3711-.4102-.6309-.0996-.2598-.1494-.5742-.1494-.9424,0-.4062.0732-.7656.2197-1.0771s.3711-.5762.6738-.7939c.3018-.2168.6914-.3828,1.1689-.4961.4766-.1133,1.0371-.1699,1.6797-.1699v-.9639c0-.2451-.0361-.4531-.1064-.623-.0713-.1709-.1846-.3027-.3398-.3975-.1562-.0938-.3623-.1416-.6172-.1416-.3115,0-.5479.0547-.708.1631-.1611.1084-.2695.25-.3262.4248-.0566.1758-.085.3711-.085.5889v.1416h-1.2617c-.0098-.0469-.0146-.0928-.0146-.1348v-.1484c0-.501.1064-.9102.3193-1.2266s.5029-.5459.8721-.6875c.3682-.1416.7881-.2119,1.2607-.2119.4824,0,.8955.0732,1.2402.2197s.6123.3848.8008.7148c.1895.3311.2832.7754.2832,1.333v3.9258c0,.1611.0361.2812.1064.3613.0713.0801.1631.1201.2764.1201h.4258v.8936c-.123.0566-.2676.1064-.4326.1484-.165.043-.3428.0635-.5312.0635-.2266,0-.4141-.0449-.5596-.1338-.1475-.0898-.2607-.2148-.3408-.376-.0801-.1602-.1348-.335-.1631-.5244h-.0703c-.123.1982-.2725.3779-.4463.5381-.1758.1611-.3809.2861-.6172.376s-.5098.1348-.8223.1348ZM265.2732,322.1992c.1885,0,.3682-.04.5381-.1201.1709-.0801.3213-.1982.4541-.3545.1318-.1553.2383-.3467.3184-.5742.0801-.2266.1211-.4863.1211-.7793v-.7227c-.5771,0-1.04.0586-1.3896.1768s-.5996.2861-.751.5039c-.1514.2168-.2266.4766-.2266.7793,0,.2363.0352.4365.1064.6025.0703.165.1768.2881.3184.3682s.3125.1201.5107.1201Z"/><path d="M275.2088,323.3193c-.8223,0-1.5-.1816-2.0342-.5459-.5342-.3633-.9258-.916-1.1768-1.6582-.25-.7412-.375-1.6846-.375-2.8271,0-1.7295.3115-3,.9355-3.8125.623-.8125,1.5537-1.2197,2.792-1.2197.6895,0,1.2773.1328,1.7646.3975.4863.2646.8623.6758,1.127,1.2324.2637.5576.3965,1.2715.3965,2.1406h-1.4453c0-.5391-.0693-.9971-.2061-1.375s-.3447-.6611-.623-.8506c-.2793-.1885-.6357-.2832-1.0703-.2832-.4727,0-.8721.1201-1.1982.3613-.3252.2412-.5693.6143-.7295,1.1201-.1611.5049-.2412,1.1553-.2412,1.9482v.7236c0,.7842.0781,1.4268.2344,1.9268.1553.501.3916.8701.708,1.1055.3164.2363.7158.3545,1.1982.3545.4248,0,.7842-.0918,1.0771-.2764.293-.1836.5117-.46.6592-.8291.1465-.3682.2197-.8311.2197-1.3887h1.417c0,.8691-.1416,1.5801-.4248,2.1328-.2842.5527-.6807.9619-1.1914,1.2266-.5098.2637-1.1143.3965-1.8135.3965Z"/><path d="M282.3797,323.3193c-.6045,0-1.1123-.1328-1.5234-.3965-.4111-.2646-.7178-.6855-.9209-1.2617s-.3047-1.3232-.3047-2.2393c0-.9258.1016-1.6748.3047-2.2471.2031-.5713.5098-.9893.9209-1.2539s.9189-.3965,1.5234-.3965,1.1133.1318,1.5244.3965c.4102.2646.7197.6826.9277,1.2539.208.5723.3115,1.3213.3115,2.2471,0,.916-.1035,1.6631-.3115,2.2393s-.5176.9971-.9277,1.2617c-.4111.2637-.9199.3965-1.5244.3965ZM282.3797,322.1992c.3311,0,.5957-.082.7939-.248.1982-.165.3477-.4316.4463-.8008.0996-.3682.1494-.8496.1494-1.4453v-.5674c0-.5947-.0498-1.0771-.1494-1.4453-.0986-.3682-.248-.6377-.4463-.8076s-.4629-.2549-.7939-.2549c-.3213,0-.5859.085-.793.2549-.208.1699-.3574.4395-.4473.8076s-.1338.8506-.1338,1.4453v.5674c0,.5957.0439,1.0771.1338,1.4453.0898.3691.2393.6357.4473.8008.207.166.4717.248.793.248Z"/><path d="M286.3904,323.1494v-7.4551h1.1064l.0986.9775h.085c.1328-.2646.2861-.4814.4609-.6514.1748-.1709.373-.2959.5947-.376.2227-.0801.4609-.1201.7158-.1201.3975,0,.7275.0869.9922.2617s.4541.4697.5674.8857h.0703c.1426-.2646.2979-.4814.4678-.6514.1709-.1709.3662-.2959.5889-.376.2217-.0801.4648-.1201.7295-.1201.3594,0,.666.0684.9209.2051.2559.1367.4512.3564.5889.6592.1367.3027.2051.7041.2051,1.2051v5.5557h-1.3184v-5.2441c0-.1895-.0166-.3564-.0488-.5029-.0332-.1465-.085-.2695-.1562-.3691-.0713-.0986-.1631-.1748-.2764-.2266s-.2461-.0781-.3965-.0781c-.2363,0-.4473.0781-.6309.2344-.1846.1553-.3311.3848-.4395.6875-.1084.3018-.1631.6748-.1631,1.1191v4.3799h-1.3184v-5.2441c0-.1895-.0166-.3564-.0498-.5029s-.082-.2695-.1484-.3691c-.0664-.0986-.1562-.1748-.2695-.2266s-.25-.0781-.4111-.0781c-.2363,0-.4482.0781-.6377.2344-.1885.1553-.335.3848-.4395.6875-.1035.3018-.1553.6748-.1553,1.1191v4.3799h-1.333Z"/><path d="M296.0564,323.1494v-7.4551h1.1064l.0986.9775h.085c.1328-.2646.2861-.4814.4609-.6514.1748-.1709.373-.2959.5947-.376.2227-.0801.4609-.1201.7158-.1201.3975,0,.7275.0869.9922.2617s.4541.4697.5674.8857h.0703c.1426-.2646.2979-.4814.4678-.6514.1709-.1709.3662-.2959.5889-.376.2217-.0801.4648-.1201.7295-.1201.3594,0,.666.0684.9209.2051.2559.1367.4512.3564.5889.6592.1367.3027.2051.7041.2051,1.2051v5.5557h-1.3184v-5.2441c0-.1895-.0166-.3564-.0488-.5029-.0332-.1465-.085-.2695-.1562-.3691-.0713-.0986-.1631-.1748-.2764-.2266s-.2461-.0781-.3965-.0781c-.2363,0-.4473.0781-.6309.2344-.1846.1553-.3311.3848-.4395.6875-.1084.3018-.1631.6748-.1631,1.1191v4.3799h-1.3184v-5.2441c0-.1895-.0166-.3564-.0498-.5029s-.082-.2695-.1484-.3691c-.0664-.0986-.1562-.1748-.2695-.2266s-.25-.0781-.4111-.0781c-.2363,0-.4482.0781-.6377.2344-.1885.1553-.335.3848-.4395.6875-.1035.3018-.1553.6748-.1553,1.1191v4.3799h-1.333Z"/><path d="M307.282,323.3193c-.2549,0-.4961-.0381-.7227-.1133-.2266-.0762-.4277-.1934-.6025-.3545-.1748-.1602-.3115-.3711-.4111-.6309s-.1484-.5742-.1484-.9424c0-.4062.0723-.7656.2197-1.0771.1465-.3115.3701-.5762.6729-.7939.3027-.2168.6924-.3828,1.1689-.4961.4775-.1133,1.0371-.1699,1.6797-.1699v-.9639c0-.2451-.0352-.4531-.1064-.623-.0703-.1709-.1836-.3027-.3398-.3975-.1562-.0938-.3613-.1416-.6162-.1416-.3125,0-.5488.0547-.709.1631-.1611.1084-.2695.25-.3262.4248-.0566.1758-.085.3711-.085.5889v.1416h-1.2617c-.0088-.0469-.0137-.0928-.0137-.1348v-.1484c0-.501.1064-.9102.3184-1.2266.2129-.3164.5039-.5459.8721-.6875s.7891-.2119,1.2617-.2119c.4814,0,.8945.0732,1.2402.2197.3447.1465.6113.3848.8008.7148.1885.3311.2832.7754.2832,1.333v3.9258c0,.1611.0352.2812.1064.3613.0703.0801.1631.1201.2764.1201h.4248v.8936c-.123.0566-.2666.1064-.4316.1484-.166.043-.3428.0635-.5322.0635-.2266,0-.4131-.0449-.5596-.1338-.1465-.0898-.2598-.2148-.3398-.376-.0811-.1602-.1348-.335-.1631-.5244h-.0713c-.123.1982-.2715.3779-.4463.5381-.1748.1611-.3809.2861-.6162.376-.2363.0898-.5107.1348-.8223.1348ZM307.7068,322.1992c.1895,0,.3691-.04.5391-.1201s.3213-.1982.4531-.3545c.1328-.1553.2393-.3467.3193-.5742.0801-.2266.1201-.4863.1201-.7793v-.7227c-.5762,0-1.0391.0586-1.3887.1768s-.6006.2861-.751.5039c-.1514.2168-.2275.4766-.2275.7793,0,.2363.0361.4365.1064.6025.0713.165.1777.2881.3193.3682s.3115.1201.5098.1201Z"/><path d="M312.0721,323.1494v-7.4551h1.1064l.0986.9775h.085c.1328-.2646.291-.4814.4746-.6514.1846-.1709.3926-.2959.624-.376s.4795-.1201.7441-.1201c.3779,0,.6992.0684.9639.2051s.4678.3594.6094.666c.1416.3076.2129.7158.2129,1.2266v5.5273h-1.333v-5.2305c0-.1982-.0186-.3701-.0566-.5166-.0371-.1465-.0947-.2695-.1699-.3691-.0752-.0986-.1729-.1748-.29-.2266-.1182-.0518-.2627-.0781-.4326-.0781-.2461,0-.4678.0781-.666.2344-.1982.1553-.3545.3848-.4678.6875-.1133.3018-.1699.6748-.1699,1.1191v4.3799h-1.333Z"/><path d="M320.3924,323.3193c-.4727,0-.874-.1328-1.2051-.3965-.3311-.2646-.5791-.6855-.7441-1.2617s-.248-1.3369-.248-2.2822c0-.916.0801-1.6553.2412-2.2178.1602-.5625.4043-.9756.7295-1.2402.3262-.2646.7207-.3965,1.1836-.3965.2646,0,.501.0371.709.1133.208.0752.3896.1885.5459.3398.1553.1514.2852.3398.3896.5674h.085v-3.6426h1.3184v10.2471h-1.0635l-.1133-.9785h-.085c-.1416.3408-.3613.6172-.6592.8291-.2979.2129-.6592.3193-1.084.3193ZM320.8035,322.1426c.3018,0,.5449-.0938.7295-.2832.1846-.1885.3213-.4678.4111-.8359.0898-.3691.1348-.8174.1348-1.3467v-.4678c0-.4346-.0312-.8076-.0918-1.1201-.0615-.3115-.1445-.5664-.248-.7646-.1045-.1982-.2393-.3477-.4043-.4463-.165-.0996-.3477-.1494-.5459-.1494-.2832,0-.5146.085-.6943.2549-.1797.1709-.3115.4355-.3965.7939-.085.3594-.1279.832-.1279,1.418v.4951c0,.5674.04,1.0332.1201,1.3965.0801.3643.2129.6309.3975.8008.1836.1699.4229.2549.7158.2549Z"/></svg>