<?xml version="1.0" encoding="UTF-8"?><svg id="a" xmlns="http://www.w3.org/2000/svg" width="200mm" height="130mm" viewBox="0 0 566.93 368.5"><rect y=".16" width="567.15" height="368.35" fill="#1c916f"/><rect x="28.35" y="56.69" width="226.77" height="28.35" fill="#dbc07b" stroke="#312609" stroke-miterlimit="10" stroke-width="1.42"/><path d="M43.89,67.76h-2.17v7.8h2.17v.98h-5.58v-.98h2.17v-7.8h-2.17v-.99h5.58v.99Z"/><path d="M52.26,75.32c-.62.92-1.5,1.37-2.66,1.37s-2.05-.45-2.66-1.35-.92-2.12-.92-3.67c0-.99.14-1.87.41-2.64.27-.77.68-1.36,1.22-1.79.54-.42,1.19-.64,1.96-.64,1.15,0,2.04.46,2.66,1.37.62.91.93,2.14.93,3.68s-.31,2.74-.93,3.66ZM51.36,68.65c-.37-.67-.95-1.01-1.76-1.01s-1.39.34-1.76,1.01c-.37.68-.55,1.68-.55,3.01s.19,2.32.56,2.98.96,1,1.75,1,1.39-.33,1.76-1c.37-.67.55-1.67.55-3s-.18-2.33-.55-3Z"/><rect x="283.46" y="56.69" width="226.77" height="28.35" fill="#e7d5a7" stroke="#312609" stroke-miterlimit="10" stroke-width="1.42"/><path d="M299.15,75.32c-.28.43-.69.77-1.23,1.01-.54.24-1.18.36-1.91.36s-1.35-.11-1.93-.32c-.58-.21-1.08-.52-1.5-.91l.74-.84c.36.34.76.6,1.2.78s.94.27,1.51.27c.64,0,1.18-.16,1.62-.47.43-.31.65-.76.65-1.35,0-.33-.06-.6-.18-.82-.12-.22-.34-.41-.64-.58-.31-.17-.74-.33-1.3-.5-1.06-.31-1.85-.68-2.37-1.1s-.78-.99-.78-1.72c0-.48.13-.92.4-1.3.26-.39.64-.69,1.12-.9.48-.21,1.03-.32,1.64-.32s1.22.09,1.72.28c.5.19.97.47,1.4.84l-.74.79c-.67-.59-1.45-.88-2.34-.88-.57,0-1.04.12-1.4.37s-.55.6-.55,1.08c0,.28.08.52.23.72.15.2.4.38.75.55.35.17.84.35,1.47.52.92.26,1.62.61,2.12,1.03.5.43.74,1.06.74,1.9,0,.57-.14,1.07-.42,1.5Z"/><path d="M305.49,76.58c-.29.86-.69,1.54-1.2,2.06-.51.51-1.22.81-2.14.91l-.17-.95c.5-.08.9-.22,1.2-.39.3-.18.53-.39.7-.65s.33-.6.47-1.01h-.4l-2.59-7.47h1.26l2.14,6.56,2.11-6.56h1.23l-2.61,7.51Z"/><path d="M310.39,69.07h1.02l.1,1.05c.29-.38.66-.67,1.11-.89.45-.21.9-.32,1.35-.32,1.4,0,2.1.74,2.1,2.21v5.41h-1.19v-4.54c0-.56-.03-.98-.09-1.28s-.18-.51-.36-.65-.45-.21-.82-.21c-.41,0-.79.12-1.15.37-.36.25-.65.54-.88.88v5.43h-1.19v-7.47Z"/><path d="M323.91,76.55c-.36.09-.73.14-1.08.14-.78,0-1.4-.21-1.84-.62-.44-.41-.67-.95-.67-1.62v-4.45h-1.71v-.94h1.71v-1.69l1.19-.14v1.83h2.59l-.16.94h-2.44v4.44c0,.43.11.74.34.95.23.21.59.31,1.09.31s.99-.12,1.43-.35l.47.81c-.26.17-.57.3-.93.4Z"/><path d="M332.9,75.55c.09.14.25.24.47.3l-.3.85c-.73-.09-1.18-.45-1.36-1.06-.26.34-.6.6-1,.78-.4.18-.85.27-1.34.27-.75,0-1.33-.21-1.76-.62-.43-.42-.64-.97-.64-1.67,0-.77.3-1.36.9-1.77.6-.42,1.46-.62,2.59-.62h1.11v-.61c0-.53-.15-.91-.45-1.14-.3-.23-.74-.35-1.32-.35s-1.21.13-1.94.38l-.33-.91c.88-.31,1.7-.47,2.45-.47.91,0,1.6.21,2.08.64.48.43.72,1.02.72,1.77v3.59c0,.29.05.51.14.65ZM330.72,75.51c.33-.19.61-.45.83-.78v-1.91h-1.08c-.79,0-1.37.13-1.71.4s-.52.65-.52,1.16c0,.94.48,1.42,1.43,1.42.37,0,.72-.09,1.06-.28Z"/><path d="M335.28,76.54l2.75-3.94-2.42-3.53h1.42l1.73,2.78,1.74-2.78h1.38l-2.42,3.47,2.75,4h-1.45l-2.05-3.2-2.06,3.2h-1.36Z"/><rect x="28.35" y="99.21" width="226.77" height="28.35" fill="#dbc07b" stroke="#312609" stroke-miterlimit="10" stroke-width="1.42"/><path d="M39.85,113.6h3.63v1.01h-3.63v3.46h4.45v.99h-5.67v-9.77h5.54l-.14,1.02h-4.18v3.29Z"/><path d="M46.77,111.59h1.02l.1,1.05c.29-.38.66-.67,1.11-.89.45-.21.9-.32,1.35-.32,1.4,0,2.1.74,2.1,2.21v5.41h-1.19v-4.54c0-.56-.03-.98-.09-1.28s-.18-.51-.36-.65-.45-.21-.82-.21c-.41,0-.79.12-1.15.37-.36.25-.65.54-.88.88v5.43h-1.19v-7.47Z"/><path d="M60.6,117.54l.57.78c-.31.27-.7.49-1.16.65-.46.16-.91.24-1.35.24-1.11,0-1.97-.35-2.59-1.04-.62-.69-.93-1.63-.93-2.81,0-.75.14-1.42.42-2.01.28-.6.68-1.06,1.21-1.4.53-.34,1.16-.51,1.88-.51.96,0,1.79.29,2.49.88l-.58.78c-.65-.43-1.29-.65-1.93-.65-.67,0-1.21.25-1.61.74-.4.5-.6,1.22-.6,2.18s.2,1.67.6,2.13c.4.47.94.7,1.62.7s1.3-.22,1.94-.65Z"/><path d="M69,112.47c.55.69.83,1.64.83,2.84s-.28,2.11-.84,2.83c-.56.71-1.35,1.07-2.37,1.07s-1.82-.35-2.38-1.04c-.56-.69-.84-1.64-.84-2.84s.28-2.13.84-2.83c.56-.71,1.36-1.06,2.39-1.06s1.82.35,2.37,1.04ZM65.17,113.13c-.32.48-.48,1.21-.48,2.2s.16,1.71.48,2.19c.32.48.8.72,1.45.72s1.14-.24,1.45-.72.48-1.21.48-2.2-.16-1.71-.48-2.19c-.32-.48-.8-.72-1.44-.72s-1.14.24-1.46.72Z"/><path d="M77.95,108.58v10.47h-1.05l-.11-.98c-.27.38-.59.66-.95.85-.36.19-.75.28-1.16.28-.94,0-1.66-.34-2.13-1.03-.48-.69-.72-1.64-.72-2.85,0-.75.12-1.42.35-2.01.24-.59.57-1.05,1.01-1.39s.96-.5,1.55-.5c.82,0,1.49.3,2.01.89v-3.88l1.19.14ZM73.62,113.13c-.34.49-.5,1.22-.5,2.2s.15,1.69.46,2.19c.31.5.75.74,1.34.74.71,0,1.32-.4,1.84-1.19v-3.71c-.21-.31-.46-.55-.75-.72-.29-.17-.61-.25-.95-.25-.62,0-1.1.25-1.44.74Z"/><path d="M84.57,118.11h2.1v.95h-5.58v-.95h2.3v-5.57h-2.23v-.95h3.42v6.52ZM84.26,108.33c.16.16.24.36.24.6s-.08.45-.24.6c-.16.16-.37.23-.64.23s-.46-.08-.62-.23c-.16-.16-.23-.36-.23-.6s.08-.45.23-.6c.16-.16.36-.23.62-.23s.48.08.64.23Z"/><path d="M89.29,111.59h1.02l.1,1.05c.29-.38.66-.67,1.11-.89.45-.21.9-.32,1.35-.32,1.4,0,2.1.74,2.1,2.21v5.41h-1.19v-4.54c0-.56-.03-.98-.09-1.28s-.18-.51-.36-.65-.45-.21-.82-.21c-.41,0-.79.12-1.15.37-.36.25-.65.54-.88.88v5.43h-1.19v-7.47Z"/><path d="M104.23,111.93c-.28.09-.59.15-.92.18-.33.02-.75.04-1.26.04.87.4,1.3,1.03,1.3,1.88,0,.76-.25,1.37-.75,1.84-.5.47-1.19.7-2.06.7-.44,0-.82-.05-1.12-.16-.11.08-.21.19-.28.33s-.11.26-.11.4c0,.43.33.64.99.64h1.35c.49,0,.94.09,1.34.26.4.17.72.42.95.73.23.31.35.66.35,1.03,0,.73-.31,1.29-.93,1.68s-1.5.59-2.63.59-1.97-.18-2.44-.54c-.47-.36-.71-.93-.71-1.72h1.08c0,.31.06.56.18.74.12.18.33.32.62.41.3.09.72.13,1.27.13.8,0,1.4-.1,1.78-.31.38-.21.57-.52.57-.92,0-.34-.16-.6-.47-.79-.31-.18-.71-.28-1.2-.28h-1.33c-.61,0-1.08-.13-1.4-.4-.32-.27-.48-.61-.48-1.01,0-.24.07-.47.21-.7.14-.23.34-.43.61-.6-.42-.22-.74-.49-.94-.83-.2-.33-.3-.74-.3-1.23s.12-.95.38-1.34c.25-.39.6-.7,1.05-.92s.97-.33,1.55-.33c.85,0,1.5-.05,1.94-.14.44-.09.93-.25,1.46-.48l.35,1.12ZM99.15,112.77c-.29.31-.44.73-.44,1.25s.15.95.45,1.27c.3.32.74.48,1.33.48.53,0,.93-.15,1.21-.46.28-.31.42-.74.42-1.3,0-1.13-.55-1.7-1.66-1.7-.58,0-1.01.15-1.3.46Z"/><rect x="28.35" y="141.73" width="226.77" height="28.35" fill="#dbc07b" stroke="#312609" stroke-miterlimit="10" stroke-width="1.42"/><path d="M39,153c0,.07.03.48.08,1.23.06.76.08,1.57.08,2.45v4.89h-1.15v-9.76h1.67l3.5,8.62-.03-.51c-.09-1.16-.14-2.23-.14-3.22v-4.89h1.15v9.76h-1.73l-3.44-8.57Z"/><path d="M52.27,160.59c.09.14.25.24.47.3l-.3.85c-.73-.09-1.18-.45-1.36-1.06-.26.34-.6.6-1,.78-.4.18-.85.27-1.34.27-.75,0-1.33-.21-1.76-.62-.43-.42-.65-.97-.65-1.67,0-.77.3-1.36.9-1.77.6-.42,1.46-.62,2.59-.62h1.11v-.61c0-.53-.15-.91-.45-1.14-.3-.23-.74-.35-1.32-.35s-1.21.13-1.94.38l-.33-.91c.88-.31,1.7-.47,2.45-.47.91,0,1.6.21,2.08.64.48.43.72,1.02.72,1.77v3.59c0,.29.05.51.14.65ZM50.09,160.55c.34-.19.61-.45.83-.78v-1.91h-1.08c-.79,0-1.37.13-1.71.4s-.52.65-.52,1.16c0,.95.48,1.42,1.43,1.42.37,0,.72-.09,1.06-.28Z"/><path d="M61.23,154.4c.27.3.4.84.4,1.62v5.56h-1.09v-5.36c0-.52-.03-.87-.1-1.06-.07-.18-.23-.28-.48-.28-.48,0-.92.3-1.3.89v5.8h-1.11v-5.36c0-.52-.03-.87-.1-1.06-.07-.18-.23-.28-.48-.28-.48,0-.92.3-1.3.89v5.8h-1.09v-7.47h.92l.08.88c.23-.33.47-.59.72-.77s.55-.27.9-.27c.7,0,1.15.33,1.35.99.23-.32.47-.57.72-.74.26-.17.56-.25.92-.25.43,0,.77.15,1.04.45Z"/><path d="M65.37,160.11c.4.42.91.62,1.52.62.37,0,.71-.05,1.01-.16s.64-.28.98-.5l.55.79c-.35.27-.75.49-1.2.64-.45.15-.9.23-1.35.23-1.08,0-1.92-.35-2.52-1.06s-.9-1.65-.9-2.83c0-.75.13-1.42.4-2,.26-.59.64-1.05,1.13-1.39.49-.33,1.06-.5,1.71-.5.94,0,1.69.33,2.23.99.54.66.81,1.55.81,2.69,0,.22,0,.43-.03.64h-5.02c.03.82.24,1.44.65,1.86ZM65.34,155.54c-.36.41-.56,1.01-.61,1.81h3.88c0-.78-.18-1.38-.51-1.8-.33-.42-.78-.62-1.36-.62s-1.04.21-1.4.62Z"/><path d="M77.5,151.89c.43.16.86.39,1.28.72l-.69.81c-.58-.48-1.26-.72-2.06-.72-.88,0-1.59.32-2.15.96s-.83,1.65-.83,3.04.27,2.39.81,3.03,1.26.96,2.15.96c.49,0,.91-.07,1.26-.21s.69-.34,1.01-.59l.64.79c-.73.71-1.7,1.06-2.92,1.06-.8,0-1.53-.2-2.17-.59-.64-.39-1.15-.97-1.52-1.72-.37-.76-.55-1.67-.55-2.74s.19-1.97.56-2.73c.37-.76.88-1.33,1.52-1.72s1.34-.58,2.1-.58c.6,0,1.12.08,1.56.23Z"/><path d="M86.01,154.99c.55.69.83,1.64.83,2.84s-.28,2.11-.84,2.83c-.56.71-1.35,1.07-2.37,1.07s-1.82-.35-2.38-1.04c-.56-.69-.84-1.64-.84-2.84s.28-2.13.84-2.83c.56-.71,1.36-1.06,2.39-1.06s1.82.35,2.37,1.04ZM82.18,155.65c-.32.48-.48,1.21-.48,2.2s.16,1.71.48,2.19c.32.48.8.71,1.45.71s1.14-.24,1.45-.71c.32-.48.48-1.21.48-2.2s-.16-1.71-.48-2.19c-.32-.48-.8-.72-1.44-.72s-1.14.24-1.46.72Z"/><path d="M89.29,154.11h1.02l.1,1.05c.29-.38.66-.67,1.11-.89.45-.21.9-.32,1.35-.32,1.4,0,2.1.74,2.1,2.21v5.41h-1.19v-4.54c0-.56-.03-.98-.09-1.28s-.18-.51-.36-.65-.45-.21-.82-.21c-.41,0-.79.12-1.15.37-.36.25-.65.54-.88.88v5.43h-1.19v-7.47Z"/><path d="M104.23,151.36l-.38.89c-.47-.21-1.01-.31-1.6-.31-1.04,0-1.56.41-1.56,1.23v1.52h2.52l-.13.95h-2.4v5.94h-1.2v-5.94h-1.77v-.95h1.77v-1.49c0-.67.26-1.21.77-1.62.51-.41,1.16-.62,1.95-.62.71,0,1.38.13,2.03.4Z"/><path d="M109.22,159.73c0,.67.41,1.01,1.23,1.01.39,0,.8-.08,1.25-.25l.31.86c-.47.25-1.06.38-1.77.38-.67,0-1.21-.18-1.61-.55-.4-.37-.6-.87-.6-1.5v-7.62h-2.3v-.95h3.49v8.63Z"/><path d="M118.59,160.62h2.1v.95h-5.58v-.95h2.3v-5.57h-2.23v-.95h3.42v6.52ZM118.27,150.85c.16.16.24.36.24.6s-.08.45-.24.6c-.16.16-.37.23-.64.23s-.46-.08-.62-.23c-.16-.16-.23-.36-.23-.6s.08-.45.23-.6c.16-.16.36-.23.62-.23s.48.08.64.23Z"/><path d="M128.63,160.06l.57.78c-.31.27-.7.49-1.16.65-.46.16-.91.24-1.35.24-1.11,0-1.97-.35-2.59-1.04-.62-.69-.93-1.63-.93-2.81,0-.75.14-1.42.42-2.01.28-.59.68-1.06,1.21-1.4.53-.34,1.16-.51,1.88-.51.96,0,1.79.29,2.49.88l-.58.78c-.65-.43-1.29-.65-1.93-.65-.67,0-1.21.25-1.61.74-.4.5-.6,1.22-.6,2.18s.2,1.67.6,2.13c.4.47.94.7,1.62.7s1.3-.22,1.94-.65Z"/><path d="M136.82,161.59c-.36.09-.73.14-1.08.14-.78,0-1.4-.21-1.84-.62-.44-.41-.67-.95-.67-1.62v-4.45h-1.71v-.94h1.71v-1.69l1.19-.14v1.83h2.59l-.16.94h-2.44v4.44c0,.43.11.74.34.95.23.21.59.31,1.09.31s.99-.12,1.43-.35l.47.81c-.26.17-.56.3-.93.4Z"/><rect x="28.35" y="184.25" width="226.77" height="28.35" fill="#dbc07b" stroke="#312609" stroke-miterlimit="10" stroke-width="1.42"/><path d="M44.04,202.88c-.28.43-.69.77-1.23,1.01-.54.24-1.18.36-1.91.36s-1.35-.11-1.94-.32c-.58-.21-1.08-.52-1.5-.91l.74-.84c.36.34.76.6,1.2.78s.94.27,1.51.27c.64,0,1.18-.16,1.62-.47.43-.31.65-.76.65-1.35,0-.33-.06-.6-.18-.82-.12-.22-.34-.41-.65-.58-.31-.17-.74-.33-1.3-.5-1.06-.31-1.85-.68-2.37-1.1-.52-.42-.78-.99-.78-1.72,0-.48.13-.92.4-1.3.26-.39.64-.69,1.12-.9s1.03-.32,1.64-.32,1.22.09,1.72.28c.51.19.97.47,1.4.84l-.74.79c-.67-.59-1.45-.88-2.34-.88-.57,0-1.03.12-1.4.37-.37.25-.55.61-.55,1.08,0,.28.08.52.23.72.15.2.4.38.75.55.35.17.84.35,1.47.52.92.26,1.62.61,2.12,1.04.5.42.74,1.06.74,1.9,0,.57-.14,1.07-.42,1.5Z"/><path d="M50.56,203.14h2.1v.95h-5.58v-.95h2.3v-5.57h-2.23v-.95h3.42v6.52ZM50.24,193.37c.16.16.24.36.24.6s-.08.45-.24.6-.37.23-.64.23-.46-.08-.62-.23c-.16-.16-.23-.36-.23-.6s.08-.45.23-.6c.16-.16.36-.23.62-.23s.48.08.64.23Z"/><path d="M61.71,196.97c-.28.09-.59.15-.92.18-.33.02-.75.04-1.26.04.87.4,1.3,1.03,1.3,1.88,0,.76-.25,1.37-.75,1.84-.5.47-1.19.7-2.06.7-.44,0-.82-.05-1.12-.16-.11.08-.21.19-.28.33-.07.13-.11.26-.11.4,0,.42.33.64.99.64h1.35c.49,0,.94.09,1.34.26.4.17.72.42.95.73s.35.66.35,1.03c0,.73-.31,1.29-.93,1.68-.62.39-1.5.59-2.63.59s-1.97-.18-2.44-.54-.71-.93-.71-1.71h1.08c0,.31.06.56.18.74.12.18.33.32.62.41.3.09.72.13,1.27.13.8,0,1.4-.1,1.78-.31.38-.21.57-.51.57-.92,0-.34-.16-.6-.47-.79-.31-.18-.71-.28-1.2-.28h-1.33c-.61,0-1.08-.13-1.4-.4-.32-.27-.48-.61-.48-1.01,0-.24.07-.47.21-.7.14-.23.34-.43.61-.6-.42-.22-.74-.49-.94-.83s-.3-.74-.3-1.23.12-.95.38-1.34c.25-.39.6-.7,1.05-.92.45-.22.97-.33,1.55-.33.85,0,1.5-.05,1.94-.14.44-.09.93-.25,1.46-.48l.35,1.12ZM56.64,197.81c-.29.31-.44.73-.44,1.25s.15.95.45,1.27c.3.32.74.48,1.33.48.53,0,.93-.15,1.21-.46.28-.31.42-.74.42-1.3,0-1.13-.55-1.7-1.66-1.7-.58,0-1.01.15-1.3.46Z"/><path d="M63.78,196.62h1.02l.1,1.05c.29-.38.66-.67,1.11-.89s.9-.32,1.35-.32c1.4,0,2.1.74,2.1,2.21v5.41h-1.19v-4.54c0-.56-.03-.98-.09-1.28s-.18-.51-.36-.65-.45-.21-.82-.21c-.41,0-.79.12-1.15.37-.36.25-.65.54-.88.88v5.43h-1.19v-7.47Z"/><path d="M77.78,203.11c.09.14.25.24.47.3l-.3.85c-.73-.09-1.18-.45-1.36-1.06-.26.34-.6.6-1,.78-.4.18-.85.27-1.34.27-.75,0-1.33-.21-1.76-.62-.43-.42-.65-.97-.65-1.67,0-.76.3-1.36.9-1.77s1.46-.62,2.59-.62h1.11v-.61c0-.53-.15-.91-.45-1.14-.3-.23-.74-.35-1.32-.35s-1.21.13-1.94.38l-.33-.91c.88-.31,1.7-.47,2.45-.47.91,0,1.6.21,2.08.64.48.42.72,1.02.72,1.77v3.59c0,.29.05.51.14.64ZM75.61,203.07c.34-.19.61-.45.83-.78v-1.91h-1.08c-.79,0-1.37.13-1.71.4s-.52.65-.52,1.16c0,.94.48,1.42,1.43,1.42.37,0,.72-.09,1.06-.28Z"/><path d="M85.8,204.11c-.36.09-.73.14-1.08.14-.78,0-1.4-.21-1.84-.62-.44-.41-.67-.95-.67-1.62v-4.45h-1.71v-.94h1.71v-1.69l1.19-.14v1.83h2.59l-.16.94h-2.44v4.44c0,.42.11.74.34.95.23.21.59.31,1.09.31s.99-.12,1.43-.35l.47.81c-.26.17-.56.3-.93.4Z"/><path d="M90.48,201.93c0,.48.1.83.3,1.06.2.22.52.33.96.33.4,0,.78-.11,1.15-.34.37-.23.66-.51.88-.85v-5.5h1.19v7.47h-1.02l-.1-1.01c-.29.37-.65.65-1.08.86-.43.2-.87.3-1.31.3-.71,0-1.25-.19-1.61-.57s-.55-.92-.55-1.63v-5.43h1.19v5.3Z"/><path d="M103.89,196.62l-.17,2.54h-.96v-1.6h-.07c-1.15,0-1.97.82-2.45,2.47v3.15h1.52v.92h-3.88v-.92h1.18v-5.63h-1.18v-.92h2.07l.23,1.77c.3-.64.66-1.12,1.08-1.45.42-.32.95-.48,1.59-.48.3,0,.65.05,1.05.16Z"/><path d="M107.89,202.63c.4.42.91.62,1.52.62.37,0,.71-.05,1.01-.16.31-.11.64-.28.98-.5l.55.79c-.35.27-.75.49-1.2.64-.45.15-.9.23-1.35.23-1.08,0-1.92-.35-2.52-1.06s-.9-1.65-.9-2.83c0-.75.13-1.42.4-2.01.26-.59.64-1.05,1.13-1.39.49-.34,1.06-.5,1.71-.5.94,0,1.69.33,2.23.98.54.66.81,1.55.81,2.69,0,.22,0,.43-.03.64h-5.02c.03.82.24,1.44.65,1.86ZM107.86,198.06c-.36.41-.56,1.01-.61,1.81h3.88c0-.78-.18-1.38-.51-1.8-.33-.42-.78-.62-1.36-.62s-1.04.21-1.4.62Z"/><rect x="28.35" y="226.77" width="226.77" height="28.35" fill="#dbc07b" stroke="#312609" stroke-miterlimit="10" stroke-width="1.42"/><path d="M39.13,244.12l-.78,2.5h-1.22l3.19-9.77h1.56l3.17,9.77h-1.28l-.78-2.5h-3.87ZM42.68,243.1l-1.6-5.2-1.62,5.2h3.22Z"/><path d="M52.1,245.1l.57.78c-.31.27-.7.49-1.16.65-.46.16-.91.24-1.35.24-1.11,0-1.97-.35-2.59-1.04-.62-.69-.93-1.63-.93-2.81,0-.75.14-1.42.42-2.01.28-.6.68-1.06,1.21-1.4.53-.34,1.16-.51,1.88-.51.96,0,1.79.29,2.49.88l-.58.78c-.65-.43-1.29-.65-1.93-.65-.67,0-1.21.25-1.61.74-.4.5-.6,1.22-.6,2.18s.2,1.67.6,2.13c.4.47.94.7,1.62.7s1.3-.22,1.94-.65Z"/><path d="M60.6,245.1l.57.78c-.31.27-.7.49-1.16.65-.46.16-.91.24-1.35.24-1.11,0-1.97-.35-2.59-1.04-.62-.69-.93-1.63-.93-2.81,0-.75.14-1.42.42-2.01.28-.6.68-1.06,1.21-1.4.53-.34,1.16-.51,1.88-.51.96,0,1.79.29,2.49.88l-.58.78c-.65-.43-1.29-.65-1.93-.65-.67,0-1.21.25-1.61.74-.4.5-.6,1.22-.6,2.18s.2,1.67.6,2.13c.4.47.94.7,1.62.7s1.3-.22,1.94-.65Z"/><path d="M65.37,245.15c.4.42.91.62,1.52.62.37,0,.71-.05,1.01-.16.31-.11.64-.28.98-.5l.55.79c-.35.27-.75.49-1.2.64-.45.15-.9.23-1.35.23-1.08,0-1.92-.35-2.52-1.06s-.9-1.65-.9-2.83c0-.75.13-1.42.4-2.01.26-.59.64-1.05,1.13-1.39.49-.34,1.06-.5,1.71-.5.94,0,1.69.33,2.23.98.54.66.81,1.55.81,2.69,0,.22,0,.43-.03.64h-5.02c.03.82.24,1.44.65,1.86ZM65.34,240.58c-.36.41-.56,1.01-.61,1.81h3.88c0-.78-.18-1.38-.51-1.8-.33-.42-.78-.62-1.36-.62s-1.04.21-1.4.62Z"/><path d="M76.18,245.47c.33-.22.5-.5.5-.86,0-.25-.04-.45-.13-.6s-.26-.3-.51-.42c-.26-.13-.64-.26-1.16-.39-.87-.22-1.51-.48-1.93-.79-.42-.31-.62-.76-.62-1.37s.26-1.12.78-1.49c.52-.37,1.21-.55,2.06-.55,1.04,0,1.95.27,2.72.82l-.54.82c-.31-.22-.64-.38-.98-.5-.34-.12-.73-.18-1.18-.18-1.08,0-1.62.33-1.62.98,0,.23.06.41.18.55s.31.27.58.38c.27.11.67.24,1.21.39.81.22,1.42.49,1.82.83.4.33.6.82.6,1.47,0,.75-.3,1.3-.91,1.67-.6.37-1.35.55-2.23.55-1.17,0-2.15-.33-2.92-1.01l.67-.78c.3.25.65.44,1.03.59.39.15.79.22,1.22.22.57,0,1.02-.11,1.35-.33Z"/><path d="M84.68,245.47c.33-.22.5-.5.5-.86,0-.25-.04-.45-.13-.6s-.26-.3-.51-.42c-.26-.13-.64-.26-1.16-.39-.87-.22-1.51-.48-1.93-.79-.42-.31-.62-.76-.62-1.37s.26-1.12.78-1.49c.52-.37,1.21-.55,2.06-.55,1.04,0,1.95.27,2.72.82l-.54.82c-.31-.22-.64-.38-.98-.5-.34-.12-.73-.18-1.18-.18-1.08,0-1.62.33-1.62.98,0,.23.06.41.18.55s.31.27.58.38c.27.11.67.24,1.21.39.81.22,1.42.49,1.82.83.4.33.6.82.6,1.47,0,.75-.3,1.3-.91,1.67-.6.37-1.35.55-2.23.55-1.17,0-2.15-.33-2.92-1.01l.67-.78c.3.25.65.44,1.03.59.39.15.79.22,1.22.22.57,0,1.02-.11,1.35-.33Z"/><rect x="28.35" y="269.29" width="226.77" height="28.35" fill="#dbc07b" stroke="#312609" stroke-miterlimit="10" stroke-width="1.42"/><path d="M43.77,279.37h1.23l-3.26,9.77h-1.28l-3.26-9.77h1.32l2.61,8.36,2.64-8.36Z"/><path d="M52.27,288.15c.09.14.25.24.47.3l-.3.85c-.73-.09-1.18-.45-1.36-1.06-.26.34-.6.6-1,.78-.4.18-.85.27-1.34.27-.75,0-1.33-.21-1.76-.62-.43-.42-.65-.97-.65-1.67,0-.76.3-1.36.9-1.77s1.46-.62,2.59-.62h1.11v-.61c0-.53-.15-.91-.45-1.14-.3-.23-.74-.35-1.32-.35s-1.21.13-1.94.38l-.33-.91c.88-.31,1.7-.47,2.45-.47.91,0,1.6.21,2.08.64.48.42.72,1.02.72,1.77v3.59c0,.29.05.51.14.64ZM50.09,288.11c.34-.19.61-.45.83-.78v-1.91h-1.08c-.79,0-1.37.13-1.71.4s-.52.65-.52,1.16c0,.94.48,1.42,1.43,1.42.37,0,.72-.09,1.06-.28Z"/><path d="M58.19,287.29c0,.67.41,1.01,1.23,1.01.39,0,.8-.08,1.25-.25l.31.87c-.47.25-1.06.38-1.77.38-.67,0-1.21-.18-1.61-.55-.4-.37-.6-.87-.6-1.5v-7.62h-2.3v-.95h3.49v8.63Z"/><path d="M67.56,288.18h2.1v.95h-5.58v-.95h2.3v-5.57h-2.23v-.95h3.42v6.52ZM67.25,278.41c.16.16.24.36.24.6s-.08.45-.24.6-.37.23-.64.23-.46-.08-.62-.23c-.16-.16-.23-.36-.23-.6s.08-.45.23-.6c.16-.16.36-.23.62-.23s.48.08.64.23Z"/><path d="M77.95,278.66v10.47h-1.05l-.11-.98c-.27.38-.59.66-.95.85-.36.19-.75.28-1.16.28-.94,0-1.66-.34-2.13-1.03-.48-.69-.72-1.64-.72-2.85,0-.75.12-1.42.35-2.01.24-.59.57-1.05,1.01-1.39.44-.34.96-.5,1.55-.5.82,0,1.49.3,2.01.89v-3.88l1.19.14ZM73.62,283.21c-.34.49-.5,1.22-.5,2.2s.15,1.69.46,2.19c.31.5.75.74,1.34.74.71,0,1.32-.4,1.84-1.19v-3.71c-.21-.31-.46-.55-.75-.72-.29-.17-.61-.25-.95-.25-.62,0-1.1.25-1.44.74Z"/><path d="M86.29,288.15c.09.14.25.24.47.3l-.3.85c-.73-.09-1.18-.45-1.36-1.06-.26.34-.6.6-1,.78-.4.18-.85.27-1.34.27-.75,0-1.33-.21-1.76-.62-.43-.42-.65-.97-.65-1.67,0-.76.3-1.36.9-1.77s1.46-.62,2.59-.62h1.11v-.61c0-.53-.15-.91-.45-1.14-.3-.23-.74-.35-1.32-.35s-1.21.13-1.94.38l-.33-.91c.88-.31,1.7-.47,2.45-.47.91,0,1.6.21,2.08.64.48.42.72,1.02.72,1.77v3.59c0,.29.05.51.14.64ZM84.11,288.11c.34-.19.61-.45.83-.78v-1.91h-1.08c-.79,0-1.37.13-1.71.4s-.52.65-.52,1.16c0,.94.48,1.42,1.43,1.42.37,0,.72-.09,1.06-.28Z"/><path d="M94.3,289.15c-.36.09-.73.14-1.08.14-.78,0-1.4-.21-1.84-.62-.44-.41-.67-.95-.67-1.62v-4.45h-1.71v-.94h1.71v-1.69l1.19-.14v1.83h2.59l-.16.94h-2.44v4.44c0,.42.11.74.34.95.23.21.59.31,1.09.31s.99-.12,1.43-.35l.47.81c-.26.17-.56.3-.93.4Z"/><path d="M101.58,288.18h2.1v.95h-5.58v-.95h2.3v-5.57h-2.23v-.95h3.42v6.52ZM101.27,278.41c.16.16.24.36.24.6s-.08.45-.24.6-.37.23-.64.23-.46-.08-.62-.23c-.16-.16-.23-.36-.23-.6s.08-.45.23-.6c.16-.16.36-.23.62-.23s.48.08.64.23Z"/><path d="M111.52,282.55c.55.69.83,1.64.83,2.84s-.28,2.11-.84,2.83c-.56.71-1.35,1.07-2.37,1.07s-1.82-.35-2.38-1.04c-.56-.69-.84-1.64-.84-2.84s.28-2.13.84-2.83,1.36-1.06,2.39-1.06,1.82.35,2.37,1.04ZM107.69,283.21c-.32.48-.48,1.21-.48,2.2s.16,1.71.48,2.19c.32.48.8.72,1.45.72s1.14-.24,1.45-.72c.32-.48.48-1.21.48-2.2s-.16-1.71-.48-2.19-.8-.72-1.44-.72-1.14.24-1.46.72Z"/><path d="M114.8,281.66h1.02l.1,1.05c.29-.38.66-.67,1.11-.89s.9-.32,1.35-.32c1.4,0,2.1.74,2.1,2.21v5.41h-1.19v-4.54c0-.56-.03-.98-.09-1.28s-.18-.51-.36-.65-.45-.21-.82-.21c-.41,0-.79.12-1.15.37-.36.25-.65.54-.88.88v5.43h-1.19v-7.47Z"/><rect x="317.48" y="99.21" width="226.77" height="28.35" fill="#dfbbef" stroke="#312609" stroke-miterlimit="10" stroke-width="1.42"/><path d="M333.47,115.89c0,.65-.13,1.23-.4,1.74s-.65.9-1.13,1.17c-.49.27-1.06.41-1.71.41s-1.23-.14-1.71-.42c-.48-.28-.85-.67-1.11-1.17-.26-.5-.39-1.08-.39-1.73v-6.6h1.23v6.65c0,.74.17,1.29.51,1.66.34.37.83.55,1.47.55s1.14-.18,1.48-.55c.34-.37.52-.92.52-1.66v-6.65h1.25v6.6Z"/><path d="M335.91,111.59h1.02l.1,1.05c.29-.38.66-.67,1.11-.89.45-.21.9-.32,1.35-.32,1.4,0,2.1.74,2.1,2.21v5.41h-1.19v-4.54c0-.56-.03-.98-.09-1.28s-.18-.51-.36-.65-.45-.21-.82-.21c-.41,0-.79.12-1.15.37-.36.25-.65.54-.88.88v5.43h-1.19v-7.47Z"/><path d="M346,117.6c.4.42.91.62,1.52.62.37,0,.71-.05,1.01-.16.31-.11.63-.28.98-.5l.55.79c-.35.27-.75.49-1.2.64s-.9.23-1.35.23c-1.08,0-1.92-.35-2.52-1.06-.6-.7-.9-1.65-.9-2.83,0-.75.13-1.42.4-2.01.26-.59.64-1.05,1.13-1.39s1.06-.5,1.71-.5c.94,0,1.69.33,2.23.98.54.66.81,1.55.81,2.69,0,.22,0,.43-.03.64h-5.02c.03.82.24,1.44.65,1.86ZM345.97,113.02c-.36.41-.56,1.01-.61,1.81h3.88c0-.78-.18-1.38-.51-1.8-.33-.42-.79-.62-1.36-.62s-1.04.21-1.4.62Z"/><path d="M352.29,119.06l2.75-3.94-2.42-3.53h1.42l1.73,2.78,1.74-2.78h1.38l-2.42,3.47,2.75,4h-1.45l-2.05-3.2-2.06,3.2h-1.36Z"/><path d="M367.47,115.31c0,1.18-.25,2.13-.74,2.83-.49.71-1.21,1.06-2.14,1.06-.81,0-1.47-.28-1.98-.85v3.56l-1.19.14v-10.47h1.02l.1,1.05c.27-.39.6-.69.99-.89.38-.21.8-.31,1.24-.31,1.8,0,2.71,1.29,2.71,3.88ZM363.44,112.73c-.32.23-.59.51-.83.85v3.7c.2.29.45.52.74.69.3.17.62.25.97.25.62,0,1.09-.24,1.4-.72.31-.48.46-1.21.46-2.19s-.14-1.71-.41-2.2-.7-.72-1.29-.72c-.38,0-.72.11-1.04.34Z"/><path d="M371.51,117.6c.4.42.91.62,1.52.62.37,0,.71-.05,1.01-.16.31-.11.64-.28.99-.5l.55.79c-.35.27-.75.49-1.2.64-.45.15-.9.23-1.35.23-1.08,0-1.92-.35-2.52-1.06-.6-.7-.9-1.65-.9-2.83,0-.75.13-1.42.4-2.01s.64-1.05,1.13-1.39,1.06-.5,1.71-.5c.95,0,1.69.33,2.23.98.54.66.82,1.55.82,2.69,0,.22,0,.43-.03.64h-5.02c.03.82.24,1.44.64,1.86ZM371.48,113.02c-.36.41-.56,1.01-.61,1.81h3.88c0-.78-.18-1.38-.51-1.8-.33-.42-.78-.62-1.36-.62s-1.04.21-1.4.62Z"/><path d="M383.75,117.54l.57.78c-.31.27-.7.49-1.16.65s-.91.24-1.35.24c-1.11,0-1.97-.35-2.59-1.04-.62-.69-.93-1.63-.93-2.81,0-.75.14-1.42.42-2.01s.68-1.06,1.21-1.4c.53-.34,1.16-.51,1.88-.51.96,0,1.79.29,2.5.88l-.58.78c-.65-.43-1.29-.65-1.93-.65-.67,0-1.21.25-1.61.74-.4.5-.6,1.22-.6,2.18s.2,1.67.6,2.13c.4.47.94.7,1.62.7s1.3-.22,1.94-.65Z"/><path d="M391.94,119.07c-.36.09-.73.14-1.08.14-.78,0-1.4-.21-1.84-.62-.44-.41-.67-.95-.67-1.62v-4.45h-1.71v-.94h1.71v-1.69l1.19-.14v1.83h2.59l-.16.94h-2.44v4.44c0,.43.11.74.34.95s.59.31,1.09.31.99-.12,1.43-.35l.47.81c-.25.17-.56.3-.93.4Z"/><path d="M397.03,117.6c.4.42.91.62,1.52.62.37,0,.71-.05,1.01-.16.31-.11.63-.28.98-.5l.55.79c-.35.27-.75.49-1.2.64s-.9.23-1.35.23c-1.08,0-1.92-.35-2.52-1.06-.6-.7-.9-1.65-.9-2.83,0-.75.13-1.42.4-2.01.26-.59.64-1.05,1.13-1.39s1.06-.5,1.71-.5c.94,0,1.69.33,2.23.98.54.66.81,1.55.81,2.69,0,.22,0,.43-.03.64h-5.02c.03.82.24,1.44.65,1.86ZM396.99,113.02c-.36.41-.56,1.01-.61,1.81h3.88c0-.78-.18-1.38-.51-1.8-.33-.42-.79-.62-1.36-.62s-1.04.21-1.4.62Z"/><path d="M409.6,108.58v10.47h-1.05l-.11-.98c-.27.38-.59.66-.95.85s-.75.28-1.16.28c-.95,0-1.66-.34-2.13-1.03-.48-.69-.72-1.64-.72-2.85,0-.75.12-1.42.35-2.01.24-.59.57-1.05,1.01-1.39s.96-.5,1.55-.5c.82,0,1.49.3,2.01.89v-3.88l1.19.14ZM405.28,113.13c-.34.49-.5,1.22-.5,2.2s.15,1.69.46,2.19.75.74,1.34.74c.71,0,1.32-.4,1.84-1.19v-3.71c-.21-.31-.46-.55-.75-.72-.29-.17-.61-.25-.95-.25-.62,0-1.1.25-1.44.74Z"/><path d="M414.03,113.6h3.63v1.01h-3.63v3.46h4.45v.99h-5.67v-9.77h5.54l-.14,1.02h-4.18v3.29Z"/><path d="M420.94,111.59h1.02l.1,1.05c.29-.38.66-.67,1.11-.89.45-.21.9-.32,1.35-.32,1.4,0,2.1.74,2.1,2.21v5.41h-1.19v-4.54c0-.56-.03-.98-.09-1.28s-.18-.51-.36-.65-.45-.21-.82-.21c-.41,0-.79.12-1.15.37-.36.25-.65.54-.88.88v5.43h-1.19v-7.47Z"/><path d="M435.12,108.58v10.47h-1.05l-.11-.98c-.27.38-.59.66-.95.85-.36.19-.75.28-1.16.28-.94,0-1.66-.34-2.13-1.03-.48-.69-.72-1.64-.72-2.85,0-.75.12-1.42.35-2.01s.57-1.05,1.01-1.39.96-.5,1.55-.5c.82,0,1.49.3,2.01.89v-3.88l1.19.14ZM430.79,113.13c-.33.49-.5,1.22-.5,2.2s.15,1.69.46,2.19c.31.5.75.74,1.34.74.71,0,1.32-.4,1.84-1.19v-3.71c-.21-.31-.46-.55-.75-.72-.29-.17-.61-.25-.95-.25-.62,0-1.1.25-1.44.74Z"/><rect x="317.48" y="141.73" width="226.77" height="28.35" fill="#dfbbef" stroke="#312609" stroke-miterlimit="10" stroke-width="1.42"/><path d="M332.62,151.89c.43.16.86.39,1.28.72l-.69.81c-.58-.48-1.26-.72-2.05-.72-.88,0-1.59.32-2.15.96s-.83,1.65-.83,3.04.27,2.39.81,3.03c.54.64,1.26.96,2.15.96.49,0,.91-.07,1.26-.21s.68-.34,1.01-.59l.64.79c-.73.71-1.7,1.06-2.92,1.06-.8,0-1.53-.2-2.17-.59-.64-.39-1.15-.97-1.52-1.72s-.55-1.67-.55-2.74.19-1.97.56-2.73c.37-.76.88-1.33,1.52-1.72s1.34-.58,2.11-.58c.6,0,1.12.08,1.56.23Z"/><path d="M337.1,155.14c.29-.38.65-.67,1.08-.88.43-.21.87-.31,1.32-.31,1.4,0,2.1.74,2.1,2.21v5.41h-1.19v-5.4c0-.44-.1-.77-.31-.97-.21-.2-.54-.3-.99-.3-.39,0-.76.12-1.12.37s-.65.53-.88.86v5.44h-1.19v-10.46l1.19-.13v4.15Z"/><path d="M349.91,160.59c.09.14.25.24.47.3l-.3.85c-.73-.09-1.18-.45-1.36-1.06-.26.34-.6.6-1,.78s-.85.27-1.34.27c-.75,0-1.33-.21-1.76-.62-.43-.42-.65-.97-.65-1.67,0-.77.3-1.36.9-1.77.6-.42,1.46-.62,2.59-.62h1.11v-.61c0-.53-.15-.91-.45-1.14s-.74-.35-1.32-.35-1.21.13-1.94.38l-.33-.91c.88-.31,1.7-.47,2.45-.47.91,0,1.6.21,2.08.64.48.43.72,1.02.72,1.77v3.59c0,.29.05.51.14.65ZM347.73,160.55c.34-.19.61-.45.83-.78v-1.91h-1.08c-.79,0-1.37.13-1.71.4s-.52.65-.52,1.16c0,.95.48,1.42,1.43,1.42.37,0,.72-.09,1.06-.28Z"/><path d="M359.01,154.11l-.17,2.54h-.96v-1.6h-.07c-1.15,0-1.97.82-2.45,2.47v3.15h1.52v.92h-3.88v-.92h1.18v-5.63h-1.18v-.92h2.07l.23,1.77c.3-.64.66-1.12,1.08-1.45.42-.32.95-.48,1.59-.48.3,0,.65.05,1.05.16Z"/><path d="M366.92,160.59c.09.14.25.24.47.3l-.3.85c-.73-.09-1.18-.45-1.36-1.06-.26.34-.6.6-1,.78-.4.18-.85.27-1.34.27-.75,0-1.33-.21-1.76-.62-.43-.42-.64-.97-.64-1.67,0-.77.3-1.36.9-1.77.6-.42,1.46-.62,2.59-.62h1.11v-.61c0-.53-.15-.91-.45-1.14-.3-.23-.74-.35-1.32-.35s-1.21.13-1.94.38l-.33-.91c.88-.31,1.7-.47,2.45-.47.91,0,1.6.21,2.08.64.48.43.72,1.02.72,1.77v3.59c0,.29.05.51.14.65ZM364.74,160.55c.33-.19.61-.45.83-.78v-1.91h-1.08c-.79,0-1.37.13-1.71.4s-.52.65-.52,1.16c0,.95.48,1.42,1.43,1.42.37,0,.72-.09,1.06-.28Z"/><path d="M375.25,160.06l.57.78c-.31.27-.7.49-1.16.65-.46.16-.91.24-1.35.24-1.11,0-1.97-.35-2.59-1.04-.62-.69-.93-1.63-.93-2.81,0-.75.14-1.42.42-2.01.28-.59.68-1.06,1.21-1.4.53-.34,1.16-.51,1.88-.51.96,0,1.79.29,2.5.88l-.58.78c-.65-.43-1.29-.65-1.93-.65-.67,0-1.21.25-1.61.74-.4.5-.6,1.22-.6,2.18s.2,1.67.6,2.13c.4.47.94.7,1.62.7s1.3-.22,1.94-.65Z"/><path d="M383.43,161.59c-.36.09-.73.14-1.08.14-.78,0-1.4-.21-1.84-.62-.44-.41-.67-.95-.67-1.62v-4.45h-1.71v-.94h1.71v-1.69l1.19-.14v1.83h2.59l-.16.94h-2.44v4.44c0,.43.11.74.34.95.23.21.59.31,1.09.31s.99-.12,1.43-.35l.47.81c-.26.17-.57.3-.93.4Z"/><path d="M388.52,160.11c.4.42.91.62,1.52.62.37,0,.71-.05,1.01-.16.31-.11.63-.28.98-.5l.55.79c-.35.27-.75.49-1.2.64-.45.15-.9.23-1.35.23-1.08,0-1.92-.35-2.52-1.06-.6-.7-.9-1.65-.9-2.83,0-.75.13-1.42.4-2,.26-.59.64-1.05,1.13-1.39.49-.33,1.06-.5,1.71-.5.94,0,1.69.33,2.23.99.54.66.81,1.55.81,2.69,0,.22,0,.43-.03.64h-5.02c.03.82.24,1.44.65,1.86ZM388.49,155.54c-.36.41-.56,1.01-.61,1.81h3.88c0-.78-.18-1.38-.51-1.8-.33-.42-.79-.62-1.36-.62s-1.04.21-1.4.62Z"/><path d="M401.53,154.11l-.17,2.54h-.96v-1.6h-.07c-1.15,0-1.97.82-2.45,2.47v3.15h1.52v.92h-3.88v-.92h1.18v-5.63h-1.18v-.92h2.07l.23,1.77c.3-.64.66-1.12,1.08-1.45s.95-.48,1.59-.48c.3,0,.65.05,1.05.16Z"/><rect x="317.48" y="184.25" width="226.77" height="28.35" fill="#dfbbef" stroke="#312609" stroke-miterlimit="10" stroke-width="1.42"/><path d="M327.91,194.33h1.22v8.67h4.46l-.16,1.09h-5.53v-9.77Z"/><path d="M339.69,203.14h2.1v.95h-5.58v-.95h2.3v-5.57h-2.23v-.95h3.42v6.52ZM339.38,193.37c.16.16.24.36.24.6s-.08.45-.24.6c-.16.16-.37.23-.64.23s-.46-.08-.62-.23c-.16-.16-.23-.36-.23-.6s.08-.45.23-.6c.16-.16.36-.23.62-.23s.48.08.64.23Z"/><path d="M350.37,196.92c.27.3.4.84.4,1.62v5.56h-1.09v-5.36c0-.52-.03-.87-.1-1.06-.07-.18-.23-.28-.48-.28-.48,0-.92.3-1.3.89v5.8h-1.11v-5.36c0-.52-.03-.87-.1-1.06-.07-.18-.23-.28-.48-.28-.48,0-.92.3-1.3.89v5.8h-1.09v-7.47h.92l.08.88c.23-.33.47-.59.72-.77.25-.18.55-.27.9-.27.7,0,1.15.33,1.35.99.23-.32.47-.57.72-.74s.56-.25.92-.25c.43,0,.77.15,1.04.45Z"/><path d="M356.7,203.14h2.1v.95h-5.58v-.95h2.3v-5.57h-2.23v-.95h3.42v6.52ZM356.38,193.37c.16.16.24.36.24.6s-.08.45-.24.6c-.16.16-.37.23-.64.23s-.46-.08-.62-.23-.23-.36-.23-.6.08-.45.23-.6c.16-.16.36-.23.62-.23s.48.08.64.23Z"/><path d="M366.43,204.11c-.36.09-.73.14-1.08.14-.78,0-1.4-.21-1.84-.62s-.67-.95-.67-1.62v-4.45h-1.71v-.94h1.71v-1.69l1.19-.14v1.83h2.59l-.16.94h-2.44v4.44c0,.42.11.74.34.95.23.21.59.31,1.09.31s.99-.12,1.43-.35l.47.81c-.26.17-.57.3-.93.4Z"/><path d="M371.51,198.64h3.63v1.01h-3.63v3.46h4.45v.99h-5.67v-9.77h5.54l-.14,1.02h-4.18v3.29Z"/><path d="M377.8,204.09l2.75-3.94-2.42-3.53h1.42l1.73,2.78,1.74-2.78h1.38l-2.42,3.47,2.75,4h-1.45l-2.05-3.2-2.06,3.2h-1.36Z"/><path d="M392.26,202.58l.57.78c-.31.27-.7.49-1.16.65-.46.16-.91.24-1.35.24-1.11,0-1.97-.35-2.59-1.04s-.93-1.63-.93-2.81c0-.75.14-1.42.42-2.01.28-.6.68-1.06,1.21-1.4.53-.34,1.16-.51,1.88-.51.96,0,1.79.29,2.49.88l-.58.78c-.65-.43-1.29-.65-1.93-.65-.67,0-1.21.25-1.61.74s-.6,1.22-.6,2.18.2,1.67.6,2.13.94.7,1.62.7,1.3-.22,1.94-.65Z"/><path d="M397.03,202.63c.4.42.91.62,1.52.62.37,0,.71-.05,1.01-.16.31-.11.63-.28.98-.5l.55.79c-.35.27-.75.49-1.2.64-.45.15-.9.23-1.35.23-1.08,0-1.92-.35-2.52-1.06-.6-.7-.9-1.65-.9-2.83,0-.75.13-1.42.4-2.01.26-.59.64-1.05,1.13-1.39.49-.34,1.06-.5,1.71-.5.94,0,1.69.33,2.23.98.54.66.81,1.55.81,2.69,0,.22,0,.43-.03.64h-5.02c.03.82.24,1.44.65,1.86ZM396.99,198.06c-.36.41-.56,1.01-.61,1.81h3.88c0-.78-.18-1.38-.51-1.8-.33-.42-.79-.62-1.36-.62s-1.04.21-1.4.62Z"/><path d="M405.53,202.63c.4.42.91.62,1.52.62.37,0,.71-.05,1.01-.16.31-.11.63-.28.98-.5l.55.79c-.35.27-.75.49-1.2.64-.45.15-.9.23-1.35.23-1.08,0-1.92-.35-2.52-1.06-.6-.7-.9-1.65-.9-2.83,0-.75.13-1.42.4-2.01.26-.59.64-1.05,1.13-1.39.49-.34,1.06-.5,1.71-.5.94,0,1.69.33,2.23.98.54.66.81,1.55.81,2.69,0,.22,0,.43-.03.64h-5.02c.03.82.24,1.44.65,1.86ZM405.5,198.06c-.36.41-.56,1.01-.61,1.81h3.88c0-.78-.18-1.38-.51-1.8-.33-.42-.79-.62-1.36-.62s-1.04.21-1.4.62Z"/><path d="M418.11,193.62v10.47h-1.05l-.11-.98c-.27.38-.59.66-.95.85-.36.19-.75.28-1.16.28-.95,0-1.66-.34-2.13-1.03-.48-.69-.72-1.64-.72-2.85,0-.75.12-1.42.35-2.01.24-.59.57-1.05,1.01-1.39.44-.34.96-.5,1.55-.5.82,0,1.49.3,2.01.89v-3.88l1.19.14ZM413.78,198.17c-.34.49-.5,1.22-.5,2.2s.15,1.69.46,2.19.75.74,1.34.74c.71,0,1.32-.4,1.84-1.19v-3.71c-.21-.31-.46-.55-.75-.72-.29-.17-.61-.25-.95-.25-.62,0-1.1.25-1.44.74Z"/><path d="M422.54,202.63c.4.42.91.62,1.52.62.37,0,.71-.05,1.01-.16.31-.11.63-.28.98-.5l.55.79c-.35.27-.75.49-1.2.64-.45.15-.9.23-1.35.23-1.08,0-1.92-.35-2.52-1.06-.6-.7-.9-1.65-.9-2.83,0-.75.13-1.42.4-2.01.26-.59.64-1.05,1.13-1.39.49-.34,1.06-.5,1.71-.5.94,0,1.69.33,2.23.98.54.66.81,1.55.81,2.69,0,.22,0,.43-.03.64h-5.02c.03.82.24,1.44.65,1.86ZM422.5,198.06c-.36.41-.56,1.01-.61,1.81h3.88c0-.78-.18-1.38-.51-1.8-.33-.42-.79-.62-1.36-.62s-1.04.21-1.4.62Z"/><path d="M435.12,193.62v10.47h-1.05l-.11-.98c-.27.38-.59.66-.95.85-.36.19-.75.28-1.16.28-.94,0-1.66-.34-2.13-1.03s-.72-1.64-.72-2.85c0-.75.12-1.42.35-2.01.24-.59.57-1.05,1.01-1.39.44-.34.96-.5,1.55-.5.82,0,1.49.3,2.01.89v-3.88l1.19.14ZM430.79,198.17c-.33.49-.5,1.22-.5,2.2s.15,1.69.46,2.19c.31.5.75.74,1.34.74.71,0,1.32-.4,1.84-1.19v-3.71c-.21-.31-.46-.55-.75-.72-.29-.17-.61-.25-.95-.25-.62,0-1.1.25-1.44.74Z"/><rect x="317.48" y="226.77" width="226.77" height="28.35" fill="#dfbbef" stroke="#312609" stroke-miterlimit="10" stroke-width="1.42"/><path d="M333.03,237.84h-2.17v7.79h2.17v.98h-5.58v-.98h2.17v-7.79h-2.17v-.99h5.58v.99Z"/><path d="M335.91,239.14h1.02l.1,1.05c.29-.38.66-.67,1.11-.89.45-.21.9-.32,1.35-.32,1.4,0,2.1.74,2.1,2.21v5.41h-1.19v-4.54c0-.56-.03-.98-.09-1.28s-.18-.51-.36-.65-.45-.21-.82-.21c-.41,0-.79.12-1.15.37-.36.25-.65.54-.88.88v5.43h-1.19v-7.47Z"/><path d="M350.08,236.14v10.47h-1.05l-.11-.98c-.27.38-.59.66-.95.85-.36.19-.75.28-1.16.28-.95,0-1.66-.34-2.13-1.03-.48-.69-.72-1.64-.72-2.85,0-.75.12-1.42.35-2.01.24-.59.57-1.05,1.01-1.39.44-.34.96-.5,1.55-.5.82,0,1.49.3,2.01.89v-3.88l1.19.14ZM345.75,240.69c-.34.49-.5,1.22-.5,2.2s.15,1.69.46,2.19.75.74,1.34.74c.71,0,1.32-.4,1.84-1.19v-3.71c-.21-.31-.46-.55-.75-.72-.29-.17-.61-.25-.95-.25-.62,0-1.1.25-1.44.74Z"/><path d="M354.51,245.15c.4.42.91.62,1.52.62.37,0,.71-.05,1.01-.16.31-.11.64-.28.99-.5l.55.79c-.35.27-.75.49-1.2.64-.45.15-.9.23-1.35.23-1.08,0-1.92-.35-2.52-1.06-.6-.7-.9-1.65-.9-2.83,0-.75.13-1.42.4-2.01.26-.59.64-1.05,1.13-1.39.49-.34,1.06-.5,1.71-.5.95,0,1.69.33,2.23.98.54.66.82,1.55.82,2.69,0,.22,0,.43-.03.64h-5.02c.03.82.24,1.44.64,1.86ZM354.47,240.58c-.36.41-.56,1.01-.61,1.81h3.88c0-.78-.18-1.38-.51-1.8-.33-.42-.78-.62-1.36-.62s-1.04.21-1.4.62Z"/><path d="M361.42,239.14h1.02l.1,1.05c.29-.38.66-.67,1.11-.89.45-.21.9-.32,1.35-.32,1.4,0,2.1.74,2.1,2.21v5.41h-1.19v-4.54c0-.56-.03-.98-.09-1.28s-.18-.51-.36-.65-.45-.21-.82-.21c-.41,0-.79.12-1.15.37-.36.25-.65.54-.88.88v5.43h-1.19v-7.47Z"/><path d="M374.93,246.63c-.36.09-.73.14-1.08.14-.78,0-1.4-.21-1.84-.62s-.67-.95-.67-1.62v-4.45h-1.71v-.94h1.71v-1.69l1.19-.14v1.83h2.59l-.16.94h-2.44v4.44c0,.42.11.74.34.95.23.21.59.31,1.09.31s.99-.12,1.43-.35l.47.81c-.26.17-.57.3-.93.4Z"/><path d="M383.92,245.63c.09.14.25.24.47.3l-.3.85c-.73-.09-1.18-.45-1.36-1.06-.26.34-.6.6-1,.78-.4.18-.85.27-1.34.27-.75,0-1.33-.21-1.76-.62s-.64-.97-.64-1.67c0-.76.3-1.36.9-1.77.6-.42,1.46-.62,2.59-.62h1.11v-.61c0-.53-.15-.91-.45-1.14-.3-.23-.74-.35-1.32-.35s-1.21.13-1.94.38l-.33-.91c.88-.31,1.7-.47,2.45-.47.91,0,1.6.21,2.08.64.48.42.72,1.02.72,1.77v3.59c0,.29.05.51.14.64ZM381.75,245.59c.33-.19.61-.45.83-.78v-1.91h-1.08c-.79,0-1.37.13-1.71.4s-.52.65-.52,1.16c0,.94.48,1.42,1.43,1.42.37,0,.72-.09,1.06-.28Z"/><path d="M391.94,246.63c-.36.09-.73.14-1.08.14-.78,0-1.4-.21-1.84-.62-.44-.41-.67-.95-.67-1.62v-4.45h-1.71v-.94h1.71v-1.69l1.19-.14v1.83h2.59l-.16.94h-2.44v4.44c0,.42.11.74.34.95s.59.31,1.09.31.99-.12,1.43-.35l.47.81c-.25.17-.56.3-.93.4Z"/><path d="M399.22,245.66h2.1v.95h-5.58v-.95h2.3v-5.57h-2.23v-.95h3.42v6.52ZM398.9,235.89c.16.16.24.36.24.6s-.08.45-.24.6c-.16.16-.37.23-.64.23s-.46-.08-.62-.23c-.16-.16-.23-.36-.23-.6s.08-.45.23-.6c.16-.16.36-.23.62-.23s.48.08.64.23Z"/><path d="M409.16,240.03c.55.69.83,1.64.83,2.84s-.28,2.11-.84,2.83c-.56.71-1.35,1.07-2.37,1.07s-1.82-.35-2.38-1.04c-.56-.69-.84-1.64-.84-2.84s.28-2.13.84-2.83c.56-.71,1.36-1.06,2.39-1.06s1.82.35,2.37,1.04ZM405.32,240.69c-.32.48-.48,1.21-.48,2.2s.16,1.71.47,2.19c.32.48.8.72,1.45.72s1.14-.24,1.45-.72c.32-.48.48-1.21.48-2.2s-.16-1.71-.48-2.19-.8-.72-1.44-.72-1.14.24-1.46.72Z"/><path d="M412.44,239.14h1.02l.1,1.05c.29-.38.66-.67,1.11-.89.45-.21.9-.32,1.35-.32,1.4,0,2.1.74,2.1,2.21v5.41h-1.19v-4.54c0-.56-.03-.98-.09-1.28s-.18-.51-.36-.65-.45-.21-.82-.21c-.41,0-.79.12-1.15.37-.36.25-.65.54-.88.88v5.43h-1.19v-7.47Z"/><rect x="317.48" y="269.29" width="226.77" height="28.35" fill="#dfbbef" stroke="#312609" stroke-miterlimit="10" stroke-width="1.42"/><path d="M333.47,285.97c0,.65-.13,1.23-.4,1.74-.27.51-.65.9-1.13,1.17-.49.27-1.06.41-1.71.41s-1.23-.14-1.71-.42c-.48-.28-.85-.67-1.11-1.17s-.39-1.08-.39-1.73v-6.6h1.23v6.65c0,.74.17,1.29.51,1.66s.83.55,1.47.55,1.14-.18,1.48-.55.52-.92.52-1.66v-6.65h1.25v6.6Z"/><path d="M335.91,281.66h1.02l.1,1.05c.29-.38.66-.67,1.11-.89.45-.21.9-.32,1.35-.32,1.4,0,2.1.74,2.1,2.21v5.41h-1.19v-4.54c0-.56-.03-.98-.09-1.28s-.18-.51-.36-.65-.45-.21-.82-.21c-.41,0-.79.12-1.15.37-.36.25-.65.54-.88.88v5.43h-1.19v-7.47Z"/><path d="M348.31,287.99c.33-.22.5-.5.5-.86,0-.25-.04-.45-.13-.6s-.26-.3-.51-.42c-.25-.13-.64-.26-1.16-.39-.87-.22-1.51-.48-1.93-.79-.42-.31-.62-.76-.62-1.37s.26-1.12.78-1.49c.52-.37,1.21-.55,2.05-.55,1.04,0,1.95.27,2.72.82l-.54.82c-.31-.22-.64-.38-.98-.5s-.73-.18-1.18-.18c-1.08,0-1.62.33-1.62.98,0,.23.06.41.18.55s.31.27.58.38c.27.11.67.24,1.21.39.81.22,1.42.49,1.82.83.4.33.6.82.6,1.47,0,.75-.3,1.3-.91,1.67-.6.37-1.35.55-2.23.55-1.17,0-2.14-.33-2.92-1.01l.67-.78c.3.25.65.44,1.03.59s.79.22,1.22.22c.57,0,1.02-.11,1.35-.33Z"/><path d="M354.1,286.96c0,.48.1.83.3,1.06.2.22.52.33.96.33.4,0,.78-.11,1.15-.34s.66-.51.88-.85v-5.5h1.19v7.47h-1.02l-.1-1.01c-.29.37-.65.65-1.08.86s-.87.3-1.31.3c-.71,0-1.25-.19-1.61-.57-.36-.38-.54-.92-.54-1.63v-5.43h1.19v5.3Z"/><path d="M367.47,285.39c0,1.18-.25,2.13-.74,2.83s-1.21,1.06-2.14,1.06c-.81,0-1.47-.28-1.98-.85v3.56l-1.19.14v-10.47h1.02l.1,1.05c.27-.39.6-.68.99-.89s.8-.31,1.24-.31c1.8,0,2.71,1.29,2.71,3.88ZM363.44,282.81c-.32.23-.59.51-.83.85v3.7c.2.29.45.52.74.69.3.17.62.25.97.25.62,0,1.09-.24,1.4-.71.31-.48.46-1.21.46-2.19s-.14-1.71-.41-2.2c-.27-.48-.7-.72-1.29-.72-.38,0-.72.11-1.04.34Z"/><path d="M375.97,285.39c0,1.18-.25,2.13-.74,2.83s-1.21,1.06-2.14,1.06c-.81,0-1.47-.28-1.98-.85v3.56l-1.19.14v-10.47h1.02l.1,1.05c.27-.39.6-.68.99-.89s.8-.31,1.24-.31c1.8,0,2.71,1.29,2.71,3.88ZM371.94,282.81c-.32.23-.59.51-.83.85v3.7c.2.29.45.52.74.69.3.17.62.25.97.25.62,0,1.09-.24,1.4-.71.31-.48.46-1.21.46-2.19s-.14-1.71-.41-2.2c-.27-.48-.7-.72-1.29-.72-.38,0-.72.11-1.04.34Z"/><path d="M383.65,282.55c.55.69.83,1.64.83,2.84s-.28,2.11-.84,2.83c-.56.71-1.35,1.07-2.37,1.07s-1.82-.35-2.38-1.04-.84-1.64-.84-2.84.28-2.13.84-2.83c.56-.71,1.36-1.06,2.39-1.06s1.82.35,2.37,1.04ZM379.81,283.21c-.32.48-.48,1.21-.48,2.2s.16,1.71.48,2.19c.32.48.8.72,1.45.72s1.14-.24,1.45-.72c.32-.48.47-1.21.47-2.2s-.16-1.71-.47-2.19-.8-.72-1.44-.72-1.14.24-1.46.72Z"/><path d="M393.02,281.66l-.17,2.54h-.96v-1.6h-.07c-1.15,0-1.97.82-2.45,2.47v3.15h1.52v.92h-3.88v-.92h1.18v-5.63h-1.18v-.92h2.07l.23,1.77c.3-.64.66-1.12,1.08-1.45s.95-.48,1.59-.48c.3,0,.65.05,1.05.16Z"/><path d="M400.44,289.15c-.36.09-.73.14-1.08.14-.78,0-1.4-.21-1.84-.62-.44-.41-.67-.95-.67-1.62v-4.45h-1.71v-.94h1.71v-1.69l1.19-.14v1.83h2.59l-.16.94h-2.44v4.44c0,.42.11.74.34.95s.59.31,1.09.31.99-.12,1.43-.35l.47.81c-.25.17-.56.3-.93.4Z"/><path d="M405.53,287.67c.4.42.91.62,1.52.62.37,0,.71-.05,1.01-.16.31-.11.63-.28.98-.5l.55.79c-.35.27-.75.49-1.2.64-.45.15-.9.23-1.35.23-1.08,0-1.92-.35-2.52-1.06-.6-.7-.9-1.65-.9-2.83,0-.75.13-1.42.4-2.01.26-.59.64-1.05,1.13-1.39.49-.34,1.06-.5,1.71-.5.94,0,1.69.33,2.23.98.54.66.81,1.55.81,2.69,0,.22,0,.43-.03.64h-5.02c.03.82.24,1.44.65,1.86ZM405.5,283.1c-.36.41-.56,1.01-.61,1.81h3.88c0-.78-.18-1.38-.51-1.8-.33-.42-.79-.62-1.36-.62s-1.04.21-1.4.62Z"/><path d="M418.11,278.66v10.47h-1.05l-.11-.98c-.27.38-.59.66-.95.85-.36.19-.75.28-1.16.28-.95,0-1.66-.34-2.13-1.03-.48-.69-.72-1.64-.72-2.85,0-.75.12-1.42.35-2.01.24-.59.57-1.05,1.01-1.39.44-.34.96-.5,1.55-.5.82,0,1.49.3,2.01.89v-3.88l1.19.14ZM413.78,283.21c-.34.49-.5,1.22-.5,2.2s.15,1.69.46,2.19.75.74,1.34.74c.71,0,1.32-.4,1.84-1.19v-3.71c-.21-.31-.46-.55-.75-.72-.29-.17-.61-.25-.95-.25-.62,0-1.1.25-1.44.74Z"/><rect x="28.35" y="311.81" width="226.77" height="28.35" fill="#dbc07b" stroke="#312609" stroke-miterlimit="10" stroke-width="1.42"/><path d="M43.89,322.88h-2.17v7.8h2.17v.98h-5.58v-.98h2.17v-7.8h-2.17v-.99h5.58v.99Z"/><path d="M46.77,324.18h1.02l.1,1.05c.29-.38.66-.67,1.11-.89.45-.21.9-.32,1.35-.32,1.4,0,2.1.74,2.1,2.21v5.41h-1.19v-4.54c0-.56-.03-.98-.09-1.28s-.18-.51-.36-.65-.45-.21-.82-.21c-.41,0-.79.12-1.15.37-.36.25-.65.54-.88.88v5.43h-1.19v-7.47Z"/><path d="M60.29,331.67c-.36.09-.73.14-1.08.14-.78,0-1.4-.21-1.84-.62-.44-.41-.67-.95-.67-1.62v-4.45h-1.71v-.94h1.71v-1.69l1.19-.14v1.83h2.59l-.16.94h-2.44v4.44c0,.43.11.74.34.95.23.21.59.31,1.09.31s.99-.12,1.43-.35l.47.81c-.26.17-.56.3-.93.4Z"/><path d="M65.37,330.19c.4.42.91.62,1.52.62.37,0,.71-.05,1.01-.16s.64-.28.98-.5l.55.79c-.35.27-.75.49-1.2.64-.45.15-.9.23-1.35.23-1.08,0-1.92-.35-2.52-1.06s-.9-1.65-.9-2.83c0-.75.13-1.42.4-2,.26-.59.64-1.05,1.13-1.39.49-.33,1.06-.5,1.71-.5.94,0,1.69.33,2.23.99.54.66.81,1.55.81,2.69,0,.22,0,.43-.03.64h-5.02c.03.82.24,1.44.65,1.86ZM65.34,325.62c-.36.41-.56,1.01-.61,1.81h3.88c0-.78-.18-1.38-.51-1.8-.33-.42-.78-.62-1.36-.62s-1.04.21-1.4.62Z"/><path d="M78.38,324.18l-.17,2.54h-.96v-1.6h-.07c-1.15,0-1.97.82-2.45,2.47v3.15h1.52v.92h-3.88v-.92h1.18v-5.63h-1.18v-.92h2.07l.23,1.77c.3-.64.66-1.12,1.08-1.45.42-.32.95-.48,1.59-.48.3,0,.65.05,1.05.16Z"/><path d="M80.79,324.18h1.02l.1,1.05c.29-.38.66-.67,1.11-.89.45-.21.9-.32,1.35-.32,1.4,0,2.1.74,2.1,2.21v5.41h-1.19v-4.54c0-.56-.03-.98-.09-1.28s-.18-.51-.36-.65-.45-.21-.82-.21c-.41,0-.79.12-1.15.37-.36.25-.65.54-.88.88v5.43h-1.19v-7.47Z"/><path d="M94.79,330.67c.09.14.25.24.47.3l-.3.85c-.73-.09-1.18-.45-1.36-1.06-.26.34-.6.6-1,.78-.4.18-.85.27-1.34.27-.75,0-1.33-.21-1.76-.62-.43-.42-.65-.97-.65-1.67,0-.77.3-1.36.9-1.77.6-.42,1.46-.62,2.59-.62h1.11v-.61c0-.53-.15-.91-.45-1.14-.3-.23-.74-.35-1.32-.35s-1.21.13-1.94.38l-.33-.91c.88-.31,1.7-.47,2.45-.47.91,0,1.6.21,2.08.64.48.43.72,1.02.72,1.77v3.59c0,.29.05.51.14.65ZM92.61,330.63c.34-.19.61-.45.83-.78v-1.91h-1.08c-.79,0-1.37.13-1.71.4s-.52.65-.52,1.16c0,.95.48,1.42,1.43,1.42.37,0,.72-.09,1.06-.28Z"/><path d="M100.71,329.81c0,.67.41,1.01,1.23,1.01.39,0,.8-.08,1.25-.25l.31.86c-.47.25-1.06.38-1.77.38-.67,0-1.21-.18-1.61-.55-.4-.37-.6-.87-.6-1.5v-7.62h-2.3v-.95h3.49v8.63Z"/><path d="M208.75,36.85v-13.74h8.58v2.32h-5.84v3.26h5.08v2.32h-5.08v3.52h5.94v2.32h-8.68Z" fill="#fff"/><path d="M219.11,36.85v-10.54h2.06l.16,1.5h.1c.13-.36.29-.67.47-.92.18-.25.39-.45.63-.6.24-.15.51-.22.82-.22.15,0,.28.01.41.04.13.03.24.06.33.1v2.48h-.82c-.28,0-.53.06-.75.17-.22.11-.4.28-.54.5-.14.22-.24.5-.31.84-.07.34-.1.74-.1,1.21v5.44h-2.46Z" fill="#fff"/><path d="M225.11,36.85v-10.54h2.06l.16,1.5h.1c.13-.36.29-.67.47-.92.18-.25.39-.45.63-.6.24-.15.51-.22.82-.22.15,0,.28.01.41.04.13.03.24.06.33.1v2.48h-.82c-.28,0-.53.06-.75.17-.22.11-.4.28-.54.5-.14.22-.24.5-.31.84-.07.34-.1.74-.1,1.21v5.44h-2.46Z" fill="#fff"/><path d="M234.75,37.09c-.92,0-1.69-.19-2.3-.57s-1.08-.98-1.39-1.79c-.31-.81-.47-1.86-.47-3.14s.16-2.34.47-3.15c.31-.81.78-1.4,1.39-1.79.61-.39,1.38-.58,2.3-.58s1.69.19,2.3.58c.61.39,1.08.98,1.39,1.79.31.81.47,1.86.47,3.15s-.16,2.33-.47,3.14c-.31.81-.78,1.41-1.39,1.79s-1.38.57-2.3.57ZM234.75,35.09c.39,0,.7-.1.94-.29.24-.19.41-.51.52-.94.11-.43.16-1,.16-1.69v-1.16c0-.71-.05-1.27-.16-1.7-.11-.43-.28-.74-.52-.94-.24-.2-.55-.3-.94-.3s-.7.1-.94.3c-.24.2-.41.51-.52.94s-.16.99-.16,1.7v1.16c0,.69.05,1.26.16,1.69.11.43.28.75.52.94.24.19.55.29.94.29Z" fill="#fff"/><path d="M240.53,36.85v-10.54h2.06l.16,1.5h.1c.13-.36.29-.67.47-.92.18-.25.39-.45.63-.6.24-.15.51-.22.82-.22.15,0,.28.01.41.04.13.03.24.06.33.1v2.48h-.82c-.28,0-.53.06-.75.17-.22.11-.4.28-.54.5-.14.22-.24.5-.31.84-.07.34-.1.74-.1,1.21v5.44h-2.46Z" fill="#fff"/><path d="M254.03,37.09c-1.2,0-2.19-.25-2.96-.76-.77-.51-1.34-1.29-1.71-2.34s-.55-2.39-.55-4.02c0-2.43.45-4.22,1.34-5.37.89-1.15,2.25-1.73,4.08-1.73.99,0,1.83.19,2.54.57.71.38,1.25.98,1.64,1.79.39.81.58,1.87.58,3.16h-2.68c0-.68-.08-1.26-.23-1.74s-.39-.84-.71-1.09c-.32-.25-.73-.37-1.24-.37-.57,0-1.05.15-1.43.44-.38.29-.66.74-.83,1.34s-.26,1.37-.26,2.3v1.46c0,.92.09,1.68.26,2.28.17.6.44,1.04.81,1.33s.84.43,1.41.43c.52,0,.95-.12,1.28-.35.33-.23.58-.59.75-1.06.17-.47.25-1.06.25-1.75h2.62c0,1.28-.2,2.32-.6,3.13-.4.81-.97,1.4-1.71,1.78-.74.38-1.62.57-2.65.57Z" fill="#fff"/><path d="M262.93,37.09c-.37,0-.72-.05-1.05-.16s-.62-.28-.87-.51c-.25-.23-.45-.53-.59-.9-.14-.37-.21-.81-.21-1.33,0-.61.11-1.14.32-1.59s.54-.82.97-1.13c.43-.31.98-.54,1.64-.7.66-.16,1.43-.24,2.31-.24v-1.12c0-.28-.04-.52-.12-.72-.08-.2-.21-.36-.39-.48-.18-.12-.41-.18-.69-.18-.33,0-.59.06-.78.19-.19.13-.32.28-.39.47-.07.19-.11.4-.11.64v.2h-2.34c-.01-.07-.02-.13-.02-.18v-.2c0-.68.15-1.25.46-1.71s.74-.8,1.3-1.03c.56-.23,1.21-.34,1.96-.34s1.35.11,1.88.32c.53.21.95.56,1.25,1.04.3.48.45,1.14.45,1.98v5c0,.21.05.38.15.49.1.11.24.17.43.17h.52v1.68c-.2.08-.43.15-.7.22-.27.07-.55.1-.86.1-.35,0-.64-.06-.89-.17-.25-.11-.44-.27-.59-.48-.15-.21-.25-.44-.3-.71h-.1c-.16.25-.36.49-.61.7-.25.21-.53.38-.86.5-.33.12-.72.18-1.17.18ZM263.85,35.11c.24,0,.46-.05.65-.16.19-.11.36-.25.5-.43.14-.18.25-.4.33-.67.08-.27.12-.56.12-.88v-.92c-.65,0-1.18.07-1.57.22-.39.15-.68.35-.86.61-.18.26-.27.57-.27.93,0,.28.04.52.12.71.08.19.2.34.37.44s.37.15.61.15Z" fill="#fff"/><path d="M272.49,37.09c-.53,0-.96-.1-1.28-.31-.32-.21-.55-.49-.69-.86-.14-.37-.21-.79-.21-1.27v-6.34h-.96v-2h1.04l.44-3.06h1.96v3.06h1.4v2h-1.4v5.88c0,.29.04.51.13.66.09.15.26.22.51.22h.76v1.7c-.17.07-.36.12-.56.17-.2.05-.4.08-.59.11-.19.03-.38.04-.55.04Z" fill="#fff"/><path d="M279.33,37.09c-.95,0-1.72-.19-2.33-.56-.61-.37-1.06-.97-1.35-1.78-.29-.81-.44-1.87-.44-3.16s.15-2.4.46-3.21c.31-.81.77-1.39,1.39-1.76.62-.37,1.4-.55,2.33-.55.87,0,1.59.17,2.17.5.58.33,1.01.88,1.3,1.65.29.77.43,1.8.43,3.11v.76h-5.54c.01.69.07,1.27.16,1.72.09.45.25.79.48,1.01.23.22.55.33.96.33.23,0,.43-.04.61-.11.18-.07.33-.19.46-.35.13-.16.22-.37.29-.63.07-.26.1-.56.1-.91h2.44c0,.67-.09,1.25-.26,1.74s-.43.9-.77,1.23c-.34.33-.75.57-1.23.73s-1.03.24-1.66.24ZM277.77,30.63h2.96c0-.48-.03-.88-.08-1.21-.05-.33-.13-.6-.23-.81-.1-.21-.24-.37-.42-.46-.18-.09-.4-.14-.65-.14-.37,0-.67.1-.9.3s-.39.49-.5.87-.17.86-.18,1.45Z" fill="#fff"/><path d="M286.67,40.75c-.51,0-.96-.11-1.36-.34-.4-.23-.72-.54-.95-.93-.23-.39-.35-.84-.35-1.35,0-.53.14-1,.43-1.39.29-.39.64-.7,1.07-.91-.32-.19-.57-.43-.75-.73s-.27-.63-.27-.99c0-.44.14-.83.43-1.18.29-.35.68-.58,1.17-.7-.43-.32-.75-.71-.98-1.17-.23-.46-.34-.97-.34-1.53,0-.71.14-1.32.43-1.84.29-.52.71-.92,1.27-1.2s1.23-.42,2.02-.42c.29,0,.57.02.83.07.26.05.5.12.71.21.31-.21.54-.48.71-.81.17-.33.27-.68.31-1.07h2.04c0,.53-.08.98-.24,1.33-.16.35-.37.63-.64.84-.27.21-.57.37-.92.49.29.29.52.64.68,1.05s.24.85.24,1.33c0,.68-.14,1.28-.41,1.8s-.67.92-1.18,1.21c-.51.29-1.14.43-1.87.43h-1.08c-.29,0-.52.06-.69.19-.17.13-.25.32-.25.57,0,.23.09.41.26.54.17.13.41.2.7.2h2.7c.87,0,1.53.28,1.99.84s.69,1.26.69,2.1c0,.63-.13,1.19-.4,1.7-.27.51-.65.91-1.14,1.21-.49.3-1.09.45-1.8.45h-3.06ZM287.55,39.03h1.88c.24,0,.45-.05.64-.16.19-.11.33-.26.44-.46.11-.2.16-.42.16-.66,0-.39-.1-.69-.31-.92-.21-.23-.48-.34-.83-.34h-1.98c-.33,0-.61.12-.83.35-.22.23-.33.54-.33.91s.11.7.32.93c.21.23.49.35.84.35ZM288.49,31.31c.44,0,.77-.15.99-.44.22-.29.33-.75.33-1.36s-.11-1.05-.33-1.34c-.22-.29-.55-.44-.99-.44s-.77.15-.99.44c-.22.29-.33.74-.33,1.34,0,.4.05.73.14,1,.09.27.24.47.44.6.2.13.45.2.74.2Z" fill="#fff"/><path d="M297.91,37.09c-.92,0-1.69-.19-2.3-.57s-1.08-.98-1.39-1.79c-.31-.81-.47-1.86-.47-3.14s.16-2.34.47-3.15c.31-.81.78-1.4,1.39-1.79.61-.39,1.38-.58,2.3-.58s1.69.19,2.3.58c.61.39,1.08.98,1.39,1.79.31.81.47,1.86.47,3.15s-.16,2.33-.47,3.14c-.31.81-.78,1.41-1.39,1.79s-1.38.57-2.3.57ZM297.91,35.09c.39,0,.7-.1.94-.29.24-.19.41-.51.52-.94.11-.43.16-1,.16-1.69v-1.16c0-.71-.05-1.27-.16-1.7s-.28-.74-.52-.94c-.24-.2-.55-.3-.94-.3s-.7.1-.94.3c-.24.2-.41.51-.52.94-.11.43-.16.99-.16,1.7v1.16c0,.69.05,1.26.16,1.69.11.43.28.75.52.94.24.19.55.29.94.29Z" fill="#fff"/><path d="M303.69,36.85v-10.54h2.06l.16,1.5h.1c.13-.36.29-.67.47-.92.18-.25.39-.45.63-.6.24-.15.51-.22.82-.22.15,0,.28.01.41.04.13.03.24.06.33.1v2.48h-.82c-.28,0-.53.06-.75.17-.22.11-.4.28-.54.5-.14.22-.24.5-.31.84-.07.34-.1.74-.1,1.21v5.44h-2.46Z" fill="#fff"/><path d="M309.69,24.67v-2.3h2.46v2.3h-2.46ZM309.69,36.85v-10.54h2.46v10.54h-2.46Z" fill="#fff"/><path d="M317.89,37.09c-.95,0-1.72-.19-2.33-.56-.61-.37-1.06-.97-1.35-1.78-.29-.81-.44-1.87-.44-3.16s.15-2.4.46-3.21c.31-.81.77-1.39,1.39-1.76.62-.37,1.4-.55,2.33-.55.87,0,1.59.17,2.17.5.58.33,1.01.88,1.3,1.65.29.77.43,1.8.43,3.11v.76h-5.54c.01.69.07,1.27.16,1.72.09.45.25.79.48,1.01.23.22.55.33.96.33.23,0,.43-.04.61-.11.18-.07.33-.19.46-.35.13-.16.22-.37.29-.63.07-.26.1-.56.1-.91h2.44c0,.67-.09,1.25-.26,1.74-.17.49-.43.9-.77,1.23-.34.33-.75.57-1.23.73-.48.16-1.03.24-1.66.24ZM316.33,30.63h2.96c0-.48-.03-.88-.08-1.21-.05-.33-.13-.6-.23-.81-.1-.21-.24-.37-.42-.46-.18-.09-.4-.14-.65-.14-.37,0-.67.1-.9.3s-.39.49-.5.87c-.11.38-.17.86-.18,1.45Z" fill="#fff"/><path d="M326.67,37.09c-.67,0-1.23-.08-1.69-.23-.46-.15-.84-.37-1.13-.65-.29-.28-.51-.61-.65-.99-.14-.38-.21-.8-.21-1.25,0-.07,0-.14,0-.23s.02-.16.03-.23h2.26c-.01.07-.02.13-.02.19v.19c.01.28.07.52.18.72.11.2.27.36.48.47.21.11.46.17.74.17s.5-.04.7-.13c.2-.09.36-.22.47-.4.11-.18.17-.41.17-.69,0-.33-.1-.59-.29-.78-.19-.19-.44-.34-.75-.47-.31-.13-.64-.26-1-.39-.33-.11-.66-.24-.99-.39-.33-.15-.63-.35-.9-.58-.27-.23-.49-.53-.66-.89-.17-.36-.25-.81-.25-1.36s.09-.99.27-1.38.44-.71.77-.96c.33-.25.72-.44,1.16-.57.44-.13.91-.19,1.42-.19s.97.06,1.38.18c.41.12.77.3,1.08.53s.54.52.71.86c.17.34.25.72.25,1.15,0,.09,0,.2-.01.31s-.02.21-.03.29h-2.24v-.36c0-.25-.05-.46-.15-.62-.1-.16-.24-.28-.42-.37-.18-.09-.4-.13-.65-.13-.19,0-.35.03-.5.08-.15.05-.27.13-.38.22-.11.09-.19.2-.24.32-.05.12-.08.27-.08.44,0,.27.08.49.25.66.17.17.39.31.67.42.28.11.59.22.92.34.35.12.7.25,1.07.4.37.15.7.33,1.01.56.31.23.56.52.75.88.19.36.29.83.29,1.42s-.1,1.14-.29,1.57-.46.79-.8,1.07c-.34.28-.74.48-1.2.61-.46.13-.96.19-1.51.19Z" fill="#fff"/><polyline points="297.64 95.21 297.64 283.46 317.48 283.46" fill="none" stroke="#000" stroke-miterlimit="10" stroke-width="1.42"/><polygon points="290.57 97.28 297.64 85.04 304.71 97.28 290.57 97.28"/><line x1="317.48" y1="113.39" x2="297.64" y2="113.39" fill="none" stroke="#312609" stroke-miterlimit="10" stroke-width="1.42"/><line x1="317.48" y1="155.91" x2="297.64" y2="155.91" fill="none" stroke="#312609" stroke-miterlimit="10" stroke-width="1.42"/><line x1="317.48" y1="198.43" x2="297.64" y2="198.43" fill="none" stroke="#312609" stroke-miterlimit="10" stroke-width="1.42"/><line x1="317.48" y1="240.94" x2="297.64" y2="240.94" fill="none" stroke="#312609" stroke-miterlimit="10" stroke-width="1.42"/></svg>