<?xml version="1.0" encoding="UTF-8"?><svg id="a" xmlns="http://www.w3.org/2000/svg" width="200mm" height="100mm" viewBox="0 0 566.9291 283.4646"><rect y=".1566" width="567.147" height="283.308" fill="#c39623"/><rect x="56.6929" y="22.6772" width="453.5433" height="232.4409" fill="#e7d5a7"/><rect x="56.6929" y="22.6772" width="453.5433" height="28.3465" fill="#dbc07b"/><path d="M257.5375,42.5195v-9.7368h3.2031c.8506,0,1.5469.1699,2.0908.5103.543.3398.9443.8667,1.2041,1.5801s.3906,1.6323.3906,2.7568c0,1.1147-.1328,2.0337-.3975,2.7563-.2646.7231-.668,1.2593-1.2119,1.6089-.543.3496-1.2451.5244-2.1045.5244h-3.1748ZM259.4789,40.8755h1.1201c.3115,0,.5811-.0474.8076-.1416.2266-.0947.418-.248.5742-.4609.1562-.2124.2715-.4912.3477-.8359.0752-.3447.1133-.7676.1133-1.2686v-.9214c0-.5005-.0381-.9307-.1133-1.2896-.0762-.3594-.1895-.6523-.3408-.8789s-.3428-.3921-.5742-.4961-.5029-.1558-.8145-.1558h-1.1201v6.4487Z"/><path d="M268.3373,42.6895c-.6523,0-1.1953-.1343-1.6299-.4038-.4346-.269-.7637-.6919-.9854-1.2686-.2217-.5762-.333-1.3179-.333-2.2251,0-.9165.1113-1.6606.333-2.2324.2217-.5713.5508-.9941.9854-1.2686.4346-.2739.9775-.4106,1.6299-.4106s1.1953.1367,1.6299.4106c.4346.2744.7627.6973.9854,1.2686.2217.5718.333,1.3159.333,2.2324,0,.9072-.1113,1.6489-.333,2.2251-.2227.5767-.5508.9995-.9854,1.2686-.4346.2695-.9775.4038-1.6299.4038ZM268.3373,41.2725c.2734,0,.4961-.0688.666-.2056.1699-.1372.293-.3589.3682-.6665.0762-.3066.1143-.7061.1143-1.1973v-.8223c0-.5005-.0381-.9023-.1143-1.2046-.0752-.3022-.1982-.5244-.3682-.666-.1699-.1421-.3926-.2129-.666-.2129-.2744,0-.4961.0708-.666.2129-.1699.1416-.293.3638-.3691.666-.0752.3022-.1133.7041-.1133,1.2046v.8223c0,.4912.0381.8906.1133,1.1973.0762.3076.1992.5293.3691.6665.1699.1367.3916.2056.666.2056Z"/><path d="M274.9984,42.6895c-.6514,0-1.1855-.1392-1.6016-.418s-.7246-.7061-.9277-1.2827c-.2031-.5762-.3047-1.3086-.3047-2.1968,0-.9165.1064-1.6631.3184-2.2393.2129-.5762.5293-.9995.9502-1.2686.4199-.2695.9473-.4038,1.5801-.4038.4531,0,.8477.0591,1.1836.1768.335.1187.6143.3003.8359.5459s.3877.5596.4961.9424.1631.8481.1631,1.396h-1.7295c0-.3965-.0303-.7158-.0918-.9565s-.1582-.4155-.291-.5244c-.1318-.1084-.3213-.1631-.5664-.1631-.2266,0-.4209.0664-.5811.1987-.1611.1323-.2793.3496-.3545.6519-.0762.3022-.1133.7134-.1133,1.2329v.8364c0,.397.0303.751.0918,1.063.0615.3115.1699.5552.3262.73s.3711.2622.6445.2622c.2363,0,.4258-.0518.5674-.1562.1416-.1035.2451-.2764.3115-.5171.0664-.2412.0996-.5601.0996-.9565h1.6865c0,.4814-.0547.9116-.1631,1.2896s-.2744.6968-.4961.9565c-.2217.2603-.5029.4585-.8438.5952-.3398.1372-.7363.2056-1.1904.2056Z"/><path d="M280.6117,42.6895c-.5957,0-1.0469-.1724-1.3535-.5171-.3076-.3447-.4609-.8906-.4609-1.6372v-5.4849h1.7432v5.0596c0,.1611.0166.3027.0498.4253.0332.123.0801.2271.1416.312s.1416.1489.2412.1914c.0986.0425.2197.0635.3613.0635.2168,0,.4062-.0659.5664-.1982.1611-.1323.2842-.3281.3691-.5884.085-.2598.127-.5645.127-.9141v-4.3511h1.7432v7.4692h-1.4873l-.1143-.9497h-.0703c-.1328.2461-.2881.4517-.4678.6167-.1797.1655-.3848.2905-.6162.3755-.2324.085-.4893.1274-.7725.1274Z"/><path d="M285.557,42.5195v-7.4692h1.4746l.127.9497h.0713c.1318-.2456.2832-.4512.4531-.6167.1709-.165.3662-.2905.5889-.3755.2217-.085.4648-.1274.7295-.1274.416,0,.7559.0898,1.0205.269.2646.1797.4541.4629.5674.8506h.085c.1221-.2456.2695-.4512.4395-.6167.1699-.165.3682-.2905.5947-.3755s.4727-.1274.7373-.1274c.3965,0,.7246.0757.9854.2266.2598.1514.4551.3828.5879.6943.1318.312.1982.7183.1982,1.2192v5.499h-1.7432v-5.0601c0-.1602-.0146-.3022-.043-.4248-.0283-.123-.0703-.2271-.127-.312s-.1328-.1489-.2266-.1914c-.0947-.0425-.208-.0635-.3408-.0635-.1982,0-.3711.0659-.5166.1982-.1475.1323-.2607.3262-.3408.5811-.0801.2554-.1201.5625-.1201.9214v4.3511h-1.7432v-5.0601c0-.1602-.0127-.3022-.0361-.4248-.0234-.123-.0654-.2271-.127-.312s-.1396-.1489-.2344-.1914-.2031-.0635-.3252-.0635c-.208,0-.3857.0659-.5322.1982s-.2598.3262-.3398.5811c-.0801.2554-.1201.5625-.1201.9214v4.3511h-1.7441Z"/><path d="M298.2279,42.6895c-.6709,0-1.2207-.1323-1.6504-.3965-.4307-.2646-.749-.6851-.957-1.2617-.208-.5762-.3115-1.3228-.3115-2.2393,0-.9448.1084-1.7031.3252-2.2749.2178-.5713.5459-.9873.9854-1.2471s.9902-.3896,1.6514-.3896c.6143,0,1.127.1182,1.5381.354.4111.2363.7178.626.9209,1.1694s.3047,1.2778.3047,2.2041v.5386h-3.9258c.0088.4912.0469.8975.1133,1.2188s.1797.5596.3398.7158c.1611.1558.3877.2339.6807.2339.1602,0,.3047-.0259.4326-.0781.127-.0518.2354-.1348.3252-.248s.1582-.2622.2061-.4463c.0469-.1846.0703-.3994.0703-.645h1.7295c0,.4727-.0615.8838-.1846,1.2329-.1221.3501-.3047.6406-.5449.8721-.2412.2314-.5322.4038-.8721.5171s-.7324.1699-1.1768.1699ZM297.1224,38.1118h2.0977c0-.3403-.0186-.626-.0566-.8574-.0371-.2314-.0918-.4229-.1631-.5742-.0703-.1509-.1699-.2598-.2969-.3262-.1279-.0659-.2812-.0991-.4609-.0991-.2646,0-.4775.0708-.6377.2129-.1611.1416-.2793.3472-.3545.6162-.0762.2695-.1182.6118-.1279,1.0278Z"/><path d="M302.182,42.5195v-7.4692h1.4746l.127.9497h.0713c.1318-.2456.2881-.4512.4678-.6167.1797-.165.3848-.2905.6162-.3755s.4844-.1274.7588-.1274c.4062,0,.7441.0757,1.0127.2266.2695.1514.4727.3877.6104.7085.1367.3213.2051.7324.2051,1.2334v5.4707h-1.7578v-5.0459c0-.1699-.0137-.3164-.042-.439-.0283-.123-.0762-.2271-.1416-.312-.0664-.085-.1494-.1489-.248-.1914-.0996-.0425-.2197-.0635-.3613-.0635-.208,0-.3926.0659-.5527.1982-.1611.1323-.2842.3262-.3691.5811-.085.2554-.127.5625-.127.9214v4.3511h-1.7441Z"/><path d="M310.6156,42.6895c-.3789,0-.6807-.0732-.9072-.2197-.2275-.146-.3896-.3491-.4893-.6094-.0996-.2598-.1484-.5596-.1484-.8999v-4.4927h-.6807v-1.4175h.7373l.3115-2.1685h1.3887v2.1685h.9922v1.4175h-.9922v4.1665c0,.208.0312.3643.0928.4678.0605.104.1816.1562.3613.1562h.5381v1.2046c-.123.0474-.2549.0874-.3965.1206-.1416.0327-.2812.0586-.418.0776-.1377.019-.2676.0283-.3896.0283Z"/><rect x="65.1968" y="62.3622" width="436.5354" height="70.8661" fill="#efddf7" stroke="#582a6b" stroke-miterlimit="10" stroke-width="1.4173"/><rect x="65.1968" y="62.3622" width="436.5354" height="28.3465" fill="#dfbbef" stroke="#582a6b" stroke-miterlimit="10" stroke-width="1.4173"/><path d="M77.3432,82.3745c-.4443,0-.8574-.0474-1.2402-.1416s-.7158-.2524-.999-.4746-.5059-.522-.666-.9004c-.1611-.3774-.2412-.8501-.2412-1.417v-.2695h1.4463v.2837c0,.3877.0605.7041.1836.9497s.3096.4248.5605.5386c.25.1133.5596.1699.9277.1699.208,0,.3994-.019.5742-.0566s.3311-.0967.4678-.1772c.1367-.0801.2549-.1792.3545-.2979.0986-.1177.1748-.2598.2266-.4248.0518-.1655.0781-.3521.0781-.5601,0-.293-.0664-.5386-.1982-.7368-.1328-.1987-.3096-.3638-.5322-.4961-.2217-.1323-.4697-.2529-.7441-.3613-.2734-.1089-.5576-.2173-.8496-.3262-.293-.1084-.5791-.2314-.8574-.3687-.2793-.1367-.5293-.3066-.752-.5103-.2217-.2031-.3965-.4512-.5244-.7441-.127-.2925-.1914-.6519-.1914-1.0771,0-.4536.0762-.8501.2275-1.1904.1504-.3403.3613-.6187.6299-.8359.2695-.2173.5889-.3779.957-.4819s.7656-.1562,1.1904-.1562c.4258,0,.8174.0498,1.1768.1489.3584.0991.668.2554.9277.4678s.4629.4888.6104.8291c.1455.3403.2188.7559.2188,1.2471v.2271h-1.4307v-.2129c0-.3115-.0547-.5737-.1631-.7866-.1094-.2124-.2725-.3755-.4893-.4888-.2178-.1133-.4912-.1699-.8223-.1699-.3115,0-.583.0425-.8145.1274s-.4111.2222-.5391.4111c-.127.189-.1914.4297-.1914.7227,0,.2837.0664.52.1982.7085.1328.1895.3096.3501.5322.4819.2217.1328.4697.2505.7441.3545.2734.104.5566.2104.8496.3188.293.1089.5771.2319.8506.3687.2744.1372.5244.3096.751.5171.2275.208.4043.4609.5322.7583.127.2979.1914.6592.1914,1.0845,0,.6992-.1328,1.2661-.3975,1.7007s-.6357.751-1.1123.9497c-.4775.1982-1.0273.2974-1.6514.2974Z"/><path d="M84.1605,82.3745c-.6338,0-1.1504-.1343-1.5518-.4038-.4023-.269-.6973-.6919-.8867-1.2686-.1885-.5762-.2832-1.3179-.2832-2.2251,0-.9355.0996-1.689.2979-2.2607.1982-.5713.5029-.9873.9141-1.2471s.9375-.3896,1.5801-.3896c.5674,0,1.04.1157,1.418.3472s.6611.6094.8496,1.1338c.1895.5244.2842,1.2261.2842,2.1045v.6099h-3.9824c.0088.5762.0566,1.0488.1416,1.417.085.3687.2266.6426.4248.8223s.4678.269.8076.269c.1982,0,.373-.0327.5244-.0991.1514-.0659.2812-.165.3896-.2974.1094-.1323.1943-.3027.2559-.5103.0605-.208.0967-.4536.1064-.7373h1.3037c-.0098.4443-.0713.8389-.1846,1.1836-.1133.3452-.2812.6309-.5029.8574-.2227.2266-.4941.3994-.8154.5171-.3213.1182-.6846.1772-1.0908.1772ZM82.8139,77.8818h2.5938c0-.397-.0234-.7349-.0713-1.0137-.0469-.2783-.1182-.5078-.2119-.687-.0947-.1797-.2197-.3096-.376-.3901-.1562-.0801-.3428-.1201-.5596-.1201-.3311,0-.5928.0874-.7871.2622-.1934.1748-.3379.4248-.4316.751-.0947.3262-.1465.7251-.1562,1.1978Z"/><path d="M90.3969,82.3745c-.6143,0-1.1152-.1392-1.5029-.418s-.6729-.7061-.8574-1.2827c-.1836-.5762-.2764-1.3086-.2764-2.1968,0-.9258.0996-1.6748.2979-2.2466.1982-.5713.4932-.9897.8857-1.2544.3916-.2642.8857-.3965,1.4814-.3965.4346,0,.8047.0591,1.1123.1768.3066.1187.5576.3003.751.5459s.3359.5576.4258.9355c.0889.3779.1348.8174.1348,1.3179h-1.3184c0-.4438-.0332-.8027-.0996-1.0771-.0664-.2739-.1816-.4746-.3467-.6021-.166-.1279-.3906-.1914-.6738-.1914-.2646,0-.4932.0776-.6875.2339-.1934.1558-.3398.4155-.4395.7793-.0986.3638-.1484.8623-.1484,1.4951v.5957c0,.5103.043.9517.1279,1.3252.085.373.2217.6587.4111.8574.1885.1982.4336.2974.7363.2974.2832,0,.5078-.0659.6738-.1982.165-.1323.2852-.3354.3613-.6094.0752-.2739.1133-.6284.1133-1.063h1.29c0,.4253-.0459.8198-.1348,1.1831-.0898.3643-.2295.6782-.4189.9429-.1885.2646-.4414.4727-.7578.6235s-.6973.2266-1.1406.2266Z"/><path d="M95.5414,82.3745c-.3496,0-.6211-.0732-.8154-.2197-.1934-.146-.3252-.3472-.3965-.6021-.0713-.2554-.1064-.5337-.1064-.8364v-4.8613h-.666v-1.1055h.6943l.2412-2.126h1.0488v2.126h1.0059v1.1055h-1.0059v4.7622c0,.2173.0332.3779.0986.4819.0664.104.1846.1558.3545.1558h.5527v.9072c-.1035.0376-.2148.0732-.333.1064-.1182.0327-.2334.0586-.3467.0776s-.2227.0283-.3262.0283Z"/><path d="M97.5814,73.3887v-1.4312h1.333v1.4312h-1.333ZM97.5814,82.2046v-7.4551h1.333v7.4551h-1.333Z"/><path d="M102.9389,82.3745c-.6045,0-1.1123-.1323-1.5234-.3965-.4111-.2646-.7178-.6851-.9209-1.2617-.2031-.5762-.3047-1.3228-.3047-2.2393,0-.9258.1016-1.6748.3047-2.2466.2031-.5713.5098-.9897.9209-1.2544.4111-.2642.9189-.3965,1.5234-.3965s1.1133.1323,1.5244.3965c.4102.2646.7197.6831.9277,1.2544.208.5718.3115,1.3208.3115,2.2466,0,.9165-.1035,1.6631-.3115,2.2393-.208.5767-.5176.9971-.9277,1.2617-.4111.2642-.9199.3965-1.5244.3965ZM102.9389,81.2549c.3311,0,.5957-.0825.7939-.248.1982-.165.3477-.4321.4463-.8008.0996-.3682.1494-.8501.1494-1.4458v-.5669c0-.5952-.0498-1.0771-.1494-1.4453-.0986-.3687-.248-.6382-.4463-.8081s-.4629-.2549-.7939-.2549c-.3213,0-.5859.085-.793.2549-.208.1699-.3574.4395-.4473.8081-.0898.3682-.1338.8501-.1338,1.4453v.5669c0,.5957.0439,1.0776.1338,1.4458.0898.3687.2393.6357.4473.8008.207.1655.4717.248.793.248Z"/><path d="M106.9496,82.2046v-7.4551h1.1064l.0986.978h.085c.1328-.2646.291-.4819.4746-.6519.1846-.1704.3926-.2954.624-.376.2314-.0801.4795-.1201.7441-.1201.3779,0,.6992.0684.9639.2051.2646.1372.4678.3594.6094.6665s.2129.7158.2129,1.2261v5.5273h-1.333v-5.23c0-.1982-.0186-.3706-.0566-.5171-.0371-.1465-.0947-.2695-.1699-.3687s-.1729-.1748-.29-.2266c-.1182-.0522-.2627-.0781-.4326-.0781-.2461,0-.4678.0781-.666.2339s-.3545.3853-.4678.6875-.1699.6753-.1699,1.1196v4.3794h-1.333Z"/><path d="M115.6664,82.2046v-9.7227h1.4736v4.124h3.374v-4.124h1.46v9.7227h-1.46v-4.3086h-3.374v4.3086h-1.4736Z"/><path d="M126.098,82.3745c-.6338,0-1.1504-.1343-1.5518-.4038-.4023-.269-.6973-.6919-.8867-1.2686-.1885-.5762-.2832-1.3179-.2832-2.2251,0-.9355.0996-1.689.2979-2.2607.1982-.5713.5029-.9873.9141-1.2471s.9375-.3896,1.5801-.3896c.5674,0,1.04.1157,1.418.3472s.6611.6094.8496,1.1338c.1895.5244.2842,1.2261.2842,2.1045v.6099h-3.9824c.0088.5762.0566,1.0488.1416,1.417.085.3687.2266.6426.4248.8223s.4678.269.8076.269c.1982,0,.373-.0327.5244-.0991.1514-.0659.2812-.165.3896-.2974.1094-.1323.1943-.3027.2559-.5103.0605-.208.0967-.4536.1064-.7373h1.3037c-.0098.4443-.0713.8389-.1846,1.1836-.1133.3452-.2812.6309-.5029.8574-.2227.2266-.4941.3994-.8154.5171-.3213.1182-.6846.1772-1.0908.1772ZM124.7514,77.8818h2.5938c0-.397-.0234-.7349-.0713-1.0137-.0469-.2783-.1182-.5078-.2119-.687-.0947-.1797-.2197-.3096-.376-.3901-.1562-.0801-.3428-.1201-.5596-.1201-.3311,0-.5928.0874-.7871.2622-.1934.1748-.3379.4248-.4316.751-.0947.3262-.1465.7251-.1562,1.1978Z"/><path d="M131.5404,82.3745c-.2549,0-.4961-.0376-.7227-.1133s-.4277-.1934-.6025-.3545c-.1748-.1602-.3115-.3706-.4111-.6304s-.1484-.5742-.1484-.9429c0-.4058.0723-.7651.2197-1.0771.1465-.3115.3701-.5762.6729-.7935s.6924-.3828,1.1689-.4961c.4775-.1133,1.0371-.1699,1.6797-.1699v-.9639c0-.2456-.0352-.4536-.1064-.6235-.0703-.1704-.1836-.3022-.3398-.397-.1562-.0942-.3613-.1416-.6162-.1416-.3125,0-.5488.0542-.709.1626-.1611.1089-.2695.2505-.3262.4253-.0566.1753-.085.3711-.085.5884v.1416h-1.2617c-.0088-.0469-.0137-.0923-.0137-.1348v-.1484c0-.501.1064-.9097.3184-1.2261.2129-.3164.5039-.5459.8721-.6875s.7891-.2124,1.2617-.2124c.4814,0,.8945.0732,1.2402.2197.3447.1465.6113.3848.8008.7153.1885.3311.2832.7749.2832,1.3325v3.9258c0,.1611.0352.2812.1064.3613.0703.0806.1631.1206.2764.1206h.4248v.8931c-.123.0566-.2666.1064-.4316.1489-.166.0425-.3428.0635-.5322.0635-.2266,0-.4131-.0449-.5596-.1343-.1465-.0898-.2598-.2148-.3398-.376-.0811-.1602-.1348-.335-.1631-.5244h-.0713c-.123.1987-.2715.3784-.4463.5386-.1748.1611-.3809.2861-.6162.376-.2363.0894-.5107.1343-.8223.1343ZM131.9652,81.2549c.1895,0,.3691-.04.5391-.1206.1699-.0801.3213-.1982.4531-.354.1328-.1558.2393-.3472.3193-.5742.0801-.2266.1201-.4863.1201-.7793v-.7231c-.5762,0-1.0391.0591-1.3887.1772s-.6006.2861-.751.5034c-.1514.2173-.2275.4771-.2275.7793,0,.2363.0361.437.1064.6025.0713.1655.1777.2881.3193.3682.1416.0806.3115.1206.5098.1206Z"/><path d="M138.2582,82.3745c-.4727,0-.874-.1323-1.2041-.3965-.3311-.2646-.5791-.6851-.7441-1.2617-.166-.5762-.248-1.3369-.248-2.2817,0-.9165.0801-1.6558.2402-2.2183.1611-.562.4043-.9756.7305-1.2402.3262-.2642.7207-.3965,1.1836-.3965.2646,0,.5.0376.708.1133s.3906.189.5459.3398c.1562.1514.2861.3403.3896.5674h.085v-3.6426h1.3184v10.2471h-1.0625l-.1133-.978h-.0859c-.1416.3403-.3613.6167-.6582.8291-.2979.2129-.6592.3188-1.085.3188ZM138.6693,81.1982c.3027,0,.5459-.0942.7305-.2832.1836-.189.3203-.4678.4111-.8364.0889-.3687.1338-.8174.1338-1.3467v-.4673c0-.4346-.0303-.8081-.0918-1.1201-.0615-.3115-.1445-.5669-.248-.7651-.1045-.1982-.2383-.3472-.4043-.4463-.165-.0996-.3467-.1489-.5449-.1489-.2842,0-.5156.085-.6943.2549-.1797.1704-.3125.4351-.3975.7939s-.127.8315-.127,1.4175v.4956c0,.5674.04,1.0327.1201,1.3965s.2129.6304.3965.8008c.1846.1699.4229.2549.7158.2549Z"/><path d="M145.2455,82.3745c-.6328,0-1.1504-.1343-1.5518-.4038-.4014-.269-.6973-.6919-.8857-1.2686-.1895-.5762-.2832-1.3179-.2832-2.2251,0-.9355.0986-1.689.2969-2.2607.1992-.5713.5039-.9873.915-1.2471s.9375-.3896,1.5801-.3896c.5664,0,1.0391.1157,1.417.3472s.6611.6094.8506,1.1338c.1885.5244.2832,1.2261.2832,2.1045v.6099h-3.9824c.0098.5762.0566,1.0488.1416,1.417.085.3687.2266.6426.4258.8223.1982.1797.4668.269.8076.269.1982,0,.373-.0327.5244-.0991.1504-.0659.2812-.165.3896-.2974s.1934-.3027.2549-.5103c.0615-.208.0967-.4536.1064-.7373h1.3037c-.0098.4443-.0703.8389-.1836,1.1836-.1143.3452-.2812.6309-.5039.8574-.2217.2266-.4932.3994-.8145.5171-.3213.1182-.6855.1772-1.0918.1772ZM143.8998,77.8818h2.5928c0-.397-.0234-.7349-.0703-1.0137-.0479-.2783-.1182-.5078-.2129-.687-.0947-.1797-.2197-.3096-.375-.3901-.1562-.0801-.3428-.1201-.5605-.1201-.3301,0-.5928.0874-.7861.2622-.1943.1748-.3379.4248-.4326.751s-.1465.7251-.1553,1.1978Z"/><path d="M149.1283,82.2046v-7.4551h1.0918l.0996,1.063h.085c.085-.2554.1885-.4746.3115-.6592.123-.1841.2715-.3257.4463-.4253.1748-.0991.3711-.1484.5879-.1484.0947,0,.1797.0049.2559.0142.0752.0093.1465.0283.2119.0566v1.3604h-.4678c-.1982,0-.3779.0405-.5381.1206-.1611.0806-.2979.2031-.4111.3687s-.1982.3755-.2549.6304c-.0566.2554-.085.5527-.085.8931v4.1812h-1.333Z"/><path d="M74.9349,110.5513v-9.7227h1.4023l3.0898,5.7969c.0381.0566.0801.1367.1279.2407s.0928.2104.1348.3188c.042.1089.0781.2056.1064.2905h.0703c0-.1606-.002-.3188-.0059-.4746-.0059-.1562-.0078-.2905-.0078-.4038v-5.7686h1.418v9.7227h-1.375l-3.1191-5.8677c-.0469-.104-.1074-.2432-.1836-.418s-.1416-.3428-.1992-.5034h-.0566v6.7891h-1.4023Z"/><path d="M84.5014,110.7212c-.2549,0-.4961-.0376-.7227-.1133s-.4277-.1934-.6025-.3545c-.1748-.1602-.3115-.3706-.4111-.6304s-.1484-.5742-.1484-.9429c0-.4058.0723-.7651.2197-1.0771.1465-.3115.3701-.5762.6729-.7935s.6924-.3828,1.1699-.4961c.4766-.1133,1.0371-.1699,1.6797-.1699v-.9639c0-.2456-.0361-.4536-.1074-.6235-.0703-.1704-.1836-.3022-.3398-.397-.1562-.0942-.3613-.1416-.6162-.1416-.3115,0-.5479.0542-.708.1626-.1621.1089-.2695.2505-.3262.4253-.0566.1753-.0859.3711-.0859.5884v.1416h-1.2617c-.0088-.0469-.0137-.0923-.0137-.1348v-.1484c0-.501.1064-.9097.3184-1.2261.2129-.3164.5039-.5459.873-.6875.3672-.1416.7881-.2124,1.2607-.2124.4814,0,.8955.0732,1.2402.2197s.6123.3848.8008.7153c.1885.3311.2832.7749.2832,1.3325v3.9258c0,.1611.0361.2812.1064.3613.0703.0806.1631.1206.2764.1206h.4248v.8931c-.123.0566-.2666.1064-.4316.1489-.166.0425-.3428.0635-.5312.0635-.2266,0-.4141-.0449-.5605-.1343-.1465-.0898-.2598-.2148-.3398-.376-.0801-.1602-.1348-.335-.1631-.5244h-.0713c-.123.1987-.2715.3784-.4453.5386-.1758.1611-.3809.2861-.6172.376-.2363.0894-.5098.1343-.8223.1343ZM84.9271,109.6016c.1885,0,.3682-.04.5381-.1206.1709-.0801.3213-.1982.4541-.354.1318-.1558.2383-.3472.3184-.5742.0801-.2266.1211-.4863.1211-.7793v-.7231c-.5771,0-1.04.0591-1.3896.1772s-.6006.2861-.751.5034c-.1514.2173-.2266.4771-.2266.7793,0,.2363.0352.437.1055.6025.0713.1655.1777.2881.3193.3682.1416.0806.3115.1206.5107.1206Z"/><path d="M89.2924,110.5513v-7.4551h1.1055l.0996.978h.084c.1328-.2646.2861-.4819.4609-.6519.1748-.1704.373-.2954.5957-.376.2217-.0801.4609-.1201.7148-.1201.3975,0,.7285.0874.9922.2622.2656.1748.4541.4697.5674.8857h.0713c.1416-.2646.2969-.4819.4668-.6519.1709-.1704.3672-.2954.5889-.376.2217-.0801.4658-.1201.7295-.1201.3594,0,.666.0684.9219.2051.2549.1372.4512.3569.5879.6592.1367.3027.2051.7041.2051,1.2051v5.5557h-1.3184v-5.2441c0-.189-.0156-.3564-.0488-.5029s-.085-.2695-.1562-.3687c-.0703-.0991-.1621-.1748-.2754-.2266-.1143-.0522-.2461-.0781-.3975-.0781-.2363,0-.4463.0781-.6309.2339s-.3311.3853-.4395.6875-.1631.6753-.1631,1.1196v4.3794h-1.3184v-5.2441c0-.189-.0156-.3564-.0488-.5029s-.083-.2695-.1484-.3687c-.0664-.0991-.1562-.1748-.2695-.2266-.1133-.0522-.251-.0781-.4121-.0781-.2363,0-.4482.0781-.6367.2339-.1895.1558-.3359.3853-.4395.6875-.1045.3022-.1562.6753-.1562,1.1196v4.3794h-1.332Z"/><path d="M101.4096,110.7212c-.6328,0-1.1504-.1343-1.5508-.4038-.4023-.269-.6973-.6919-.8867-1.2686-.1895-.5762-.2832-1.3179-.2832-2.2251,0-.9355.0996-1.689.2969-2.2607.1992-.5713.5039-.9873.915-1.2471s.9375-.3896,1.5801-.3896c.5674,0,1.04.1157,1.417.3472.3789.2314.6621.6094.8506,1.1338s.2842,1.2261.2842,2.1045v.6099h-3.9824c.0088.5762.0566,1.0488.1406,1.417.0859.3687.2266.6426.4258.8223.1982.1797.4668.269.8076.269.1982,0,.373-.0327.5244-.0991.1504-.0659.2812-.165.3896-.2974s.1943-.3027.2549-.5103c.0615-.208.0977-.4536.1074-.7373h1.3027c-.0098.4443-.0703.8389-.1836,1.1836-.1133.3452-.2812.6309-.5039.8574-.2217.2266-.4932.3994-.8145.5171-.3213.1182-.6855.1772-1.0918.1772ZM100.0639,106.2285h2.5938c0-.397-.0234-.7349-.0713-1.0137-.0479-.2783-.1182-.5078-.2119-.687-.0957-.1797-.2207-.3096-.376-.3901-.1562-.0801-.3428-.1201-.5596-.1201-.3311,0-.5938.0874-.7871.2622s-.3379.4248-.4316.751c-.0957.3262-.1465.7251-.1562,1.1978Z"/><path d="M106.7103,111.2456l2.793-11.1118h1.0625l-2.792,11.1118h-1.0635Z"/><path d="M115.4974,110.5513l-2.5791-9.7227h1.5596l1.5449,6.1367c.0371.1606.0781.3521.1201.5742s.0869.4419.1348.6592c.0469.2173.085.4106.1133.5811h.085c.0195-.104.0469-.2432.085-.4185.0381-.1743.0801-.3823.1279-.6235.0469-.2407.0996-.498.1562-.7725l1.5303-6.1367h1.502l-2.5654,9.7227h-1.8145Z"/><path d="M121.89,110.7212c-.2549,0-.4961-.0376-.7227-.1133s-.4277-.1934-.6025-.3545c-.1748-.1602-.3115-.3706-.4111-.6304s-.1484-.5742-.1484-.9429c0-.4058.0723-.7651.2197-1.0771.1465-.3115.3701-.5762.6729-.7935s.6924-.3828,1.1699-.4961c.4766-.1133,1.0371-.1699,1.6797-.1699v-.9639c0-.2456-.0361-.4536-.1074-.6235-.0703-.1704-.1836-.3022-.3398-.397-.1562-.0942-.3613-.1416-.6162-.1416-.3115,0-.5479.0542-.708.1626-.1621.1089-.2695.2505-.3262.4253-.0566.1753-.0859.3711-.0859.5884v.1416h-1.2617c-.0088-.0469-.0137-.0923-.0137-.1348v-.1484c0-.501.1064-.9097.3184-1.2261.2129-.3164.5039-.5459.873-.6875.3672-.1416.7881-.2124,1.2607-.2124.4814,0,.8955.0732,1.2402.2197s.6123.3848.8008.7153c.1885.3311.2832.7749.2832,1.3325v3.9258c0,.1611.0361.2812.1064.3613.0703.0806.1631.1206.2764.1206h.4248v.8931c-.123.0566-.2666.1064-.4316.1489-.166.0425-.3428.0635-.5312.0635-.2266,0-.4141-.0449-.5605-.1343-.1465-.0898-.2598-.2148-.3398-.376-.0801-.1602-.1348-.335-.1631-.5244h-.0713c-.123.1987-.2715.3784-.4453.5386-.1758.1611-.3809.2861-.6172.376-.2363.0894-.5098.1343-.8223.1343ZM122.3158,109.6016c.1885,0,.3682-.04.5381-.1206.1709-.0801.3213-.1982.4541-.354.1318-.1558.2383-.3472.3184-.5742.0801-.2266.1211-.4863.1211-.7793v-.7231c-.5771,0-1.04.0591-1.3896.1772s-.6006.2861-.751.5034c-.1514.2173-.2266.4771-.2266.7793,0,.2363.0352.437.1055.6025.0713.1655.1777.2881.3193.3682.1416.0806.3115.1206.5107.1206Z"/><path d="M126.6801,110.5513v-10.2471h1.333v10.2471h-1.333Z"/><path d="M131.2728,110.7212c-.5664,0-1.0059-.1606-1.3184-.4819-.3115-.3208-.4678-.8594-.4678-1.6157v-5.5273h1.3184v5.2158c0,.1982.0186.3706.0566.5171s.0947.272.1699.3755c.0752.1045.1748.1797.2979.2271s.2637.0708.4258.0708c.2539,0,.4814-.0757.6797-.2266.1982-.1514.3545-.3804.4678-.6875s.1699-.6826.1699-1.127v-4.3652h1.3184v7.4551h-1.0908l-.1143-.9922h-.0713c-.1318.2646-.29.4844-.4746.6592-.1836.1748-.3916.3022-.623.3828-.2324.0801-.4805.1201-.7441.1201Z"/><path d="M138.3734,110.7212c-.6338,0-1.1504-.1343-1.5518-.4038-.4023-.269-.6973-.6919-.8867-1.2686-.1885-.5762-.2832-1.3179-.2832-2.2251,0-.9355.0996-1.689.2979-2.2607.1982-.5713.5029-.9873.915-1.2471.4102-.2598.9375-.3896,1.5801-.3896.5664,0,1.0391.1157,1.417.3472s.6611.6094.8506,1.1338c.1885.5244.2832,1.2261.2832,2.1045v.6099h-3.9824c.0098.5762.0566,1.0488.1416,1.417.085.3687.2266.6426.4248.8223.1992.1797.4678.269.8086.269.1973,0,.373-.0327.5234-.0991.1514-.0659.2812-.165.3906-.2974.1084-.1323.1934-.3027.2549-.5103.0615-.208.0967-.4536.1064-.7373h1.3037c-.0098.4443-.0713.8389-.1846,1.1836-.1133.3452-.2812.6309-.5029.8574s-.4932.3994-.8154.5171c-.3203.1182-.6846.1772-1.0908.1772ZM137.0267,106.2285h2.5938c0-.397-.0234-.7349-.0703-1.0137-.0479-.2783-.1191-.5078-.2129-.687-.0947-.1797-.2197-.3096-.375-.3901-.1562-.0801-.3438-.1201-.5605-.1201-.3301,0-.5928.0874-.7871.2622-.1934.1748-.3379.4248-.4316.751-.0947.3262-.1465.7251-.1562,1.1978Z"/><path d="M144.5814,110.5513v-9.7227h3.4717c.6807,0,1.2217.125,1.623.3755s.6943.6001.8779,1.0488c.1855.4487.2773.9663.2773,1.5518,0,.6143-.1045,1.1553-.3125,1.623-.207.4678-.5117.834-.9141,1.0981-.4014.2646-.9043.397-1.5098.397h-2.041v3.6284h-1.4727ZM146.0541,105.6475h1.8291c.4814,0,.8457-.1606,1.0908-.4819.2461-.3213.3691-.7607.3691-1.3184,0-.3965-.0527-.7251-.1562-.9849s-.2646-.4536-.4814-.5811c-.2178-.1274-.5107-.1914-.8789-.1914h-1.7725v3.5576Z"/><path d="M153.2826,110.7212c-.2539,0-.4961-.0376-.7227-.1133s-.4277-.1934-.6016-.3545c-.1758-.1602-.3125-.3706-.4111-.6304-.0996-.2598-.1494-.5742-.1494-.9429,0-.4058.0732-.7651.2207-1.0771.1465-.3115.3701-.5762.6729-.7935.3018-.2173.6924-.3828,1.1689-.4961s1.0371-.1699,1.6797-.1699v-.9639c0-.2456-.0352-.4536-.1064-.6235-.0713-.1704-.1846-.3022-.3398-.397-.1562-.0942-.3623-.1416-.6162-.1416-.3125,0-.5488.0542-.709.1626-.1611.1089-.2695.2505-.3262.4253-.0566.1753-.085.3711-.085.5884v.1416h-1.2617c-.0088-.0469-.0146-.0923-.0146-.1348v-.1484c0-.501.1074-.9097.3193-1.2261.2129-.3164.5029-.5459.8721-.6875.3682-.1416.7891-.2124,1.2617-.2124.4814,0,.8945.0732,1.2402.2197.3438.1465.6113.3848.8008.7153.1885.3311.2832.7749.2832,1.3325v3.9258c0,.1611.0352.2812.1055.3613.0713.0806.1641.1206.2773.1206h.4248v.8931c-.123.0566-.2666.1064-.4326.1489-.165.0425-.3418.0635-.5312.0635-.2266,0-.4141-.0449-.5596-.1343-.1475-.0898-.2607-.2148-.3408-.376-.0801-.1602-.1348-.335-.1621-.5244h-.0713c-.123.1987-.2725.3784-.4463.5386-.1758.1611-.3809.2861-.6172.376-.2363.0894-.5098.1343-.8223.1343ZM153.7084,109.6016c.1895,0,.3691-.04.5391-.1206.1699-.0801.3203-.1982.4531-.354s.2383-.3472.3184-.5742c.0801-.2266.1211-.4863.1211-.7793v-.7231c-.5762,0-1.0391.0591-1.3887.1772s-.6006.2861-.752.5034c-.1504.2173-.2266.4771-.2266.7793,0,.2363.0352.437.1064.6025s.1768.2881.3193.3682c.1406.0806.3115.1206.5098.1206Z"/><path d="M158.0736,101.7354v-1.4312h1.332v1.4312h-1.332ZM158.0736,110.5513v-7.4551h1.332v7.4551h-1.332Z"/><path d="M160.9506,110.5513v-7.4551h1.0918l.0996,1.063h.084c.0859-.2554.1895-.4746.3125-.6592.123-.1841.2715-.3257.4463-.4253.1748-.0991.3701-.1484.5879-.1484.0947,0,.1797.0049.2549.0142.0762.0093.1465.0283.2129.0566v1.3604h-.4678c-.1982,0-.3779.0405-.5381.1206-.1611.0806-.2979.2031-.4111.3687-.1143.1655-.1982.3755-.2549.6304-.0566.2554-.0859.5527-.0859.8931v4.1812h-1.332Z"/><path d="M166.8471,110.7212c-.4453,0-.8203-.0542-1.127-.1626-.3066-.1089-.5547-.2598-.7441-.4536s-.3281-.4253-.418-.6948c-.0898-.269-.1348-.5645-.1348-.8857,0-.0469.002-.0991.0068-.1558s.0117-.1084.0215-.1558h1.2471c-.0098.0566-.0137.106-.0137.1484v.1206c0,.2554.0469.4727.1406.6519.0957.1797.2295.3145.4043.4043s.3848.1343.6309.1343c.2363,0,.4395-.0425.6094-.1274s.3027-.21.3965-.3755c.0947-.165.1426-.3706.1426-.6167,0-.2642-.0713-.4746-.2129-.6304-.1416-.1562-.3262-.2837-.5527-.3828s-.4678-.2007-.7227-.3047c-.2266-.085-.4561-.1821-.6875-.2905-.2324-.1089-.4414-.2456-.6309-.4111-.1895-.165-.3398-.3706-.4531-.6167-.1133-.2456-.1699-.5571-.1699-.9355,0-.3398.0566-.6377.1699-.8926.1133-.2554.2754-.4702.4883-.645s.4629-.3047.752-.3896c.2871-.085.6016-.1274.9414-.1274.3594,0,.6787.0425.957.1274.2793.085.5156.2104.709.3755.1934.1655.3398.3662.4395.6025s.1484.4961.1484.7793c0,.0757-.002.1514-.0068.2271s-.0117.1416-.0205.1982h-1.2344v-.2979c0-.2173-.0391-.3965-.1191-.5386-.0811-.1416-.1973-.248-.3477-.3188-.1514-.0708-.3359-.106-.5527-.106-.1797,0-.3359.021-.4688.0635-.1318.0425-.2402.1089-.3252.1987s-.1465.1909-.1846.3047c-.0371.1133-.0566.2363-.0566.3682,0,.2271.0615.4111.1846.5527.1221.1421.2861.2578.4893.3477s.4219.1816.6582.2764c.2363.085.4805.1816.7305.2905.25.1084.4844.2432.7012.4038.2178.1606.3906.3687.5176.6235.127.2554.1914.5859.1914.9922s-.0615.7559-.1836,1.0488c-.123.293-.2959.5337-.5176.7227-.2227.1895-.4844.3286-.7871.4185-.3027.0894-.6377.1343-1.0059.1343Z"/><rect x="65.1968" y="141.7323" width="436.5354" height="70.8661" fill="#efddf7" stroke="#582a6b" stroke-miterlimit="10" stroke-width="1.4173"/><rect x="65.1968" y="141.7323" width="436.5354" height="28.3465" fill="#dfbbef" stroke="#582a6b" stroke-miterlimit="10" stroke-width="1.4173"/><path d="M77.3432,161.7451c-.4443,0-.8574-.0479-1.2402-.1416-.3828-.0947-.7158-.2529-.999-.4746-.2832-.2227-.5059-.5225-.666-.9004-.1611-.3779-.2412-.8506-.2412-1.417v-.2695h1.4463v.2832c0,.3877.0605.7041.1836.9502.123.2451.3096.4248.5605.5381.25.1133.5596.1699.9277.1699.208,0,.3994-.0186.5742-.0566.1748-.0371.3311-.0967.4678-.1768s.2549-.1797.3545-.2979c.0986-.1182.1748-.2598.2266-.4248.0518-.166.0781-.3525.0781-.5605,0-.293-.0664-.5381-.1982-.7363-.1328-.1992-.3096-.3643-.5322-.4961-.2217-.1328-.4697-.2529-.7441-.3613-.2734-.1094-.5576-.2178-.8496-.3262-.293-.1084-.5791-.2314-.8574-.3691-.2793-.1367-.5293-.3066-.752-.5098-.2217-.2031-.3965-.4512-.5244-.7441-.127-.293-.1914-.6523-.1914-1.0771,0-.4541.0762-.8506.2275-1.1904.1504-.3408.3613-.6191.6299-.8359.2695-.2178.5889-.3779.957-.4824.3682-.1035.7656-.1562,1.1904-.1562.4258,0,.8174.0498,1.1768.1494.3584.0986.668.2549.9277.4678.2598.2119.4629.4883.6104.8291.1455.3398.2188.7559.2188,1.2471v.2266h-1.4307v-.2129c0-.3115-.0547-.5732-.1631-.7861-.1094-.2129-.2725-.376-.4893-.4893-.2178-.1133-.4912-.1699-.8223-.1699-.3115,0-.583.043-.8145.1279s-.4111.2217-.5391.4111c-.127.1885-.1914.4297-.1914.7227,0,.2832.0664.5195.1982.708.1328.1895.3096.3506.5322.4824.2217.1328.4697.25.7441.3545.2734.1035.5566.21.8496.3184.293.1094.5771.2324.8506.3691.2744.1367.5244.3096.751.5166.2275.208.4043.4609.5322.7588.127.2979.1914.6592.1914,1.084,0,.6992-.1328,1.2666-.3975,1.7012s-.6357.751-1.1123.9492c-.4775.1982-1.0273.2979-1.6514.2979Z"/><path d="M84.1605,161.7451c-.6338,0-1.1504-.1348-1.5518-.4043-.4023-.2686-.6973-.6914-.8867-1.2686-.1885-.5762-.2832-1.3174-.2832-2.2246,0-.9355.0996-1.6895.2979-2.2607s.5029-.9873.9141-1.2471.9375-.3896,1.5801-.3896c.5674,0,1.04.1152,1.418.3467s.6611.6094.8496,1.1338c.1895.5244.2842,1.2266.2842,2.1045v.6104h-3.9824c.0088.5762.0566,1.0488.1416,1.417s.2266.6426.4248.8223.4678.2686.8076.2686c.1982,0,.373-.0322.5244-.0986s.2812-.165.3896-.2979c.1094-.1318.1943-.3027.2559-.5098.0605-.208.0967-.4541.1064-.7373h1.3037c-.0098.4443-.0713.8389-.1846,1.1836s-.2812.6309-.5029.8574c-.2227.2266-.4941.3994-.8154.5166-.3213.1182-.6846.1777-1.0908.1777ZM82.8139,157.252h2.5938c0-.3965-.0234-.7344-.0713-1.0137-.0469-.2783-.1182-.5078-.2119-.6865-.0947-.1797-.2197-.3096-.376-.3906-.1562-.0801-.3428-.1201-.5596-.1201-.3311,0-.5928.0879-.7871.2627-.1934.1748-.3379.4248-.4316.751-.0947.3262-.1465.7246-.1562,1.1973Z"/><path d="M90.3969,161.7451c-.6143,0-1.1152-.1396-1.5029-.418-.3877-.2793-.6729-.7061-.8574-1.2832-.1836-.5762-.2764-1.3086-.2764-2.1963,0-.9258.0996-1.6748.2979-2.2471.1982-.5713.4932-.9893.8857-1.2539.3916-.2646.8857-.3965,1.4814-.3965.4346,0,.8047.0586,1.1123.1768.3066.1182.5576.2998.751.5459.1934.2451.3359.5576.4258.9355.0889.3779.1348.8174.1348,1.3174h-1.3184c0-.4434-.0332-.8027-.0996-1.0771-.0664-.2734-.1816-.4746-.3467-.6016-.166-.1279-.3906-.1914-.6738-.1914-.2646,0-.4932.0771-.6875.2334-.1934.1562-.3398.416-.4395.7793-.0986.3643-.1484.8623-.1484,1.4951v.5957c0,.5107.043.9521.1279,1.3252s.2217.6592.4111.8574c.1885.1982.4336.2979.7363.2979.2832,0,.5078-.0664.6738-.1982.165-.1328.2852-.3359.3613-.6094.0752-.2744.1133-.6289.1133-1.0635h1.29c0,.4258-.0459.8203-.1348,1.1836-.0898.3643-.2295.6777-.4189.9424-.1885.2646-.4414.4727-.7578.624-.3164.1504-.6973.2266-1.1406.2266Z"/><path d="M95.5414,161.7451c-.3496,0-.6211-.0732-.8154-.2197-.1934-.1465-.3252-.3477-.3965-.6025s-.1064-.5332-.1064-.8359v-4.8613h-.666v-1.1055h.6943l.2412-2.126h1.0488v2.126h1.0059v1.1055h-1.0059v4.7617c0,.2178.0332.3779.0986.4824.0664.1035.1846.1553.3545.1553h.5527v.9072c-.1035.0381-.2148.0732-.333.1064s-.2334.0586-.3467.0781c-.1133.0186-.2227.0283-.3262.0283Z"/><path d="M97.5814,152.7588v-1.4307h1.333v1.4307h-1.333ZM97.5814,161.5752v-7.4551h1.333v7.4551h-1.333Z"/><path d="M102.9389,161.7451c-.6045,0-1.1123-.1328-1.5234-.3965-.4111-.2646-.7178-.6855-.9209-1.2617s-.3047-1.3232-.3047-2.2393c0-.9258.1016-1.6748.3047-2.2471.2031-.5713.5098-.9893.9209-1.2539s.9189-.3965,1.5234-.3965,1.1133.1318,1.5244.3965c.4102.2646.7197.6826.9277,1.2539.208.5723.3115,1.3213.3115,2.2471,0,.916-.1035,1.6631-.3115,2.2393s-.5176.9971-.9277,1.2617c-.4111.2637-.9199.3965-1.5244.3965ZM102.9389,160.625c.3311,0,.5957-.082.7939-.248.1982-.165.3477-.4316.4463-.8008.0996-.3682.1494-.8496.1494-1.4453v-.5674c0-.5947-.0498-1.0771-.1494-1.4453-.0986-.3682-.248-.6377-.4463-.8076s-.4629-.2549-.7939-.2549c-.3213,0-.5859.085-.793.2549-.208.1699-.3574.4395-.4473.8076s-.1338.8506-.1338,1.4453v.5674c0,.5957.0439,1.0771.1338,1.4453.0898.3691.2393.6357.4473.8008.207.166.4717.248.793.248Z"/><path d="M106.9496,161.5752v-7.4551h1.1064l.0986.9775h.085c.1328-.2646.291-.4814.4746-.6514.1846-.1709.3926-.2959.624-.376s.4795-.1201.7441-.1201c.3779,0,.6992.0684.9639.2051s.4678.3594.6094.666c.1416.3076.2129.7158.2129,1.2266v5.5273h-1.333v-5.2305c0-.1982-.0186-.3701-.0566-.5166-.0371-.1465-.0947-.2695-.1699-.3691-.0752-.0986-.1729-.1748-.29-.2266-.1182-.0518-.2627-.0781-.4326-.0781-.2461,0-.4678.0781-.666.2344-.1982.1553-.3545.3848-.4678.6875-.1133.3018-.1699.6748-.1699,1.1191v4.3799h-1.333Z"/><path d="M115.6664,161.5752v-9.7227h1.4736v4.124h3.374v-4.124h1.46v9.7227h-1.46v-4.3086h-3.374v4.3086h-1.4736Z"/><path d="M126.098,161.7451c-.6338,0-1.1504-.1348-1.5518-.4043-.4023-.2686-.6973-.6914-.8867-1.2686-.1885-.5762-.2832-1.3174-.2832-2.2246,0-.9355.0996-1.6895.2979-2.2607s.5029-.9873.9141-1.2471.9375-.3896,1.5801-.3896c.5674,0,1.04.1152,1.418.3467s.6611.6094.8496,1.1338c.1895.5244.2842,1.2266.2842,2.1045v.6104h-3.9824c.0088.5762.0566,1.0488.1416,1.417s.2266.6426.4248.8223.4678.2686.8076.2686c.1982,0,.373-.0322.5244-.0986s.2812-.165.3896-.2979c.1094-.1318.1943-.3027.2559-.5098.0605-.208.0967-.4541.1064-.7373h1.3037c-.0098.4443-.0713.8389-.1846,1.1836s-.2812.6309-.5029.8574c-.2227.2266-.4941.3994-.8154.5166-.3213.1182-.6846.1777-1.0908.1777ZM124.7514,157.252h2.5938c0-.3965-.0234-.7344-.0713-1.0137-.0469-.2783-.1182-.5078-.2119-.6865-.0947-.1797-.2197-.3096-.376-.3906-.1562-.0801-.3428-.1201-.5596-.1201-.3311,0-.5928.0879-.7871.2627-.1934.1748-.3379.4248-.4316.751-.0947.3262-.1465.7246-.1562,1.1973Z"/><path d="M131.5404,161.7451c-.2549,0-.4961-.0381-.7227-.1133-.2266-.0762-.4277-.1934-.6025-.3545-.1748-.1602-.3115-.3711-.4111-.6309s-.1484-.5742-.1484-.9424c0-.4062.0723-.7656.2197-1.0771.1465-.3115.3701-.5762.6729-.7939.3027-.2168.6924-.3828,1.1689-.4961.4775-.1133,1.0371-.1699,1.6797-.1699v-.9639c0-.2451-.0352-.4531-.1064-.623-.0703-.1709-.1836-.3027-.3398-.3975-.1562-.0938-.3613-.1416-.6162-.1416-.3125,0-.5488.0547-.709.1631-.1611.1084-.2695.25-.3262.4248-.0566.1758-.085.3711-.085.5889v.1416h-1.2617c-.0088-.0469-.0137-.0928-.0137-.1348v-.1484c0-.501.1064-.9102.3184-1.2266.2129-.3164.5039-.5459.8721-.6875s.7891-.2119,1.2617-.2119c.4814,0,.8945.0732,1.2402.2197.3447.1465.6113.3848.8008.7148.1885.3311.2832.7754.2832,1.333v3.9258c0,.1611.0352.2812.1064.3613.0703.0801.1631.1201.2764.1201h.4248v.8936c-.123.0566-.2666.1064-.4316.1484-.166.043-.3428.0635-.5322.0635-.2266,0-.4131-.0449-.5596-.1338-.1465-.0898-.2598-.2148-.3398-.376-.0811-.1602-.1348-.335-.1631-.5244h-.0713c-.123.1982-.2715.3779-.4463.5381-.1748.1611-.3809.2861-.6162.376-.2363.0898-.5107.1348-.8223.1348ZM131.9652,160.625c.1895,0,.3691-.04.5391-.1201s.3213-.1982.4531-.3545c.1328-.1553.2393-.3467.3193-.5742.0801-.2266.1201-.4863.1201-.7793v-.7227c-.5762,0-1.0391.0586-1.3887.1768s-.6006.2861-.751.5039c-.1514.2168-.2275.4766-.2275.7793,0,.2363.0361.4365.1064.6025.0713.165.1777.2881.3193.3682s.3115.1201.5098.1201Z"/><path d="M138.2582,161.7451c-.4727,0-.874-.1328-1.2041-.3965-.3311-.2646-.5791-.6855-.7441-1.2617-.166-.5762-.248-1.3369-.248-2.2822,0-.916.0801-1.6553.2402-2.2178.1611-.5625.4043-.9756.7305-1.2402s.7207-.3965,1.1836-.3965c.2646,0,.5.0371.708.1133.208.0752.3906.1885.5459.3398.1562.1514.2861.3398.3896.5674h.085v-3.6426h1.3184v10.2471h-1.0625l-.1133-.9785h-.0859c-.1416.3408-.3613.6172-.6582.8291-.2979.2129-.6592.3193-1.085.3193ZM138.6693,160.5684c.3027,0,.5459-.0938.7305-.2832.1836-.1885.3203-.4678.4111-.8359.0889-.3691.1338-.8174.1338-1.3467v-.4678c0-.4346-.0303-.8076-.0918-1.1201-.0615-.3115-.1445-.5664-.248-.7646-.1045-.1982-.2383-.3477-.4043-.4463-.165-.0996-.3467-.1494-.5449-.1494-.2842,0-.5156.085-.6943.2549-.1797.1709-.3125.4355-.3975.7939-.085.3594-.127.832-.127,1.418v.4951c0,.5674.04,1.0332.1201,1.3965.0801.3643.2129.6309.3965.8008.1846.1699.4229.2549.7158.2549Z"/><path d="M145.2455,161.7451c-.6328,0-1.1504-.1348-1.5518-.4043-.4014-.2686-.6973-.6914-.8857-1.2686-.1895-.5762-.2832-1.3174-.2832-2.2246,0-.9355.0986-1.6895.2969-2.2607.1992-.5713.5039-.9873.915-1.2471s.9375-.3896,1.5801-.3896c.5664,0,1.0391.1152,1.417.3467s.6611.6094.8506,1.1338c.1885.5244.2832,1.2266.2832,2.1045v.6104h-3.9824c.0098.5762.0566,1.0488.1416,1.417s.2266.6426.4258.8223c.1982.1797.4668.2686.8076.2686.1982,0,.373-.0322.5244-.0986.1504-.0664.2812-.165.3896-.2979.1084-.1318.1934-.3027.2549-.5098.0615-.208.0967-.4541.1064-.7373h1.3037c-.0098.4443-.0703.8389-.1836,1.1836-.1143.3447-.2812.6309-.5039.8574-.2217.2266-.4932.3994-.8145.5166-.3213.1182-.6855.1777-1.0918.1777ZM143.8998,157.252h2.5928c0-.3965-.0234-.7344-.0703-1.0137-.0479-.2783-.1182-.5078-.2129-.6865-.0947-.1797-.2197-.3096-.375-.3906-.1562-.0801-.3428-.1201-.5605-.1201-.3301,0-.5928.0879-.7861.2627-.1943.1748-.3379.4248-.4326.751s-.1465.7246-.1553,1.1973Z"/><path d="M149.1283,161.5752v-7.4551h1.0918l.0996,1.0625h.085c.085-.2549.1885-.4746.3115-.6592.123-.1836.2715-.3252.4463-.4248s.3711-.1484.5879-.1484c.0947,0,.1797.0049.2559.0137.0752.0098.1465.0283.2119.0566v1.3604h-.4678c-.1982,0-.3779.041-.5381.1211-.1611.0801-.2979.2031-.4111.3682-.1133.166-.1982.376-.2549.6309s-.085.5527-.085.8926v4.1816h-1.333Z"/><path d="M74.9349,189.9209v-9.7227h1.4023l3.0898,5.7969c.0381.0566.0801.1367.1279.2412.0479.1035.0928.21.1348.3184.042.1094.0781.2061.1064.291h.0703c0-.1611-.002-.3193-.0059-.4746-.0059-.1562-.0078-.291-.0078-.4043v-5.7686h1.418v9.7227h-1.375l-3.1191-5.8672c-.0469-.1045-.1074-.2432-.1836-.418s-.1416-.3428-.1992-.5039h-.0566v6.7891h-1.4023Z"/><path d="M84.5014,190.0908c-.2549,0-.4961-.0371-.7227-.1133-.2266-.0752-.4277-.1934-.6025-.3545-.1748-.1602-.3115-.3701-.4111-.6299s-.1484-.5742-.1484-.9434c0-.4053.0723-.7646.2197-1.0771.1465-.3115.3701-.5762.6729-.793.3027-.2178.6924-.3828,1.1699-.4961.4766-.1133,1.0371-.1699,1.6797-.1699v-.9639c0-.2461-.0361-.4541-.1074-.624-.0703-.1699-.1836-.3018-.3398-.3965s-.3613-.1416-.6162-.1416c-.3115,0-.5479.0537-.708.1621-.1621.1094-.2695.251-.3262.4258s-.0859.3711-.0859.5879v.1416h-1.2617c-.0088-.0469-.0137-.0918-.0137-.1348v-.1484c0-.501.1064-.9092.3184-1.2256.2129-.3164.5039-.5459.873-.6875.3672-.1416.7881-.2129,1.2607-.2129.4814,0,.8955.0732,1.2402.2197s.6123.3848.8008.7158.2832.7744.2832,1.332v3.9258c0,.1611.0361.2812.1064.3613.0703.0811.1631.1211.2764.1211h.4248v.8926c-.123.0566-.2666.1064-.4316.1494-.166.042-.3428.0635-.5312.0635-.2266,0-.4141-.0449-.5605-.1348s-.2598-.2148-.3398-.376c-.0801-.1602-.1348-.335-.1631-.5244h-.0713c-.123.1992-.2715.3789-.4453.5391-.1758.1611-.3809.2861-.6172.376-.2363.0889-.5098.1338-.8223.1338ZM84.9271,188.9717c.1885,0,.3682-.04.5381-.1211.1709-.0801.3213-.1982.4541-.3535.1318-.1562.2383-.3477.3184-.5742s.1211-.4863.1211-.7793v-.7236c-.5771,0-1.04.0596-1.3896.1777s-.6006.2861-.751.5029c-.1514.2178-.2266.4775-.2266.7793,0,.2363.0352.4375.1055.6025.0713.166.1777.2881.3193.3682.1416.0811.3115.1211.5107.1211Z"/><path d="M89.2924,189.9209v-7.4551h1.1055l.0996.9785h.084c.1328-.2646.2861-.4824.4609-.6523s.373-.2949.5957-.376c.2217-.0801.4609-.1201.7148-.1201.3975,0,.7285.0879.9922.2627.2656.1748.4541.4697.5674.8857h.0713c.1416-.2646.2969-.4824.4668-.6523.1709-.1699.3672-.2949.5889-.376.2217-.0801.4658-.1201.7295-.1201.3594,0,.666.0684.9219.2051.2549.1377.4512.3574.5879.6592.1367.3027.2051.7041.2051,1.2051v5.5557h-1.3184v-5.2441c0-.1885-.0156-.3564-.0488-.5029s-.085-.2695-.1562-.3682c-.0703-.0996-.1621-.1748-.2754-.2266-.1143-.0527-.2461-.0781-.3975-.0781-.2363,0-.4463.0781-.6309.2334-.1846.1562-.3311.3857-.4395.6875-.1084.3027-.1631.6758-.1631,1.1201v4.3789h-1.3184v-5.2441c0-.1885-.0156-.3564-.0488-.5029s-.083-.2695-.1484-.3682c-.0664-.0996-.1562-.1748-.2695-.2266-.1133-.0527-.251-.0781-.4121-.0781-.2363,0-.4482.0781-.6367.2334-.1895.1562-.3359.3857-.4395.6875-.1045.3027-.1562.6758-.1562,1.1201v4.3789h-1.332Z"/><path d="M101.4096,190.0908c-.6328,0-1.1504-.1338-1.5508-.4033-.4023-.2695-.6973-.6924-.8867-1.2686s-.2832-1.3184-.2832-2.2256c0-.9355.0996-1.6885.2969-2.2607.1992-.5713.5039-.9873.915-1.2471s.9375-.3896,1.5801-.3896c.5674,0,1.04.1162,1.417.3477.3789.2314.6621.6094.8506,1.1338s.2842,1.2256.2842,2.1045v.6094h-3.9824c.0088.5762.0566,1.0488.1406,1.417.0859.3691.2266.6426.4258.8223.1982.1797.4668.2695.8076.2695.1982,0,.373-.0332.5244-.0996.1504-.0654.2812-.165.3896-.2969.1084-.1328.1943-.3027.2549-.5107.0615-.208.0977-.4531.1074-.7373h1.3027c-.0098.4443-.0703.8389-.1836,1.1836-.1133.3457-.2812.6309-.5039.8574-.2217.2266-.4932.3994-.8145.5176s-.6855.1768-1.0918.1768ZM100.0639,185.5986h2.5938c0-.3975-.0234-.7354-.0713-1.0137s-.1182-.5078-.2119-.6875c-.0957-.1797-.2207-.3096-.376-.3896-.1562-.0801-.3428-.1201-.5596-.1201-.3311,0-.5938.0869-.7871.2617s-.3379.4248-.4316.751c-.0957.3262-.1465.7256-.1562,1.1982Z"/><path d="M106.7103,190.6152l2.793-11.1113h1.0625l-2.792,11.1113h-1.0635Z"/><path d="M115.4974,189.9209l-2.5791-9.7227h1.5596l1.5449,6.1367c.0371.1611.0781.3525.1201.5742.042.2227.0869.4424.1348.6592.0469.2178.085.4111.1133.5811h.085c.0195-.1035.0469-.2432.085-.418s.0801-.3828.1279-.624c.0469-.2402.0996-.498.1562-.7725l1.5303-6.1367h1.502l-2.5654,9.7227h-1.8145Z"/><path d="M121.89,190.0908c-.2549,0-.4961-.0371-.7227-.1133-.2266-.0752-.4277-.1934-.6025-.3545-.1748-.1602-.3115-.3701-.4111-.6299s-.1484-.5742-.1484-.9434c0-.4053.0723-.7646.2197-1.0771.1465-.3115.3701-.5762.6729-.793.3027-.2178.6924-.3828,1.1699-.4961.4766-.1133,1.0371-.1699,1.6797-.1699v-.9639c0-.2461-.0361-.4541-.1074-.624-.0703-.1699-.1836-.3018-.3398-.3965s-.3613-.1416-.6162-.1416c-.3115,0-.5479.0537-.708.1621-.1621.1094-.2695.251-.3262.4258s-.0859.3711-.0859.5879v.1416h-1.2617c-.0088-.0469-.0137-.0918-.0137-.1348v-.1484c0-.501.1064-.9092.3184-1.2256.2129-.3164.5039-.5459.873-.6875.3672-.1416.7881-.2129,1.2607-.2129.4814,0,.8955.0732,1.2402.2197s.6123.3848.8008.7158.2832.7744.2832,1.332v3.9258c0,.1611.0361.2812.1064.3613.0703.0811.1631.1211.2764.1211h.4248v.8926c-.123.0566-.2666.1064-.4316.1494-.166.042-.3428.0635-.5312.0635-.2266,0-.4141-.0449-.5605-.1348s-.2598-.2148-.3398-.376c-.0801-.1602-.1348-.335-.1631-.5244h-.0713c-.123.1992-.2715.3789-.4453.5391-.1758.1611-.3809.2861-.6172.376-.2363.0889-.5098.1338-.8223.1338ZM122.3158,188.9717c.1885,0,.3682-.04.5381-.1211.1709-.0801.3213-.1982.4541-.3535.1318-.1562.2383-.3477.3184-.5742s.1211-.4863.1211-.7793v-.7236c-.5771,0-1.04.0596-1.3896.1777s-.6006.2861-.751.5029c-.1514.2178-.2266.4775-.2266.7793,0,.2363.0352.4375.1055.6025.0713.166.1777.2881.3193.3682.1416.0811.3115.1211.5107.1211Z"/><path d="M126.6801,189.9209v-10.2471h1.333v10.2471h-1.333Z"/><path d="M131.2728,190.0908c-.5664,0-1.0059-.1602-1.3184-.4814-.3115-.3213-.4678-.8594-.4678-1.6162v-5.5273h1.3184v5.2158c0,.1982.0186.3711.0566.5176s.0947.2715.1699.375c.0752.1045.1748.1797.2979.2275.123.0469.2637.0703.4258.0703.2539,0,.4814-.0752.6797-.2266s.3545-.3799.4678-.6875c.1133-.3066.1699-.6826.1699-1.127v-4.3652h1.3184v7.4551h-1.0908l-.1143-.9922h-.0713c-.1318.2646-.29.4844-.4746.6592-.1836.1748-.3916.3027-.623.3828-.2324.0801-.4805.1201-.7441.1201Z"/><path d="M138.3734,190.0908c-.6338,0-1.1504-.1338-1.5518-.4033-.4023-.2695-.6973-.6924-.8867-1.2686-.1885-.5762-.2832-1.3184-.2832-2.2256,0-.9355.0996-1.6885.2979-2.2607.1982-.5713.5029-.9873.915-1.2471.4102-.2598.9375-.3896,1.5801-.3896.5664,0,1.0391.1162,1.417.3477s.6611.6094.8506,1.1338c.1885.5244.2832,1.2256.2832,2.1045v.6094h-3.9824c.0098.5762.0566,1.0488.1416,1.417.085.3691.2266.6426.4248.8223.1992.1797.4678.2695.8086.2695.1973,0,.373-.0332.5234-.0996.1514-.0654.2812-.165.3906-.2969.1084-.1328.1934-.3027.2549-.5107s.0967-.4531.1064-.7373h1.3037c-.0098.4443-.0713.8389-.1846,1.1836-.1133.3457-.2812.6309-.5029.8574s-.4932.3994-.8154.5176c-.3203.1182-.6846.1768-1.0908.1768ZM137.0267,185.5986h2.5938c0-.3975-.0234-.7354-.0703-1.0137-.0479-.2783-.1191-.5078-.2129-.6875-.0947-.1797-.2197-.3096-.375-.3896-.1562-.0801-.3438-.1201-.5605-.1201-.3301,0-.5928.0869-.7871.2617-.1934.1748-.3379.4248-.4316.751-.0947.3262-.1465.7256-.1562,1.1982Z"/><path d="M144.5814,189.9209v-9.7227h3.4717c.6807,0,1.2217.125,1.623.376.4014.25.6943.5996.8779,1.0488.1855.4482.2773.9658.2773,1.5518,0,.6143-.1045,1.1553-.3125,1.623-.207.4678-.5117.834-.9141,1.0977-.4014.2646-.9043.3975-1.5098.3975h-2.041v3.6279h-1.4727ZM146.0541,185.0176h1.8291c.4814,0,.8457-.1611,1.0908-.4824.2461-.3213.3691-.7607.3691-1.3184,0-.3965-.0527-.7246-.1562-.9844s-.2646-.4541-.4814-.5811c-.2178-.1279-.5107-.1914-.8789-.1914h-1.7725v3.5576Z"/><path d="M153.2826,190.0908c-.2539,0-.4961-.0371-.7227-.1133-.2266-.0752-.4277-.1934-.6016-.3545-.1758-.1602-.3125-.3701-.4111-.6299-.0996-.2598-.1494-.5742-.1494-.9434,0-.4053.0732-.7646.2207-1.0771.1465-.3115.3701-.5762.6729-.793.3018-.2178.6924-.3828,1.1689-.4961s1.0371-.1699,1.6797-.1699v-.9639c0-.2461-.0352-.4541-.1064-.624s-.1846-.3018-.3398-.3965c-.1562-.0947-.3623-.1416-.6162-.1416-.3125,0-.5488.0537-.709.1621-.1611.1094-.2695.251-.3262.4258s-.085.3711-.085.5879v.1416h-1.2617c-.0088-.0469-.0146-.0918-.0146-.1348v-.1484c0-.501.1074-.9092.3193-1.2256.2129-.3164.5029-.5459.8721-.6875.3682-.1416.7891-.2129,1.2617-.2129.4814,0,.8945.0732,1.2402.2197.3438.1465.6113.3848.8008.7158.1885.3311.2832.7744.2832,1.332v3.9258c0,.1611.0352.2812.1055.3613.0713.0811.1641.1211.2773.1211h.4248v.8926c-.123.0566-.2666.1064-.4326.1494-.165.042-.3418.0635-.5312.0635-.2266,0-.4141-.0449-.5596-.1348-.1475-.0898-.2607-.2148-.3408-.376-.0801-.1602-.1348-.335-.1621-.5244h-.0713c-.123.1992-.2725.3789-.4463.5391-.1758.1611-.3809.2861-.6172.376-.2363.0889-.5098.1338-.8223.1338ZM153.7084,188.9717c.1895,0,.3691-.04.5391-.1211.1699-.0801.3203-.1982.4531-.3535.1328-.1562.2383-.3477.3184-.5742s.1211-.4863.1211-.7793v-.7236c-.5762,0-1.0391.0596-1.3887.1777s-.6006.2861-.752.5029c-.1504.2178-.2266.4775-.2266.7793,0,.2363.0352.4375.1064.6025.0713.166.1768.2881.3193.3682.1406.0811.3115.1211.5098.1211Z"/><path d="M158.0736,181.1055v-1.4316h1.332v1.4316h-1.332ZM158.0736,189.9209v-7.4551h1.332v7.4551h-1.332Z"/><path d="M160.9506,189.9209v-7.4551h1.0918l.0996,1.0635h.084c.0859-.2559.1895-.4746.3125-.6592s.2715-.3262.4463-.4258c.1748-.0986.3701-.1484.5879-.1484.0947,0,.1797.0049.2549.0146.0762.0088.1465.0283.2129.0566v1.3604h-.4678c-.1982,0-.3779.04-.5381.1201-.1611.0811-.2979.2031-.4111.3691-.1143.165-.1982.375-.2549.6299-.0566.2559-.0859.5527-.0859.8936v4.1807h-1.332Z"/><path d="M166.8471,190.0908c-.4453,0-.8203-.0537-1.127-.1621-.3066-.1094-.5547-.2598-.7441-.4541-.1895-.1934-.3281-.4248-.418-.6943s-.1348-.5645-.1348-.8857c0-.0469.002-.0996.0068-.1562s.0117-.1084.0215-.1553h1.2471c-.0098.0566-.0137.1055-.0137.1484v.1201c0,.2559.0469.4727.1406.6523.0957.1797.2295.3145.4043.4043s.3848.1338.6309.1338c.2363,0,.4395-.042.6094-.127s.3027-.21.3965-.376c.0947-.165.1426-.3701.1426-.6162,0-.2646-.0713-.4746-.2129-.6309s-.3262-.2832-.5527-.3828c-.2266-.0986-.4678-.2002-.7227-.3047-.2266-.085-.4561-.1816-.6875-.29-.2324-.1094-.4414-.2461-.6309-.4111s-.3398-.3711-.4531-.6172c-.1133-.2451-.1699-.5566-.1699-.9355,0-.3398.0566-.6377.1699-.8926s.2754-.4697.4883-.6445.4629-.3047.752-.3896c.2871-.085.6016-.1279.9414-.1279.3594,0,.6787.043.957.1279.2793.085.5156.21.709.375.1934.166.3398.3662.4395.6025s.1484.4961.1484.7793c0,.0762-.002.1514-.0068.2275-.0049.0752-.0117.1416-.0205.1982h-1.2344v-.2979c0-.2178-.0391-.3965-.1191-.5391-.0811-.1416-.1973-.248-.3477-.3184-.1514-.0713-.3359-.1064-.5527-.1064-.1797,0-.3359.0215-.4688.0635-.1318.043-.2402.1094-.3252.1992s-.1465.1904-.1846.3047c-.0371.1133-.0566.2363-.0566.3682,0,.2266.0615.4111.1846.5527.1221.1416.2861.2578.4893.3477s.4219.1816.6582.2764c.2363.085.4805.1816.7305.29s.4844.2432.7012.4043c.2178.1602.3906.3682.5176.623.127.2559.1914.5859.1914.9922s-.0615.7559-.1836,1.0488c-.123.293-.2959.5342-.5176.7227-.2227.1895-.4844.3291-.7871.4189-.3027.0889-.6377.1338-1.0059.1338Z"/><path d="M66.8295,235.2754v-3.0361h2.5v3.0361h-2.5Z"/><path d="M72.6205,235.2754v-3.0361h2.5v3.0361h-2.5Z"/><path d="M78.4115,235.2754v-3.0361h2.5v3.0361h-2.5Z"/><rect x="56.6929" y="22.6772" width="453.5433" height="232.4409" fill="none" stroke="#312609" stroke-miterlimit="10" stroke-width="1.4173"/></svg>