<?xml version="1.0" encoding="UTF-8"?><svg id="a" xmlns="http://www.w3.org/2000/svg" width="200mm" height="70mm" viewBox="0 0 566.9291 198.4252"><rect x="-.2179" width="567.147" height="198.4252" fill="#c39623"/><polygon points="538.3648 198.4252 469.8256 198.4252 416.5174 198.4252 363.2091 198.4252 302.2854 198.4252 188.0534 198.4252 28.1286 198.4252 28.1286 0 538.3648 0 538.3648 198.4252" fill="#a8e6d4"/><line x1="28.3465" y1="0" x2="28.3465" y2="198.4252" fill="none" stroke="#13614a" stroke-miterlimit="10" stroke-width="1.4173"/><polygon points="212.5984 28.3464 212.5984 56.6929 195.5906 56.6929 195.5906 85.0394 317.4803 85.0394 317.4803 56.6929 538.5827 56.6929 538.5827 28.3464 212.5984 28.3464" fill="#b0b0b0" stroke="#6b6b6b" stroke-miterlimit="10" stroke-width="1.4173"/><rect x="221.1024" y="113.3858" width="317.4803" height="28.3465" fill="#b0b0b0" stroke="#6b6b6b" stroke-miterlimit="10" stroke-width="1.4173"/><rect x="28.3465" y="56.6929" width="68.0315" height="113.3858" fill="#b0b0b0" stroke="#6b6b6b" stroke-miterlimit="10" stroke-width="1.4173"/><polygon points="96.378 141.7323 96.378 56.6929 172.9134 56.6929 172.9134 28.3465 212.5984 28.3465 212.5984 56.6929 198.4252 56.6929 198.4252 85.0394 266.4567 85.0394 266.4567 113.3858 221.1024 113.3858 221.1024 141.7323 96.378 141.7323" fill="#dbc07b" stroke="#312609" stroke-miterlimit="10" stroke-width="1.4173"/><rect x="28.3465" y="28.3465" width="144.5669" height="28.3465" fill="#efddf7" stroke="#582a6b" stroke-miterlimit="10" stroke-width="1.4173"/><rect x="266.4567" y="85.0394" width="31.1811" height="28.3465" fill="#c39623" stroke="#312609" stroke-miterlimit="10" stroke-width="1.4173"/><rect x="172.9134" y="28.3465" width="39.685" height="28.3465" fill="#d3f3ea" stroke="#312609" stroke-miterlimit="10" stroke-width="1.4173"/><rect x="96.378" y="141.7323" width="42.5197" height="28.3465" fill="#d3f3ea" stroke="#312609" stroke-miterlimit="10" stroke-width="1.4173"/><path d="M44.4402,38.4106l.5527,9.7793h-1.502l-.2344-4.7627c-.0137-.3584-.0244-.7061-.0312-1.041-.0078-.3359-.0107-.6572-.0107-.9639,0-.3076.0029-.5918.0107-.8545.0068-.2617.0146-.499.0244-.7119l-1.4385,6.6113h-1.4316l-1.5449-6.6113c.0146.2031.0264.4404.0352.7119.0098.2715.0166.5635.0215.875.0049.3125.0059.6377.0039.9785-.0029.3398-.0088.6797-.0176,1.0205l-.1914,4.748h-1.4746l.5527-9.7793h1.9707l1.3955,6.5547,1.333-6.5547h1.9766Z"/><path d="M48.2029,40.7065v5.2295c0,.4443.0889.7607.2666.9502.1768.1885.4443.2832.8037.2832.3408,0,.6689-.1016.9854-.3047s.5664-.4512.751-.7441v-5.4141h1.5879v7.4834h-1.3682l-.0996-.957c-.2783.373-.6299.6582-1.0557.8545-.4248.1953-.8594.2939-1.3037.2939-.7227,0-1.2627-.2002-1.6191-.5996-.3574-.3984-.5352-.9482-.5352-1.6475v-5.4277h1.5869Z"/><path d="M58.408,37.7016v8.4473c0,.3447.1055.5889.3154.7334s.4834.2158.8184.2158c.2178,0,.4229-.0234.6162-.0703.1943-.0479.3828-.1064.5674-.1777l.4043,1.1055c-.2227.1133-.4951.2129-.8193.2979-.3232.085-.6934.1279-1.1084.1279-.751,0-1.3359-.2119-1.7539-.6348s-.627-1.0029-.627-1.7393v-7.1367h-2.2607v-1.1689h3.8477Z"/><path d="M69.8738,47.7924c-.2744.1748-.6025.3174-.9854.4258s-.7822.1631-1.1973.1631c-.8691,0-1.5303-.2256-1.9805-.6768-.4521-.4512-.6768-1.0459-.6768-1.7822v-4.0605h-1.666v-1.1553h1.666v-1.6729l1.5869-.1914v1.8643h2.5225l-.1768,1.1553h-2.3457v4.0459c0,.4014.1006.7002.3008.8965.2012.1963.5303.2939.9893.2939.2734,0,.5264-.0332.7578-.0986.2314-.0664.4424-.1514.6309-.2559l.5742,1.0488Z"/><path d="M76.2166,40.7065v6.3213h2.0332v1.1621h-5.8604v-1.1621h2.2393v-5.1592h-2.168v-1.1621h3.7559ZM75.1111,37.0424c.3115,0,.5625.0947.7539.2832.1914.1895.2871.4258.2871.709s-.0957.5225-.2871.7158-.4424.29-.7539.29c-.3027,0-.5508-.0967-.7441-.29-.1943-.1934-.291-.4326-.291-.7158s.0967-.5195.291-.709c.1934-.1885.4414-.2832.7441-.2832Z"/><path d="M83.9197,37.7016v8.4473c0,.3447.1045.5889.3145.7334.2109.1445.4834.2158.8193.2158.2168,0,.4229-.0234.6162-.0703.1934-.0479.3828-.1064.5664-.1777l.4043,1.1055c-.2217.1133-.4951.2129-.8184.2979s-.6934.1279-1.1094.1279c-.751,0-1.3359-.2119-1.7539-.6348s-.627-1.0029-.627-1.7393v-7.1367h-2.2607v-1.1689h3.8486Z"/><path d="M93.2244,40.7065v6.3213h2.0332v1.1621h-5.8604v-1.1621h2.2393v-5.1592h-2.168v-1.1621h3.7559ZM92.1189,37.0424c.3115,0,.5625.0947.7539.2832.1914.1895.2871.4258.2871.709s-.0957.5225-.2871.7158-.4424.29-.7539.29c-.3027,0-.5508-.0967-.7441-.29-.1943-.1934-.291-.4326-.291-.7158s.0967-.5195.291-.709c.1934-.1885.4414-.2832.7441-.2832Z"/><path d="M97.6385,48.1899v-7.4834h1.3672l.1211.9707c.3115-.3828.6797-.6738,1.1055-.8721.4248-.1982.8623-.2979,1.3105-.2979.6992,0,1.2227.1953,1.5703.585.3467.3896.5205.9365.5205,1.6406v5.457h-1.5869v-4.6699c0-.4346-.0264-.7842-.0781-1.0488-.0527-.2646-.1553-.4561-.3086-.5742s-.3818-.1777-.6836-.1777c-.2412,0-.4707.0527-.6875.1562-.2178.1045-.416.2402-.5957.4072-.1797.168-.335.3467-.4678.5352v5.3721h-1.5869Z"/><path d="M107.4607,44.9584c.0322.5098.1416.9268.3252,1.251.1846.3232.4268.5605.7266.7119s.6299.2266.9893.2266c.3682,0,.708-.0566,1.0205-.1699.3115-.1133.626-.2744.9424-.4824l.6875.9502c-.3496.2832-.7588.5098-1.2266.6797-.4678.1709-.9688.2559-1.502.2559-.7754,0-1.4307-.166-1.9668-.4961-.5361-.3311-.9434-.792-1.2227-1.3818-.2783-.5908-.418-1.2734-.418-2.0488,0-.751.1367-1.4229.4111-2.0156s.666-1.0635,1.1768-1.4102c.5098-.3477,1.1191-.5215,1.8281-.5215.666,0,1.2393.1514,1.7188.4541s.8496.7314,1.1123,1.2861c.2617.5557.3936,1.2227.3936,2.002,0,.1279-.0039.2539-.0107.3789-.0068.126-.0156.2354-.0254.3301h-4.96ZM109.2459,41.684c-.4961,0-.9053.1777-1.2295.5312-.3232.3545-.5107.9072-.5635,1.6582h3.4658c-.0146-.7031-.1641-1.2441-.4502-1.6221s-.6934-.5674-1.2227-.5674Z"/><path d="M150.157,42.0385c0-.2695.0674-.5166.2012-.7402.1348-.2246.3154-.4053.543-.543.2266-.1367.4766-.2051.751-.2051.415,0,.7666.1475,1.0518.4434.2861.2949.4287.6436.4287,1.0449s-.1426.749-.4287,1.042c-.2852.293-.6367.4395-1.0518.4395-.416,0-.7695-.1465-1.0596-.4395-.291-.293-.4355-.6406-.4355-1.042ZM150.157,46.935c0-.4014.1445-.7461.4355-1.0342.29-.2881.6436-.4326,1.0596-.4326.415,0,.7666.1445,1.0518.4326.2861.2881.4287.6328.4287,1.0342,0,.4062-.1426.7578-.4287,1.0527-.2852.2949-.6367.4424-1.0518.4424-.416,0-.7695-.1475-1.0596-.4424-.291-.2949-.4355-.6465-.4355-1.0527Z"/><path d="M180.9568,41.4926l-.2412-3.792h1.7295l-.2344,3.792h-1.2539ZM183.4578,41.4926l-.2402-3.792h1.7363l-.2412,3.792h-1.2549Z"/><path d="M189.4607,41.4926l-.2412-3.792h1.7295l-.2344,3.792h-1.2539ZM191.9617,41.4926l-.2402-3.792h1.7363l-.2412,3.792h-1.2549Z"/><path d="M197.9646,41.4926l-.2412-3.792h1.7295l-.2344,3.792h-1.2539ZM200.4656,41.4926l-.2402-3.792h1.7363l-.2412,3.792h-1.2549Z"/><path d="M108.326,68.0033v3.1113h3.6777v1.2471h-3.6777v4.1738h-1.6445v-9.7793h6.0166l-.1836,1.2471h-4.1885Z"/><path d="M118.7361,69.0522v6.3213h2.0342v1.1621h-5.8613v-1.1621h2.2402v-5.1592h-2.1689v-1.1621h3.7559ZM117.6307,65.3881c.3115,0,.5635.0947.7549.2842.1914.1885.2871.4248.2871.708,0,.2842-.0957.5225-.2871.7158-.1914.1943-.4434.291-.7549.291-.3027,0-.5508-.0967-.7441-.291-.1934-.1934-.29-.4316-.29-.7158,0-.2832.0967-.5195.29-.708.1934-.1895.4414-.2842.7441-.2842Z"/><path d="M123.2225,76.5356v-1.1338h1.0977v-5.2227h-1.0977v-1.127h2.3096l.291,1.7363c.2783-.6279.624-1.1064,1.0381-1.4346.4131-.3291.9463-.4932,1.5977-.4932.2227,0,.4219.0176.5986.0537.1777.0352.3535.0811.5283.1377l-.4746,1.3604c-.1514-.042-.293-.0742-.4258-.0947-.1318-.0215-.2783-.0322-.4385-.0322-.5439,0-1.0127.2031-1.4072.6094s-.7051.9824-.9316,1.7295v2.7773h1.5088v1.1338h-4.1943ZM128.1824,71.809v-1.8428l.1982-.9141h1.2051l-.2695,2.7568h-1.1338Z"/><path d="M134.3758,75.5082c.4961,0,.8906-.0889,1.1836-.2656.293-.1777.4395-.4219.4395-.7334,0-.2031-.043-.377-.1279-.5215-.085-.1436-.2549-.2764-.5098-.3965-.2559-.1201-.6426-.2471-1.1621-.3789-.4922-.1279-.9229-.2793-1.2939-.4541-.3711-.1738-.6572-.4014-.8604-.6797-.2041-.2793-.3047-.6377-.3047-1.0771,0-.4297.1201-.8057.3613-1.127.2402-.3213.5869-.5713,1.0381-.751s.9814-.2695,1.5908-.2695c.6279,0,1.1758.083,1.6436.248s.8672.3711,1.1982.6162l-.666,1c-.293-.1943-.6133-.3525-.9609-.4756-.3467-.1221-.7383-.1836-1.1729-.1836-.5049,0-.8682.0752-1.0879.2266-.2188.1514-.3291.3516-.3291.6025,0,.1836.0557.3389.167.4639.1104.125.3027.2412.5771.3477.2744.1055.6611.2295,1.1621.3721.4863.1318.9111.2881,1.2725.4668.3613.1797.6426.417.8428.7129.2012.2949.3018.6787.3018,1.1514,0,.5381-.1553.9795-.4648,1.3213-.3096.3428-.7158.5957-1.2188.7588s-1.043.2441-1.6191.2441c-.6943,0-1.2949-.1006-1.7998-.3008-.5059-.2012-.9307-.4521-1.2754-.7549l.8428-.9639c.293.2363.6289.4287,1.0068.5771.3779.1494.7861.2236,1.2256.2236Z"/><path d="M146.409,76.1391c-.2744.1748-.6025.3164-.9854.4248-.3828.1094-.7822.1631-1.1973.1631-.8691,0-1.5303-.2256-1.9805-.6768-.4521-.4512-.6768-1.0449-.6768-1.7822v-4.0605h-1.666v-1.1553h1.666v-1.6719l1.5869-.1914v1.8633h2.5225l-.1768,1.1553h-2.3457v4.0469c0,.4014.1006.7002.3008.8965.2012.1953.5303.2939.9893.2939.2734,0,.5264-.0332.7578-.0996s.4424-.1514.6309-.2549l.5742,1.0488Z"/><path d="M160.4549,66.0473v8.4473c0,.3457.1045.5898.3145.7334.2109.1445.4834.2168.8193.2168.2168,0,.4229-.0234.6162-.0713.1934-.0469.3828-.1064.5664-.1768l.4043,1.1055c-.2217.1133-.4951.2119-.8184.2979-.3232.085-.6934.127-1.1094.127-.751,0-1.3359-.2109-1.7539-.6338s-.627-1.0029-.627-1.7402v-7.1357h-2.2607v-1.1699h3.8486Z"/><path d="M169.7586,69.0522v6.3213h2.0342v1.1621h-5.8613v-1.1621h2.2402v-5.1592h-2.1689v-1.1621h3.7559ZM168.6531,65.3881c.3115,0,.5635.0947.7549.2842.1914.1885.2871.4248.2871.708,0,.2842-.0957.5225-.2871.7158-.1914.1943-.4434.291-.7549.291-.3027,0-.5508-.0967-.7441-.291-.1934-.1934-.29-.4316-.29-.7158,0-.2832.0967-.5195.29-.708.1934-.1895.4414-.2842.7441-.2842Z"/><path d="M174.1736,76.5356v-7.4834h1.3672l.1211.9707c.3115-.3828.6797-.6729,1.1055-.8711.4248-.1982.8623-.2979,1.3105-.2979.6992,0,1.2227.1953,1.5703.585.3467.3896.5205.9365.5205,1.6406v5.4561h-1.5869v-4.6699c0-.4346-.0264-.7842-.0781-1.0488-.0527-.2646-.1553-.4561-.3086-.5742s-.3818-.1768-.6836-.1768c-.2412,0-.4707.0518-.6875.1562-.2178.1035-.416.2393-.5957.4072s-.335.3457-.4678.5352v5.3711h-1.5869Z"/><path d="M183.9959,73.3041c.0322.5107.1416.9277.3252,1.251.1846.3232.4268.5615.7266.7119.2998.1514.6299.2275.9893.2275.3682,0,.708-.0576,1.0205-.1709.3115-.1133.626-.2734.9424-.4814l.6875.9492c-.3496.2842-.7588.5107-1.2266.6807s-.9688.2549-1.502.2549c-.7754,0-1.4307-.165-1.9668-.4961-.5361-.3301-.9434-.791-1.2227-1.3818-.2783-.5908-.418-1.2734-.418-2.0479,0-.751.1367-1.4229.4111-2.0166.2744-.5928.666-1.0625,1.1768-1.4102.5098-.3467,1.1191-.5205,1.8281-.5205.666,0,1.2393.1514,1.7188.4531.4795.3027.8496.7314,1.1123,1.2871.2617.5547.3936,1.2217.3936,2.002,0,.127-.0039.2539-.0107.3789s-.0156.2344-.0254.3291h-4.96ZM185.7811,70.0307c-.4961,0-.9053.1768-1.2295.5312-.3232.3545-.5107.9072-.5635,1.6582h3.4658c-.0146-.7041-.1641-1.2451-.4502-1.623s-.6934-.5664-1.2227-.5664Z"/><path d="M107.7586,100.0356c0-.2559.0605-.4854.1816-.6914.1201-.2051.2842-.3691.4922-.4922s.4395-.1846.6943-.1846c.2598,0,.4932.0615.7012.1846s.3721.2871.4932.4922c.1201.2061.1807.4355.1807.6914,0,.25-.0605.4805-.1807.6904-.1211.2109-.2852.377-.4932.5s-.4414.1836-.7012.1836c-.2549,0-.4863-.0605-.6943-.1836s-.3721-.2891-.4922-.5c-.1211-.21-.1816-.4404-.1816-.6904Z" fill="#e7d5a7"/><path d="M116.2625,100.0356c0-.2559.0605-.4854.1816-.6914.1201-.2051.2842-.3691.4922-.4922s.4395-.1846.6943-.1846c.2598,0,.4932.0615.7012.1846s.3721.2871.4932.4922c.1201.2061.1807.4355.1807.6914,0,.25-.0605.4805-.1807.6904-.1211.2109-.2852.377-.4932.5s-.4414.1836-.7012.1836c-.2549,0-.4863-.0605-.6943-.1836s-.3721-.2891-.4922-.5c-.1211-.21-.1816-.4404-.1816-.6904Z" fill="#e7d5a7"/><path d="M124.7664,100.0356c0-.2559.0605-.4854.1816-.6914.1201-.2051.2842-.3691.4922-.4922s.4395-.1846.6943-.1846c.2598,0,.4932.0615.7012.1846s.3721.2871.4932.4922c.1201.2061.1807.4355.1807.6914,0,.25-.0605.4805-.1807.6904-.1211.2109-.2852.377-.4932.5s-.4414.1836-.7012.1836c-.2549,0-.4863-.0605-.6943-.1836s-.3721-.2891-.4922-.5c-.1211-.21-.1816-.4404-.1816-.6904Z" fill="#e7d5a7"/><path d="M135.4461,96.4282v8.4541h-1.6445v-8.4541h-2.9336v-1.3252h7.583l-.1709,1.3252h-2.834Z"/><path d="M141.7459,94.2387v4.0742c.3018-.3682.6562-.6455,1.0625-.832s.8252-.2803,1.2549-.2803c.7041,0,1.2285.1953,1.5732.585s.5176.9365.5176,1.6406v5.4561h-1.5879v-5.208c0-.4492-.085-.7715-.2549-.9678s-.4443-.2939-.8223-.2939c-.2363,0-.4619.0527-.6768.1592s-.4131.2451-.5947.415c-.1826.1699-.3398.3516-.4717.5449v5.3506h-1.5879v-10.4736l1.5879-.1699Z"/><path d="M149.9803,101.6508c.0332.5107.1416.9277.3262,1.251s.4268.5615.7266.7119c.2998.1514.6289.2275.9883.2275.3682,0,.709-.0576,1.0205-.1709s.626-.2734.9424-.4814l.6875.9492c-.3496.2842-.7578.5107-1.2256.6807s-.9688.2549-1.5029.2549c-.7744,0-1.4297-.165-1.9658-.4961-.5371-.3301-.9443-.791-1.2227-1.3818-.2793-.5908-.418-1.2734-.418-2.0479,0-.751.1367-1.4229.4111-2.0166.2734-.5928.666-1.0625,1.1758-1.4102.5107-.3467,1.1201-.5205,1.8281-.5205.666,0,1.2393.1514,1.7188.4531.4795.3027.8506.7314,1.1123,1.2871.2627.5547.3936,1.2217.3936,2.002,0,.127-.0029.2539-.0107.3789-.0068.125-.0146.2344-.0244.3291h-4.9609ZM151.7664,98.3774c-.4961,0-.9062.1768-1.2295.5312-.3242.3545-.5117.9072-.5635,1.6582h3.4648c-.0137-.7041-.1641-1.2451-.4492-1.623-.2861-.3779-.6934-.5664-1.2227-.5664Z"/><path d="M168.3914,103.8549c.4951,0,.8896-.0889,1.1826-.2656.293-.1777.4395-.4219.4395-.7334,0-.2031-.042-.377-.127-.5215-.085-.1436-.2559-.2764-.5107-.3965s-.6426-.2471-1.1621-.3789c-.4912-.1279-.9229-.2793-1.293-.4541-.3711-.1738-.6582-.4014-.8613-.6797-.2031-.2793-.3047-.6377-.3047-1.0771,0-.4297.1201-.8057.3613-1.127s.5869-.5713,1.0381-.751.9814-.2695,1.5908-.2695c.6289,0,1.1768.083,1.6445.248s.8672.3711,1.1973.6162l-.666,1c-.293-.1943-.6133-.3525-.96-.4756-.3477-.1221-.7383-.1836-1.1729-.1836-.5059,0-.8682.0752-1.0879.2266s-.3291.3516-.3291.6025c0,.1836.0547.3389.166.4639s.3037.2412.5781.3477c.2734.1055.6611.2295,1.1621.3721.4863.1318.9102.2881,1.2715.4668.3613.1797.6426.417.8438.7129.2002.2949.3008.6787.3008,1.1514,0,.5381-.1543.9795-.4639,1.3213-.3096.3428-.7158.5957-1.2188.7588-.5039.1631-1.043.2441-1.6191.2441-.6953,0-1.2949-.1006-1.8008-.3008-.5049-.2012-.9307-.4521-1.2754-.7549l.8438-.9639c.293.2363.6279.4287,1.0059.5771.3779.1494.7871.2236,1.2266.2236Z"/><path d="M175.492,101.6508c.0322.5107.1416.9277.3252,1.251.1846.3232.4268.5615.7266.7119.2998.1514.6299.2275.9893.2275.3682,0,.708-.0576,1.0205-.1709.3115-.1133.626-.2734.9424-.4814l.6875.9492c-.3496.2842-.7588.5107-1.2266.6807s-.9688.2549-1.502.2549c-.7754,0-1.4307-.165-1.9668-.4961-.5361-.3301-.9434-.791-1.2227-1.3818-.2783-.5908-.418-1.2734-.418-2.0479,0-.751.1367-1.4229.4111-2.0166.2744-.5928.666-1.0625,1.1768-1.4102.5098-.3467,1.1191-.5205,1.8281-.5205.666,0,1.2393.1514,1.7188.4531.4795.3027.8496.7314,1.1123,1.2871.2617.5547.3936,1.2217.3936,2.002,0,.127-.0039.2539-.0107.3789s-.0156.2344-.0254.3291h-4.96ZM177.2771,98.3774c-.4961,0-.9053.1768-1.2295.5312-.3232.3545-.5107.9072-.5635,1.6582h3.4658c-.0146-.7041-.1641-1.2451-.4502-1.623s-.6934-.5664-1.2227-.5664Z"/><path d="M186.285,103.77c.3496,0,.6748-.0605.9775-.1807s.5908-.2773.8643-.4717l.7373,1.0205c-.3262.2793-.7217.5049-1.1865.6768-.4658.1729-.9463.2588-1.4424.2588-.7656,0-1.4199-.1621-1.9629-.4854-.5439-.3232-.959-.7783-1.2471-1.3643-.2891-.5859-.4326-1.2686-.4326-2.0479,0-.7607.1455-1.4395.4355-2.0371.291-.5977.71-1.0703,1.2578-1.418.5479-.3467,1.207-.5205,1.9775-.5205.5098,0,.9805.0752,1.4102.2266s.8242.376,1.1836.6738l-.7305.999c-.293-.2031-.5918-.3584-.8965-.4648-.3047-.1055-.6172-.1592-.9385-.1592-.5908,0-1.0742.2178-1.4492.6523-.376.4346-.5635,1.1172-.5635,2.0479,0,.624.0859,1.126.2588,1.5059.1719.3809.4092.6572.7119.8291.3027.1729.6475.2588,1.0352.2588Z"/><path d="M194.1795,97.2006c.7314,0,1.3486.1631,1.8496.4893.5.3262.8789.7812,1.1367,1.3672s.3867,1.2754.3867,2.0693c0,.7891-.1318,1.4805-.3936,2.0732-.2627.5928-.6445,1.0537-1.1484,1.3818-.5029.3281-1.1162.4922-1.8389.4922s-1.3359-.1592-1.8389-.4785c-.5029-.3184-.8857-.7734-1.1475-1.3643-.2627-.5898-.3936-1.2871-.3936-2.0898,0-.7803.1309-1.4648.3936-2.0557.2617-.5898.6455-1.0518,1.1514-1.3848.5049-.333,1.1191-.5,1.8428-.5ZM194.1795,98.434c-.5723,0-1.002.2178-1.29.6553-.2881.4365-.4326,1.1211-.4326,2.0518,0,.9258.1426,1.6084.4287,2.0479s.7148.6592,1.2861.6592c.5723,0,1.001-.2197,1.2861-.6592.2861-.4395.4287-1.127.4287-2.0625,0-.9209-.1416-1.6006-.4248-2.0371-.2832-.4375-.7109-.6553-1.2822-.6553Z"/><path d="M199.6854,104.8823v-7.4834h1.3672l.1211.9707c.3115-.3828.6797-.6729,1.1055-.8711.4248-.1982.8623-.2979,1.3105-.2979.6992,0,1.2227.1953,1.5703.585.3467.3896.5205.9365.5205,1.6406v5.4561h-1.5869v-4.6699c0-.4346-.0264-.7842-.0781-1.0488-.0527-.2646-.1553-.4561-.3086-.5742s-.3818-.1768-.6836-.1768c-.2412,0-.4707.0518-.6875.1562-.2178.1035-.416.2393-.5957.4072s-.335.3457-.4678.5352v5.3711h-1.5869Z"/><path d="M212.5828,94.2172l1.5869.1768v10.4883h-1.3955l-.1143-.9209c-.2549.3545-.5596.6279-.9141.8223-.3545.1934-.751.29-1.1904.29-.6426,0-1.1719-.1641-1.5869-.4922-.416-.3281-.7246-.7891-.9248-1.3818-.2012-.5928-.3018-1.2793-.3018-2.0586,0-.7607.1182-1.4375.3545-2.0303s.5742-1.0596,1.0137-1.4004c.4395-.3398.9678-.5098,1.5869-.5098.3926,0,.7441.0693,1.0566.209.3115.1396.5879.3418.8291.6064v-3.7988ZM211.115,98.4194c-.5332,0-.9492.2207-1.2471.6631-.2979.4414-.4463,1.1279-.4463,2.0586,0,.6377.0615,1.1562.1846,1.5557.123.3984.2998.6914.5312.8779.2314.1875.5107.2803.8359.2803.3594,0,.6709-.1035.9355-.3115s.4893-.458.6738-.751v-3.5439c-.1846-.2646-.3994-.4688-.6455-.6133-.2451-.1436-.5195-.2158-.8223-.2158Z"/><path d="M228.4852,94.394v8.4473c0,.3457.1045.5898.3145.7334.2109.1445.4834.2168.8193.2168.2168,0,.4229-.0234.6162-.0713.1934-.0469.3828-.1064.5664-.1768l.4043,1.1055c-.2217.1133-.4951.2119-.8184.2979-.3232.085-.6934.127-1.1094.127-.751,0-1.3359-.2109-1.7539-.6338s-.627-1.0029-.627-1.7402v-7.1357h-2.2607v-1.1699h3.8486Z"/><path d="M237.7898,97.3989v6.3213h2.0332v1.1621h-5.8604v-1.1621h2.2393v-5.1592h-2.168v-1.1621h3.7559ZM236.6844,93.7348c.3115,0,.5625.0947.7539.2842.1914.1885.2871.4248.2871.708,0,.2842-.0957.5225-.2871.7158-.1914.1943-.4424.291-.7539.291-.3027,0-.5508-.0967-.7441-.291-.1943-.1934-.291-.4316-.291-.7158,0-.2832.0967-.5195.291-.708.1934-.1895.4414-.2842.7441-.2842Z"/><path d="M242.2039,104.8823v-7.4834h1.3682l.1201.9707c.3125-.3828.6807-.6729,1.1055-.8711.4258-.1982.8623-.2979,1.3115-.2979.6992,0,1.2227.1953,1.5693.585.3477.3896.5215.9365.5215,1.6406v5.4561h-1.5879v-4.6699c0-.4346-.0264-.7842-.0781-1.0488s-.1543-.4561-.3076-.5742c-.1543-.1182-.3818-.1768-.6846-.1768-.2402,0-.4697.0518-.6875.1562-.2168.1035-.415.2393-.5947.4072s-.3359.3457-.4678.5352v5.3711h-1.5879Z"/><path d="M252.0262,101.6508c.0322.5107.1416.9277.3252,1.251.1846.3232.4268.5615.7266.7119.2998.1514.6299.2275.9893.2275.3682,0,.708-.0576,1.0205-.1709.3115-.1133.626-.2734.9424-.4814l.6875.9492c-.3496.2842-.7588.5107-1.2266.6807s-.9688.2549-1.502.2549c-.7754,0-1.4307-.165-1.9668-.4961-.5361-.3301-.9434-.791-1.2227-1.3818-.2783-.5908-.418-1.2734-.418-2.0479,0-.751.1367-1.4229.4111-2.0166.2744-.5928.666-1.0625,1.1768-1.4102.5098-.3467,1.1191-.5205,1.8281-.5205.666,0,1.2393.1514,1.7188.4531.4795.3027.8496.7314,1.1123,1.2871.2617.5547.3936,1.2217.3936,2.002,0,.127-.0039.2539-.0107.3789s-.0156.2344-.0254.3291h-4.96ZM253.8113,98.3774c-.4961,0-.9053.1768-1.2295.5312-.3232.3545-.5107.9072-.5635,1.6582h3.4658c-.0146-.7041-.1641-1.2451-.4502-1.623s-.6934-.5664-1.2227-.5664Z"/><path d="M110.8484,130.8764h-3.4932l-.6807,2.3525h-1.6719l3.1104-9.7793h2.041l3.1182,9.7793h-1.7432l-.6807-2.3525ZM107.6951,129.6078h2.8066l-1.3965-4.8828-1.4102,4.8828Z"/><path d="M129.4012,132.8325c-.2734.1748-.6016.3164-.9844.4248s-.7822.1631-1.1982.1631c-.8691,0-1.5293-.2256-1.9805-.6768s-.6768-1.0449-.6768-1.7822v-4.0605h-1.665v-1.1553h1.665v-1.6719l1.5879-.1914v1.8633h2.5225l-.1777,1.1553h-2.3447v4.0469c0,.4014.0996.7002.3008.8955.2012.1963.5303.2949.9883.2949.2744,0,.5273-.0332.7588-.0996s.4414-.1514.6309-.2559l.5732,1.0498Z"/><path d="M133.242,122.5854v4.0742c.3018-.3682.6562-.6455,1.0625-.832s.8252-.2803,1.2549-.2803c.7041,0,1.2285.1953,1.5732.585s.5176.9365.5176,1.6406v5.4561h-1.5879v-5.208c0-.4492-.085-.7715-.2549-.9678s-.4443-.2939-.8223-.2939c-.2363,0-.4619.0527-.6768.1592s-.4131.2451-.5947.415c-.1826.1699-.3398.3516-.4717.5449v5.3506h-1.5879v-10.4736l1.5879-.1699Z"/><path d="M144.2479,125.7455v6.3213h2.0332v1.1621h-5.8604v-1.1621h2.2393v-5.1592h-2.168v-1.1621h3.7559ZM143.1424,122.0815c.3115,0,.5625.0947.7539.2842.1914.1885.2871.4248.2871.708,0,.2842-.0957.5225-.2871.7158-.1914.1943-.4424.291-.7539.291-.3027,0-.5508-.0967-.7441-.291-.1943-.1934-.291-.4316-.291-.7158,0-.2832.0967-.5195.291-.708.1934-.1895.4414-.2842.7441-.2842Z"/><path d="M148.7332,133.2289v-1.1338h1.0986v-5.2227h-1.0986v-1.127h2.3105l.29,1.7363c.2793-.6279.625-1.1064,1.0381-1.4346.4141-.3291.9463-.4932,1.5986-.4932.2217,0,.4209.0176.5986.0537.1768.0352.3525.0811.5283.1377l-.4756,1.3604c-.1514-.042-.293-.0742-.4248-.0947-.1328-.0215-.2793-.0322-.4395-.0322-.543,0-1.0127.2031-1.4062.6094-.3945.4062-.7051.9824-.9326,1.7295v2.7773h1.5098v1.1338h-4.1953ZM153.6941,128.5024v-1.8428l.1982-.9141h1.2051l-.2695,2.7568h-1.1338Z"/><path d="M161.5604,122.5639l1.5869.1768v10.4883h-1.3955l-.1143-.9209c-.2549.3535-.5596.6279-.9141.8213-.3545.1943-.751.291-1.1904.291-.6426,0-1.1719-.1641-1.5869-.4922-.416-.3291-.7246-.79-.9248-1.3818-.2012-.5928-.3018-1.2793-.3018-2.0586,0-.7607.1182-1.4375.3545-2.0303s.5742-1.0596,1.0137-1.4004c.4395-.3398.9678-.5098,1.5869-.5098.3926,0,.7441.0693,1.0566.209.3115.1396.5879.3418.8291.6064v-3.7988ZM160.0926,126.766c-.5332,0-.9492.2207-1.2471.6631-.2979.4414-.4463,1.1279-.4463,2.0586,0,.6377.0615,1.1562.1846,1.5557.123.3984.2998.6914.5312.8779.2314.1875.5107.2803.8359.2803.3594,0,.6709-.1045.9355-.3115.2646-.209.4893-.458.6738-.751v-3.5439c-.1846-.2646-.3994-.4688-.6455-.6133-.2451-.1436-.5195-.2158-.8223-.2158Z"/><path d="M177.4617,122.7407v8.4473c0,.3457.1055.5889.3154.7334s.4834.2168.8184.2168c.2178,0,.4229-.0234.6162-.0713.1943-.0479.3828-.1064.5674-.1768l.4043,1.1055c-.2227.1133-.4951.2119-.8193.2969-.3232.085-.6934.1279-1.1084.1279-.751,0-1.3359-.2119-1.7539-.6348-.418-.4219-.627-1.0029-.627-1.7393v-7.1357h-2.2607v-1.1699h3.8477Z"/><path d="M186.7664,125.7455v6.3213h2.0342v1.1621h-5.8613v-1.1621h2.2402v-5.1592h-2.1689v-1.1621h3.7559ZM185.6609,122.0815c.3115,0,.5635.0947.7549.2842.1914.1885.2871.4248.2871.708,0,.2842-.0957.5225-.2871.7158-.1914.1943-.4434.291-.7549.291-.3027,0-.5508-.0967-.7441-.291-.1934-.1934-.29-.4316-.29-.7158,0-.2832.0967-.5195.29-.708.1934-.1895.4414-.2842.7441-.2842Z"/><path d="M191.1814,133.2289v-7.4834h1.3672l.1211.9707c.3115-.3828.6797-.6729,1.1055-.8711.4248-.1982.8623-.2979,1.3105-.2979.6992,0,1.2227.1953,1.5703.585.3467.3896.5205.9365.5205,1.6406v5.4561h-1.5869v-4.6699c0-.4346-.0264-.7842-.0781-1.0488-.0527-.2646-.1553-.4561-.3086-.5742s-.3818-.1768-.6836-.1768c-.2412,0-.4707.0518-.6875.1562-.2178.1035-.416.2393-.5957.4072s-.335.3457-.4678.5352v5.3711h-1.5869Z"/><path d="M201.0037,129.9975c.0322.5107.1416.9277.3252,1.251.1846.3232.4268.5615.7266.7119.2998.1514.6299.2266.9893.2266.3682,0,.708-.0566,1.0205-.1699.3115-.1133.626-.2734.9424-.4814l.6875.9492c-.3496.2832-.7588.5107-1.2266.6807s-.9688.2549-1.502.2549c-.7754,0-1.4307-.165-1.9668-.4961s-.9434-.792-1.2227-1.3818c-.2783-.5908-.418-1.2734-.418-2.0479,0-.751.1367-1.4229.4111-2.0166.2744-.5928.666-1.0625,1.1768-1.4102.5098-.3467,1.1191-.5205,1.8281-.5205.666,0,1.2393.1514,1.7188.4531.4795.3027.8496.7314,1.1123,1.2871.2617.5547.3936,1.2217.3936,2.002,0,.127-.0039.2539-.0107.3789s-.0156.2344-.0254.3291h-4.96ZM202.7889,126.7241c-.4961,0-.9053.1768-1.2295.5312-.3232.3545-.5107.9072-.5635,1.6582h3.4658c-.0146-.7041-.1641-1.2451-.4502-1.623s-.6934-.5664-1.2227-.5664Z"/><path d="M209.8045,132.0453c0-.2549.0605-.4854.1807-.6904.1201-.2061.2842-.3701.4922-.4922.208-.123.4395-.1846.6953-.1846.2598,0,.4932.0615.7012.1846.208.1221.3721.2861.4922.4922.1211.2051.1807.4355.1807.6904,0,.251-.0596.4805-.1807.6914-.1201.21-.2842.377-.4922.499-.208.123-.4414.1846-.7012.1846-.2559,0-.4873-.0615-.6953-.1846-.208-.1221-.3721-.2891-.4922-.499-.1201-.2109-.1807-.4404-.1807-.6914Z"/><path d="M107.2557,154.8774l-.2402-3.791h1.7285l-.2334,3.791h-1.2549ZM109.7576,154.8774l-.2412-3.791h1.7363l-.2412,3.791h-1.2539Z"/><path d="M115.7596,154.8774l-.2402-3.791h1.7285l-.2334,3.791h-1.2549ZM118.2615,154.8774l-.2412-3.791h1.7363l-.2412,3.791h-1.2539Z"/><path d="M124.2635,154.8774l-.2402-3.791h1.7285l-.2334,3.791h-1.2549ZM126.7654,154.8774l-.2412-3.791h1.7363l-.2412,3.791h-1.2539Z"/><path d="M272.743,93.9614l1.2539-.5879,6.0166,12.4512-1.2617.5664-6.0088-12.4297Z"/><path d="M281.8914,104.8823v-7.4834h1.3672l.1211.9707c.3115-.3828.6797-.6738,1.1055-.8721.4248-.1982.8623-.2979,1.3105-.2979.6992,0,1.2227.1953,1.5703.585.3467.3896.5205.9365.5205,1.6406v5.457h-1.5869v-4.6699c0-.4346-.0264-.7842-.0781-1.0488-.0527-.2646-.1553-.4561-.3086-.5742s-.3818-.1777-.6836-.1777c-.2412,0-.4707.0527-.6875.1562-.2178.1045-.416.2402-.5957.4072-.1797.168-.335.3467-.4678.5352v5.3721h-1.5869Z"/><rect x="317.4803" y="56.6929" width="31.1811" height="28.3465" fill="#c39623" stroke="#312609" stroke-miterlimit="10" stroke-width="1.4173"/><path d="M323.7664,65.6157l1.2539-.5889,6.0166,12.4512-1.2617.5674-6.0088-12.4297Z"/><path d="M332.9148,76.5356v-7.4834h1.3672l.1211.9707c.3115-.3828.6797-.6729,1.1055-.8721.4248-.1973.8623-.2969,1.3105-.2969.6992,0,1.2227.1953,1.5703.584.3467.3906.5205.9375.5205,1.6406v5.457h-1.5869v-4.6699c0-.4346-.0264-.7842-.0781-1.0488-.0527-.2646-.1553-.4561-.3086-.5742s-.3818-.1777-.6836-.1777c-.2412,0-.4707.0527-.6875.1562-.2178.1045-.416.2402-.5957.4082s-.335.3457-.4678.5352v5.3711h-1.5869Z"/><path d="M366.7537,48.478v-9.7227h1.4736v9.7227h-1.4736Z" fill="#6b6b6b"/><path d="M371.1053,51.1567c-.3496,0-.6641-.0811-.9434-.2412-.2783-.1611-.498-.3828-.6582-.666-.1611-.2832-.2412-.6045-.2412-.9639,0-.3965.0986-.7373.2979-1.0205.1982-.2832.4531-.501.7646-.6523-.2363-.1221-.416-.2881-.5381-.4961-.123-.207-.1846-.4336-.1846-.6797,0-.3115.0996-.583.2979-.8154.1982-.2314.4629-.3896.7939-.4746-.3027-.2168-.5322-.4893-.6875-.8145-.1562-.3262-.2344-.6875-.2344-1.085,0-.4629.0928-.876.2764-1.2402.1846-.3633.4609-.6465.8291-.8496.3691-.2031.8174-.3047,1.3467-.3047.2266,0,.4375.0186.6309.0566.1934.0371.3662.0938.5176.1699.2266-.123.4014-.2998.5244-.5312.1221-.2314.2031-.4941.2402-.7871h1.1631c0,.3311-.0547.6191-.1631.8643-.1094.2461-.2529.4473-.4326.6025-.1797.1562-.3926.2676-.6377.333.208.2178.3613.4707.4609.7588.0986.2881.1484.5928.1484.9141,0,.4629-.0898.876-.2695,1.2402-.1797.3633-.4443.6494-.7939.8574s-.7842.3115-1.3037.3115h-.7793c-.208,0-.376.0498-.5029.1484-.1279.0996-.1914.2578-.1914.4756,0,.1982.0732.3496.2197.4531.1465.1045.3281.1562.5459.1562h1.8848c.5576,0,.9922.1934,1.3037.5811s.4678.8643.4678,1.4316c0,.415-.0879.7959-.2617,1.1406-.1758.3447-.4238.6191-.7441.8223-.3213.2031-.7188.3047-1.1914.3047h-1.9551ZM371.5154,50.1645h1.418c.1982,0,.375-.0479.5312-.1416.1562-.0947.2764-.2246.3613-.3896.085-.166.1279-.3477.1279-.5459,0-.3213-.0811-.5791-.2412-.7725-.1611-.1934-.3779-.291-.6523-.291h-1.5449c-.2832,0-.5117.1016-.6865.3047-.1758.2031-.2627.4561-.2627.7588,0,.3213.085.5811.2549.7793.1709.1982.4014.2979.6943.2979ZM372.2244,44.6791c.3877,0,.6758-.1201.8643-.3613.1895-.2412.2842-.5977.2842-1.0703,0-.4717-.0947-.8311-.2842-1.0771-.1885-.2451-.4766-.3682-.8643-.3682-.3779,0-.6641.123-.8574.3682-.1934.2461-.29.6055-.29,1.0771,0,.3027.042.5625.127.7803.085.2168.2148.3799.3896.4883.1748.1094.3848.1631.6309.1631Z" fill="#6b6b6b"/><path d="M376.1072,48.478v-7.4551h1.1064l.0986.9775h.085c.1328-.2646.291-.4814.4746-.6514.1846-.1709.3926-.2959.624-.376s.4795-.1201.7441-.1201c.3779,0,.6992.0684.9639.2051s.4678.3594.6094.666c.1416.3076.2129.7158.2129,1.2266v5.5273h-1.333v-5.2305c0-.1982-.0186-.3701-.0566-.5166-.0371-.1465-.0947-.2695-.1699-.3691-.0752-.0986-.1729-.1748-.29-.2266-.1182-.0518-.2627-.0781-.4326-.0781-.2461,0-.4678.0781-.666.2344-.1982.1553-.3545.3848-.4678.6875-.1133.3018-.1699.6748-.1699,1.1191v4.3799h-1.333Z" fill="#6b6b6b"/><path d="M384.9803,48.6479c-.6045,0-1.1123-.1328-1.5234-.3965-.4111-.2646-.7188-.6855-.9219-1.2617s-.3047-1.3232-.3047-2.2393c0-.9258.1016-1.6748.3047-2.2471.2031-.5713.5107-.9893.9219-1.2539s.9189-.3965,1.5234-.3965,1.1123.1318,1.5234.3965.7207.6826.9287,1.2539c.207.5723.3115,1.3213.3115,2.2471,0,.916-.1045,1.6631-.3115,2.2393-.208.5762-.5176.9971-.9287,1.2617-.4111.2637-.9189.3965-1.5234.3965ZM384.9803,47.5278c.3301,0,.5947-.082.7939-.248.1982-.165.3467-.4316.4463-.8008.0986-.3682.1484-.8496.1484-1.4453v-.5674c0-.5947-.0498-1.0771-.1484-1.4453-.0996-.3682-.248-.6377-.4463-.8076-.1992-.1699-.4639-.2549-.7939-.2549-.3213,0-.5859.085-.7939.2549s-.3564.4395-.4463.8076-.1348.8506-.1348,1.4453v.5674c0,.5957.0449,1.0771.1348,1.4453.0898.3691.2383.6357.4463.8008.208.166.4727.248.7939.248Z" fill="#6b6b6b"/><path d="M388.991,48.478v-7.4551h1.0918l.0986,1.0625h.085c.085-.2549.1895-.4746.3115-.6592.123-.1836.2715-.3252.4473-.4248.1748-.0996.3701-.1484.5879-.1484.0947,0,.1797.0049.2549.0137.0762.0098.1465.0283.2129.0566v1.3604h-.4678c-.1982,0-.3779.041-.5391.1211-.1602.0801-.2969.2031-.4102.3682-.1143.166-.1992.376-.2559.6309s-.085.5527-.085.8926v4.1816h-1.332Z" fill="#6b6b6b"/><path d="M395.2273,48.6479c-.6338,0-1.1504-.1348-1.5518-.4043-.4023-.2686-.6973-.6914-.8867-1.2686-.1885-.5762-.2832-1.3174-.2832-2.2246,0-.9355.0996-1.6895.2979-2.2607s.5029-.9873.9141-1.2471.9375-.3896,1.5801-.3896c.5674,0,1.04.1152,1.418.3467s.6611.6094.8496,1.1338c.1895.5244.2842,1.2266.2842,2.1045v.6104h-3.9824c.0088.5762.0566,1.0488.1416,1.417s.2266.6426.4248.8223.4678.2686.8076.2686c.1982,0,.373-.0322.5244-.0986s.2812-.165.3896-.2979c.1094-.1318.1943-.3027.2559-.5098.0605-.208.0967-.4541.1064-.7373h1.3037c-.0098.4443-.0713.8389-.1846,1.1836s-.2812.6309-.5029.8574c-.2227.2266-.4941.3994-.8154.5166-.3213.1182-.6846.1777-1.0908.1777ZM393.8807,44.1547h2.5938c0-.3965-.0234-.7344-.0713-1.0137-.0469-.2783-.1182-.5078-.2119-.6865-.0947-.1797-.2197-.3096-.376-.3906-.1562-.0801-.3428-.1201-.5596-.1201-.3311,0-.5928.0879-.7871.2627-.1934.1748-.3379.4248-.4316.751-.0947.3262-.1465.7246-.1562,1.1973Z" fill="#6b6b6b"/><path d="M401.0379,48.6479c-.4727,0-.874-.1328-1.2041-.3965-.3311-.2646-.5791-.6855-.7441-1.2617-.166-.5762-.248-1.3369-.248-2.2822,0-.916.0801-1.6553.2402-2.2178.1611-.5625.4043-.9756.7305-1.2402s.7207-.3965,1.1836-.3965c.2646,0,.5.0371.708.1133.208.0752.3906.1885.5459.3398.1562.1514.2861.3398.3896.5674h.085v-3.6426h1.3184v10.2471h-1.0625l-.1133-.9785h-.0859c-.1416.3408-.3613.6172-.6582.8291-.2979.2129-.6592.3193-1.085.3193ZM401.449,47.4711c.3027,0,.5459-.0938.7305-.2832.1836-.1885.3203-.4678.4111-.8359.0889-.3691.1338-.8174.1338-1.3467v-.4678c0-.4346-.0303-.8076-.0918-1.1201-.0615-.3115-.1445-.5664-.248-.7646-.1045-.1982-.2383-.3477-.4043-.4463-.165-.0996-.3467-.1494-.5449-.1494-.2842,0-.5156.085-.6943.2549-.1797.1709-.3125.4355-.3975.7939-.085.3594-.127.832-.127,1.418v.4951c0,.5674.04,1.0332.1201,1.3965.0801.3643.2129.6309.3965.8008.1846.1699.4229.2549.7158.2549Z" fill="#6b6b6b"/><path d="M366.9393,133.2289v-9.7227h1.4736v9.7227h-1.4736Z" fill="#6b6b6b"/><path d="M371.2898,135.9076c-.3496,0-.6641-.0801-.9424-.2402-.2793-.1611-.498-.3828-.6592-.667-.1611-.2832-.2412-.6045-.2412-.9629,0-.3975.0996-.7373.2979-1.0205.1982-.2842.4541-.501.7656-.6523-.2363-.123-.416-.2881-.5391-.4961-.1221-.208-.1836-.4346-.1836-.6807,0-.3115.0986-.583.2969-.8145.1992-.2314.4629-.3896.7939-.4746-.3027-.2178-.5312-.4893-.6875-.8154-.1553-.3262-.2334-.6875-.2334-1.084,0-.4629.0918-.877.2764-1.2402s.4609-.6475.8291-.8506.8174-.3047,1.3467-.3047c.2266,0,.4365.0195.6309.0566.1934.0381.3652.0947.5166.1699.2266-.1221.4014-.2998.5244-.5312s.2031-.4932.2412-.7861h1.1621c0,.3301-.0547.6182-.1631.8643s-.2529.4463-.4316.6025c-.1797.1553-.3926.2666-.6387.333.208.2168.3623.4697.4609.7578.0996.2881.1484.5928.1484.9141,0,.4629-.0898.877-.2686,1.2402-.1797.3643-.4443.6504-.7939.8574-.3496.208-.7842.3125-1.3037.3125h-.7793c-.208,0-.376.0488-.5039.1484-.127.0996-.1914.2578-.1914.4746,0,.1982.0732.3496.2197.4541.1465.1035.3281.1553.5459.1553h1.8848c.5576,0,.9922.1943,1.3047.5811.3115.3877.4678.8652.4678,1.4316,0,.416-.0879.7959-.2627,1.1406-.1748.3457-.4229.6191-.7441.8223s-.7178.3047-1.1904.3047h-1.9561ZM371.701,134.9155h1.417c.1992,0,.376-.0469.5322-.1416.1553-.0947.2764-.2246.3613-.3896s.127-.3467.127-.5459c0-.3213-.0801-.5781-.2402-.7725-.1611-.1934-.3789-.29-.6523-.29h-1.5449c-.2832,0-.5127.1016-.6875.3047s-.2617.4561-.2617.7578c0,.3213.085.5811.2549.7803.1699.1982.4014.2969.6943.2969ZM372.41,129.4311c.3867,0,.6748-.1211.8643-.3613.1885-.2412.2832-.5977.2832-1.0703s-.0947-.8311-.2832-1.0771c-.1895-.2461-.4775-.3691-.8643-.3691-.3779,0-.6641.123-.8574.3691-.1943.2461-.291.6045-.291,1.0771,0,.3027.043.5625.1279.7793.085.2178.2148.3809.3896.4893s.3848.1631.6309.1631Z" fill="#6b6b6b"/><path d="M376.2928,133.2289v-7.4551h1.1055l.0996.9785h.085c.1318-.2646.29-.4824.4746-.6523s.3916-.2949.623-.376c.2314-.0801.4795-.1201.7441-.1201.3779,0,.6992.0684.9639.2051.2646.1377.4678.3594.6094.667.1426.3066.2129.7158.2129,1.2256v5.5273h-1.332v-5.2295c0-.1982-.0195-.3711-.0566-.5176-.0381-.1465-.0947-.2695-.1699-.3682-.0762-.0996-.1729-.1748-.291-.2266-.1182-.0527-.2617-.0781-.4326-.0781-.2451,0-.4668.0781-.666.2334-.1982.1562-.3545.3857-.4678.6875-.1133.3027-.1699.6758-.1699,1.1201v4.3789h-1.332Z" fill="#6b6b6b"/><path d="M385.1648,133.3989c-.6045,0-1.1123-.1318-1.5234-.3965s-.7178-.6846-.9209-1.2617c-.2031-.5762-.3047-1.3223-.3047-2.2393,0-.9258.1016-1.6748.3047-2.2461s.5098-.9902.9209-1.2549c.4111-.2637.9189-.3965,1.5234-.3965s1.1133.1328,1.5244.3965c.4102.2646.7197.6836.9277,1.2549s.3115,1.3203.3115,2.2461c0,.917-.1035,1.6631-.3115,2.2393-.208.5771-.5176.9971-.9277,1.2617-.4111.2646-.9199.3965-1.5244.3965ZM385.1648,132.2797c.3311,0,.5957-.083.7939-.248s.3477-.4326.4463-.8008c.0996-.3682.1494-.8506.1494-1.4463v-.5664c0-.5957-.0498-1.0771-.1494-1.4453-.0986-.3691-.248-.6387-.4463-.8086s-.4629-.2549-.7939-.2549c-.3213,0-.5859.085-.793.2549-.208.1699-.3574.4395-.4473.8086-.0898.3682-.1338.8496-.1338,1.4453v.5664c0,.5957.0439,1.0781.1338,1.4463s.2393.6357.4473.8008c.207.165.4717.248.793.248Z" fill="#6b6b6b"/><path d="M389.1756,133.2289v-7.4551h1.0918l.0996,1.0635h.085c.085-.2559.1885-.4746.3115-.6592s.2715-.3262.4463-.4258c.1748-.0986.3711-.1484.5879-.1484.0947,0,.1797.0049.2559.0146.0752.0088.1465.0283.2119.0566v1.3604h-.4678c-.1982,0-.3779.04-.5381.1201-.1611.0811-.2979.2031-.4111.3691-.1133.165-.1982.375-.2549.6299-.0566.2559-.085.5527-.085.8936v4.1807h-1.333Z" fill="#6b6b6b"/><path d="M395.4119,133.3989c-.6328,0-1.1504-.1338-1.5518-.4033s-.6973-.6924-.8857-1.2686c-.1895-.5762-.2832-1.3184-.2832-2.2256,0-.9355.0986-1.6885.2969-2.2607.1992-.5713.5039-.9873.915-1.2471s.9375-.3896,1.5801-.3896c.5664,0,1.0391.1162,1.417.3477s.6611.6094.8506,1.1338c.1885.5244.2832,1.2256.2832,2.1045v.6094h-3.9824c.0098.5762.0566,1.0488.1416,1.417.085.3691.2266.6426.4258.8223.1982.1797.4668.2695.8076.2695.1982,0,.373-.0332.5244-.0996.1504-.0654.2812-.165.3896-.2969.1084-.1328.1934-.3027.2549-.5107s.0967-.4531.1064-.7373h1.3037c-.0098.4443-.0703.8389-.1836,1.1836-.1143.3457-.2812.6309-.5039.8574-.2217.2266-.4932.3994-.8145.5176s-.6855.1768-1.0918.1768ZM394.0662,128.9067h2.5928c0-.3975-.0234-.7354-.0703-1.0137-.0479-.2783-.1182-.5078-.2129-.6875s-.2197-.3096-.375-.3896c-.1562-.0801-.3428-.1201-.5605-.1201-.3301,0-.5928.0869-.7861.2617-.1943.1748-.3379.4248-.4326.751s-.1465.7256-.1553,1.1982Z" fill="#6b6b6b"/><path d="M401.2234,133.3989c-.4727,0-.874-.1318-1.2051-.3965s-.5791-.6846-.7441-1.2617c-.165-.5762-.248-1.3369-.248-2.2812,0-.917.0801-1.6562.2412-2.2188.1602-.5615.4043-.9756.7295-1.2402.3262-.2637.7207-.3965,1.1836-.3965.2646,0,.501.0381.709.1133.208.0762.3896.1895.5459.3398.1553.1514.2852.3408.3896.5674h.085v-3.6426h1.3184v10.2471h-1.0635l-.1133-.9775h-.085c-.1416.3398-.3613.6162-.6592.8291s-.6592.3184-1.084.3184ZM401.6346,132.2231c.3018,0,.5449-.0947.7295-.2832.1846-.1895.3213-.4678.4111-.8369.0898-.3682.1348-.8174.1348-1.3467v-.4668c0-.4346-.0312-.8086-.0918-1.1201-.0615-.3115-.1445-.5674-.248-.7656-.1045-.1982-.2393-.3467-.4043-.4463s-.3477-.1484-.5459-.1484c-.2832,0-.5146.085-.6943.2549s-.3115.4346-.3965.7939c-.085.3584-.1279.8311-.1279,1.417v.4961c0,.5674.04,1.0322.1201,1.3965.0801.3633.2129.6299.3975.8008.1836.1699.4229.2549.7158.2549Z" fill="#6b6b6b"/><path d="M46.6229,116.2201v-9.7227h1.4736v9.7227h-1.4736Z" fill="#6b6b6b"/><path d="M50.9744,118.8989c-.3496,0-.6641-.0801-.9434-.2402-.2783-.1611-.498-.3828-.6582-.667-.1611-.2832-.2412-.6045-.2412-.9629,0-.3975.0986-.7373.2979-1.0205.1982-.2842.4531-.501.7646-.6523-.2363-.123-.416-.2881-.5381-.4961-.123-.208-.1846-.4346-.1846-.6807,0-.3115.0996-.583.2979-.8145s.4629-.3896.7939-.4746c-.3027-.2178-.5322-.4893-.6875-.8154-.1562-.3262-.2344-.6875-.2344-1.084,0-.4629.0928-.877.2764-1.2402.1846-.3633.4609-.6475.8291-.8506.3691-.2031.8174-.3047,1.3467-.3047.2266,0,.4375.0195.6309.0566.1934.0381.3662.0947.5176.1699.2266-.1221.4014-.2998.5244-.5312.1221-.2314.2031-.4932.2402-.7861h1.1631c0,.3301-.0547.6182-.1631.8643-.1094.2461-.2529.4463-.4326.6025-.1797.1553-.3926.2666-.6377.333.208.2168.3613.4697.4609.7578.0986.2881.1484.5928.1484.9141,0,.4629-.0898.877-.2695,1.2402-.1797.3643-.4443.6504-.7939.8574-.3496.208-.7842.3125-1.3037.3125h-.7793c-.208,0-.376.0488-.5029.1484-.1279.0996-.1914.2578-.1914.4746,0,.1982.0732.3496.2197.4541.1465.1035.3281.1553.5459.1553h1.8848c.5576,0,.9922.1943,1.3037.5811.3115.3877.4678.8652.4678,1.4316,0,.416-.0879.7959-.2617,1.1406-.1758.3457-.4238.6191-.7441.8223-.3213.2031-.7188.3047-1.1914.3047h-1.9551ZM51.3846,117.9067h1.418c.1982,0,.375-.0469.5312-.1416s.2764-.2246.3613-.3896.1279-.3467.1279-.5459c0-.3213-.0811-.5781-.2412-.7725-.1611-.1934-.3779-.29-.6523-.29h-1.5449c-.2832,0-.5117.1016-.6865.3047-.1758.2031-.2627.4561-.2627.7578,0,.3213.085.5811.2549.7803.1709.1982.4014.2969.6943.2969ZM52.0936,112.4223c.3877,0,.6758-.1211.8643-.3613.1895-.2412.2842-.5977.2842-1.0703s-.0947-.8311-.2842-1.0771c-.1885-.2461-.4766-.3691-.8643-.3691-.3779,0-.6641.123-.8574.3691s-.29.6045-.29,1.0771c0,.3027.042.5625.127.7793.085.2178.2148.3809.3896.4893s.3848.1631.6309.1631Z" fill="#6b6b6b"/><path d="M55.9764,116.2201v-7.4551h1.1064l.0986.9785h.085c.1328-.2646.291-.4824.4746-.6523.1846-.1699.3926-.2949.624-.376.2314-.0801.4795-.1201.7441-.1201.3779,0,.6992.0684.9639.2051.2646.1377.4678.3594.6094.667.1416.3066.2129.7158.2129,1.2256v5.5273h-1.333v-5.2295c0-.1982-.0186-.3711-.0566-.5176-.0371-.1465-.0947-.2695-.1699-.3682-.0752-.0996-.1729-.1748-.29-.2266-.1182-.0527-.2627-.0781-.4326-.0781-.2461,0-.4678.0781-.666.2334-.1982.1562-.3545.3857-.4678.6875-.1133.3027-.1699.6758-.1699,1.1201v4.3789h-1.333Z" fill="#6b6b6b"/><path d="M64.8494,116.3901c-.6045,0-1.1123-.1318-1.5234-.3965s-.7188-.6846-.9219-1.2617c-.2031-.5762-.3047-1.3223-.3047-2.2393,0-.9258.1016-1.6748.3047-2.2461s.5107-.9902.9219-1.2549c.4111-.2637.9189-.3965,1.5234-.3965s1.1123.1328,1.5234.3965c.4111.2646.7207.6836.9287,1.2549.207.5713.3115,1.3203.3115,2.2461,0,.917-.1045,1.6631-.3115,2.2393-.208.5771-.5176.9971-.9287,1.2617s-.9189.3965-1.5234.3965ZM64.8494,115.2709c.3301,0,.5947-.083.7939-.248.1982-.165.3467-.4326.4463-.8008.0986-.3682.1484-.8506.1484-1.4463v-.5664c0-.5957-.0498-1.0771-.1484-1.4453-.0996-.3691-.248-.6387-.4463-.8086-.1992-.1699-.4639-.2549-.7939-.2549-.3213,0-.5859.085-.7939.2549s-.3564.4395-.4463.8086c-.0898.3682-.1348.8496-.1348,1.4453v.5664c0,.5957.0449,1.0781.1348,1.4463s.2383.6357.4463.8008.4727.248.7939.248Z" fill="#6b6b6b"/><path d="M68.8602,116.2201v-7.4551h1.0918l.0986,1.0635h.085c.085-.2559.1895-.4746.3115-.6592.123-.1846.2715-.3262.4473-.4258.1748-.0986.3701-.1484.5879-.1484.0947,0,.1797.0049.2549.0146.0762.0088.1465.0283.2129.0566v1.3604h-.4678c-.1982,0-.3779.04-.5391.1201-.1602.0811-.2969.2031-.4102.3691-.1143.165-.1992.375-.2559.6299-.0566.2559-.085.5527-.085.8936v4.1807h-1.332Z" fill="#6b6b6b"/><path d="M75.0965,116.3901c-.6338,0-1.1504-.1338-1.5518-.4033-.4023-.2695-.6973-.6924-.8867-1.2686-.1885-.5762-.2832-1.3184-.2832-2.2256,0-.9355.0996-1.6885.2979-2.2607.1982-.5713.5029-.9873.9141-1.2471s.9375-.3896,1.5801-.3896c.5674,0,1.04.1162,1.418.3477s.6611.6094.8496,1.1338c.1895.5244.2842,1.2256.2842,2.1045v.6094h-3.9824c.0088.5762.0566,1.0488.1416,1.417.085.3691.2266.6426.4248.8223s.4678.2695.8076.2695c.1982,0,.373-.0332.5244-.0996.1514-.0654.2812-.165.3896-.2969.1094-.1328.1943-.3027.2559-.5107.0605-.208.0967-.4531.1064-.7373h1.3037c-.0098.4443-.0713.8389-.1846,1.1836-.1133.3457-.2812.6309-.5029.8574-.2227.2266-.4941.3994-.8154.5176s-.6846.1768-1.0908.1768ZM73.7498,111.8979h2.5938c0-.3975-.0234-.7354-.0713-1.0137-.0469-.2783-.1182-.5078-.2119-.6875-.0947-.1797-.2197-.3096-.376-.3896s-.3428-.1201-.5596-.1201c-.3311,0-.5928.0869-.7871.2617-.1934.1748-.3379.4248-.4316.751-.0947.3262-.1465.7256-.1562,1.1982Z" fill="#6b6b6b"/><path d="M80.907,116.3901c-.4727,0-.874-.1318-1.2041-.3965-.3311-.2646-.5791-.6846-.7441-1.2617-.166-.5762-.248-1.3369-.248-2.2812,0-.917.0801-1.6562.2402-2.2188.1611-.5615.4043-.9756.7305-1.2402.3262-.2637.7207-.3965,1.1836-.3965.2646,0,.5.0381.708.1133.208.0762.3906.1895.5459.3398.1562.1514.2861.3408.3896.5674h.085v-3.6426h1.3184v10.2471h-1.0625l-.1133-.9775h-.0859c-.1416.3398-.3613.6162-.6582.8291-.2979.2129-.6592.3184-1.085.3184ZM81.3182,115.2143c.3027,0,.5459-.0947.7305-.2832.1836-.1895.3203-.4678.4111-.8369.0889-.3682.1338-.8174.1338-1.3467v-.4668c0-.4346-.0303-.8086-.0918-1.1201s-.1445-.5674-.248-.7656c-.1045-.1982-.2383-.3467-.4043-.4463-.165-.0996-.3467-.1484-.5449-.1484-.2842,0-.5156.085-.6943.2549-.1797.1699-.3125.4346-.3975.7939-.085.3584-.127.8311-.127,1.417v.4961c0,.5674.04,1.0322.1201,1.3965.0801.3633.2129.6299.3965.8008.1846.1699.4229.2549.7158.2549Z" fill="#6b6b6b"/></svg>